<?xml version="1.0" encoding="utf-8"?>
<!-- Generator: Adobe Illustrator 18.1.1, SVG Export Plug-In . SVG Version: 6.00 Build 0)  -->
<svg version="1.1" id="Layer_1" xmlns="http://www.w3.org/2000/svg" xmlns:xlink="http://www.w3.org/1999/xlink" x="0px" y="0px"
	 viewBox="0 0 472.7 613" enable-background="new 0 0 472.7 613" xml:space="preserve">
<g>
	<path fill="#FFF200" d="M236.1,596.9c-41.2,0-85.2-19.9-134.4-60.7c-28.4-23.6-49.4-46.4-51.9-49.2c0,0-0.2-0.3-0.3-0.3
		c-0.3-0.3-0.6-0.7-0.9-1.1l-0.2-0.3C24.9,458.2,9.2,424.1,3,386.7c-4.6-27.8-2.5-49.3-2.1-53.3c0-0.1,0.1-1,0.1-1
		c0-0.2,0.1-0.5,0.1-0.7l28.8-202.3c4-27.8,28.1-48.8,56.3-48.8h23.7c24.8,0,35.1-1.5,39.1-2.4c0.2-0.3,0.5-0.5,0.7-0.8
		c9.9-10.7,36.2-39.1,86.4-39.1c50.2,0,76.5,28.4,86.4,39.1c0.2,0.3,0.5,0.5,0.8,0.8c3.5,0.8,13.8,2.4,39.1,2.4H386
		c28.1,0,52.3,21,56.3,48.8l28.6,200.9c1.5,9.1,3.3,27.5-0.3,51.6c-5.3,35.6-20.6,70.3-44.3,100.5l-0.5,0.7
		c-0.9,1.1-1.8,2.2-2.7,3.2l-0.6,0.7c-2.3,2.5-23.3,25.4-51.9,49.2C321.2,577,277.3,596.9,236.1,596.9z"/>
	<path fill="#FF358C" d="M236.1,578c-19.7,0-40.7-5.3-62.2-15.8c-19.1-9.3-39-22.6-60.8-40.6c-27.8-23.1-48.8-46.1-49.7-47.1
		l-0.2-0.2c-0.2-0.3-0.5-0.5-0.7-0.8l-0.2-0.2C11.5,414.3,18.1,342.8,19,334.9l0-0.3c0-0.3,0.1-0.7,0.1-1l28.3-199.1
		c2.9-20.4,20.4-35.6,41-35.6h23.3c29.9,0,41.3-2.1,45.6-3.9c0.5-0.2,0.7-0.3,0.9-0.4c0.6-0.6,2.2-2.2,3.3-3.5
		c8.6-9.3,31.3-33.8,74.4-33.8c43.1,0,65.9,24.6,74.4,33.8c1.2,1.2,2.7,2.9,3.3,3.5c0.1,0.1,0.4,0.2,0.9,0.4
		c4.3,1.8,15.7,3.9,45.6,3.9h23.3c20.6,0,38.1,15.2,41,35.6l28.1,197.8c1.4,8.2,3,24.6-0.3,46.5c-4.9,32.5-18.9,64.4-40.7,92.1
		l-0.5,0.7c-0.6,0.8-1.3,1.6-2,2.3l-0.6,0.7c-0.8,0.9-21.8,23.9-49.6,47c-21.8,18.1-41.6,31.4-60.8,40.6
		C276.8,572.7,255.8,578,236.1,578z"/>
	<path fill="#F1F2F2" d="M236.1,558.3c-16.7,0-34.8-4.6-53.6-13.8c-17.7-8.6-36.2-21-56.8-38.1c-26.8-22.2-46.8-44.2-47.7-45.1
		c0,0-0.2-0.3-0.2-0.3c-0.1-0.1-0.6-0.6-0.6-0.6c-45.3-52.5-39.5-116.1-38.6-123.2c0,0,0.1-0.6,0.1-0.8L67,137.2
		c1.5-10.6,10.8-18.7,21.5-18.7h23.3c35.6,0,47.2-2.9,53.2-5.5c0.8-0.4,1.6-0.7,2.4-1.1c1.4-0.8,2.8-1.7,4-2.8
		c1.2-1,2.3-2.3,4.7-4.8c7.6-8.2,25.4-27.5,59.9-27.5c34.5,0,52.3,19.3,59.9,27.5c2.3,2.5,3.5,3.8,4.7,4.8c1.2,1.1,2.6,2,4.1,2.8
		c0.7,0.4,1.5,0.7,2.3,1.1c6.1,2.6,17.6,5.5,53.3,5.5h23.3c10.7,0,20,8,21.5,18.7l28.1,197.8c0,0.1,0,0.3,0.1,0.4
		c1.1,6.7,2.5,20.9-0.4,40.4c-4.4,29.1-17,57.8-36.7,82.8l-0.6,0.7c-0.3,0.4-0.7,0.8-1,1.2l-0.6,0.7c-0.2,0.3-20.8,22.8-47.7,45.1
		c-20.5,17-39.1,29.5-56.8,38.1C270.8,553.6,252.8,558.3,236.1,558.3z"/>
	<path fill="#01B0F0" d="M236.1,538.5c-13.7,0-28.9-4-45-11.8c-16.2-7.9-33.5-19.5-52.8-35.5c-25.7-21.3-44.9-42.3-45.7-43.2
		l-0.2-0.2l-0.3-0.4c-39.8-46.1-34.7-101.8-33.9-108l0-0.4l28.3-199c0.1-0.9,1.1-1.7,2-1.7h23.3c38.8,0,52.2-3.4,60.9-7
		c1.3-0.6,2.6-1.2,3.9-1.8c2.9-1.5,5.6-3.4,8-5.5c1.9-1.7,3.6-3.5,6-6.1c6.8-7.4,19.6-21.2,45.5-21.2c25.9,0,38.6,13.8,45.5,21.2
		c2.4,2.6,4.1,4.4,6,6.1c2.5,2.2,5.2,4.1,8.1,5.6c1.2,0.6,2.4,1.2,3.7,1.7c8.7,3.7,22.1,7,60.9,7h23.3c0.9,0,1.8,0.8,2,1.7
		l28.1,197.8c0,0.3,0.1,0.6,0.1,0.9c0.9,5.6,2.1,17.5-0.4,34.3c-3.9,25.8-15.2,51.2-32.7,73.5l-0.6,0.7c0,0-0.1,0.1-0.1,0.1
		l-0.6,0.6c-0.2,0.2-20.1,22-45.7,43.2c-19.3,16-36.6,27.6-52.8,35.5C264.9,534.6,249.8,538.5,236.1,538.5z"/>
	<polygon fill="#FFF200" points="352.5,613 340,570.5 352.4,527.9 128.2,527.9 140.6,570.5 128.2,613 	"/>
	<g>
		<path fill="#01B0F0" d="M177.3,576.8c0,3.7,2.3,4.3,3.3,4.3c1.9,0,3.1-1.6,3.1-3c0-1.7-1.3-2.2-6.2-4.2c-2.2-0.9-7.7-3.1-7.7-9
			c0-6.3,5.8-9.7,11-9.7c4.3,0,10.5,2.2,10.6,9.8h-8c-0.2-1.1-0.4-3.1-2.9-3.1c-1.4,0-2.8,1-2.8,2.5c0,1.4,0.9,1.8,6.5,4.4
			c5.9,2.6,7.4,5.4,7.4,9c0,5-2.6,10.1-11,10.1c-8.3,0-11.6-4.9-11.4-11H177.3z"/>
		<path fill="#01B0F0" d="M195.5,555.7h8.1v31.5h-8.1V555.7z"/>
		<path fill="#01B0F0" d="M215.5,576.8c0,3.7,2.3,4.3,3.3,4.3c1.9,0,3.1-1.6,3.1-3c0-1.7-1.3-2.2-6.2-4.2c-2.2-0.9-7.7-3.1-7.7-9
			c0-6.3,5.8-9.7,11-9.7c4.3,0,10.5,2.2,10.6,9.8h-8c-0.2-1.1-0.4-3.1-2.9-3.1c-1.4,0-2.8,1-2.8,2.5c0,1.4,0.9,1.8,6.5,4.4
			c5.9,2.6,7.4,5.4,7.4,9c0,5-2.6,10.1-11,10.1c-8.3,0-11.6-4.9-11.4-11H215.5z"/>
		<path fill="#01B0F0" d="M237.5,562.8h-6.2v-7.1h20.4v7.1h-6.2v24.5h-8.1V562.8z"/>
		<path fill="#01B0F0" d="M258.7,587.2h-8.7l12.5-31.5h6.9l12.1,31.5h-8.8l-1.5-4.6h-11L258.7,587.2z M265.5,565.3l-3.4,11h6.9
			L265.5,565.3z"/>
		<path fill="#01B0F0" d="M284.7,555.7H295c4.9,0,8,0.9,9.8,2.3c2.6,2,3.8,5.2,3.8,8.6c0,2.4-0.7,4.3-1.6,5.7
			c-1.1,1.7-2.6,2.7-4.1,3.4l6.5,11.6h-8.3l-8.2-15.2h1.3c2,0,3.8-0.2,4.9-0.9c1-0.6,1.8-2.1,1.8-3.9c0-1.7-0.8-3-1.9-3.7
			c-0.9-0.6-2.2-0.9-3.3-0.9h-3v24.5h-8.1V555.7z"/>
	</g>
	<g>
		<path fill="#FFF200" d="M375,280.9c3.7-6.7,5.9-14.4,5.9-22.6c0-25.7-20.9-46.6-46.5-46.6h-61c-25.7,0-46.6,20.9-46.6,46.6
			c0,0.7,0,1.4,0.1,2.1l-0.3,0c-19.8-1.5-29.8-14.7-29.8-21.6V211h-64.3v27.8c0,2.7-1.7,7.6-6.4,12.1c-4,3.8-11.2,8.5-23.3,9.5
			l-15.2,1.2v109h157.6v-0.1h54.1h63.9l0-31.5h21.2v-58H375z"/>
		<g>
			<g>
				<path fill="#FF358C" d="M100.6,328.5h48.7v-29.1H180v29.1h48.7v25.1H100.6V328.5z M104.1,276.3c29.2-2.2,45-22.4,45-38V227h31.3
					v11.3c0,15.6,16.4,35.8,45,38v24.2c-28.4-0.7-50.3-13.5-60.7-29.1c-10.4,15.6-32.3,28.4-60.6,29.1V276.3z"/>
				<path fill="#FF358C" d="M316.7,322H294l-7.8,34.4h-30.8l7.8-34.4h-23.4v-25.1h128.1V322h-21.2v34.4h-30.1V322z M243.3,257.8
					c0-16.6,13.5-30.1,30.1-30.1h61c16.6,0,30.1,13.5,30.1,30.1c0,16.6-13.5,30.1-30.1,30.1h-61
					C256.8,287.9,243.3,274.4,243.3,257.8z M328.1,264.5c3.8,0,6.5-2.8,6.5-6.5c0-3.8-2.8-6.5-6.5-6.5h-48.4c-3.8,0-6.4,3.1-6.4,6.5
					c0,3.8,2.6,6.5,6.4,6.5H328.1z"/>
			</g>
		</g>
	</g>
	<g>
		<g>
			<polygon fill="#FFF200" points="237.5,78.9 206.6,95.2 212.5,60.8 187.5,36.4 222,31.3 237.5,0 253,31.3 287.6,36.4 262.5,60.8 
				268.4,95.2 			"/>
		</g>
		<g enable-background="new    ">
			<polygon fill="#FF358C" points="237.5,22.6 246.3,40.5 266.1,43.3 251.8,57.3 255.2,76.9 237.5,67.6 219.9,76.9 223.2,57.3 
				209,43.3 228.7,40.5 			"/>
		</g>
	</g>
	<g>
		<path fill="#FFF200" d="M346.2,150.3h11.8v-39.5h-11.8V93.2H115.9V131v44.2v41.7h121.6v-13.2c5.6,8.3,15.4,13.8,26.8,13.8h52.1
			c18,0,32.1-13.5,32.1-30.6c0-4.8-2.3-13.3-2.3-13.3V150.3z"/>
		<path fill="#FF358C" d="M200.8,148.2h-25c-12.1,12.4-31.8,17.2-51.7,17.2v-18.2c28.1,0,41-12.9,41-26h-40.4V103h63.5v12.5
			c0,4.8-0.6,9.2-1.6,13.3h14.2v-27.6H226v78h-25.2V148.2z M227.7,207.1h-98.3v-37.3h25.4v18.7h72.9V207.1z"/>
		<path fill="#FF358C" d="M238.5,103h63.5v12.5c0,36.8-31.4,48.4-64.1,48.4v-18.2c28.1,0,41-11.4,41-24.5h-40.4V103z M264.3,166
			h52.1c12.5,0,22.3,8.7,22.3,20.8c0,11.8-9.8,20.8-22.3,20.8h-52.1c-12.3,0-22.1-9-22.1-20.8C242.2,174.6,252,166,264.3,166z
			 M308.3,190.5c3.2,0,5.4-0.9,5.4-3.6c0-3.1-2.2-3.8-5.4-3.8h-36.1c-2.7,0-4.9,0.7-4.9,3.8c0,2.7,2.2,3.6,4.9,3.6H308.3z
			 M311.4,101.3h25v19.2h11.8v19.9h-11.8v23.2h-25V101.3z"/>
	</g>
	<g>
		<path fill="#FFF200" d="M290.3,467c1.4,17.7,1.1,18.5-0.4,23.3c0.9,5.8,1.1,10.5,1.5,20c0.4,9.5,2,9.1,4.2,14.8
			c0.1-2.5,2.8-3.3,3.8-4c4.1-2.4,4-11.9,4.1-13.1c0.7-10.3,4-16.5,5.2-18.7c1.3-2.2,0.5-3.1-1.2-6.7c-1.7-3.5-14.7-22.8-16.5-25.1
			C289.9,458.3,289.9,462.9,290.3,467z"/>
		<path fill="#FFF200" d="M277.5,430.1c0,0,0.5,0.3,1.1,0.3c0.3,0,0.7-0.1,1-0.3c0.9-0.5,1.9-1.2,2.4-1.2c0,0,0.1,0,0.1,0
			c0.5,0.1,0.5,0.5,0.5,0.5c0.2-0.5,0.8-3.9,0.8-5.4c0-1.5-2-4.5-3.7-6.6C278.4,419.4,277.5,430.1,277.5,430.1z"/>
		<path fill="#FFF200" d="M241.7,473.8c4.5,2.1,10.4,7.5,12,10c0.1-5.9-0.6-16.9,0.3-21.3C252.4,463.9,243.5,472.4,241.7,473.8z"/>
		<path fill="#FFF200" d="M230.7,414.1c0.9,1.2,1.8,2.7,1.7,3.8c0.1-0.4,0-0.4,0.3-2c0.5-2.5,2.6-3.2,3.1-5.7c0.3-2,1-4,2.2-5
			c1.8-1.4,3.2-1.7,3.3-2.6c-2,1-12,5.5-13.5,6.2C228.2,410.4,229.7,412.9,230.7,414.1z"/>
		<path fill="#FFF200" d="M206.7,472c1.1,9.3,0.4,11.7-1.2,17.1c-1.6,5.4-1.1,18.1-0.2,29.2c0,0,3.1-0.8,5.7-12.6
			c2.6-11.7,5.9-16.3,7.7-18.9c-0.2-0.7-1.1-3.1-4.1-5.9C211.7,478.2,210.3,476.1,206.7,472z"/>
		<path fill="#FFF200" d="M234.5,386.6c-1.9,0-4.4,5-4.9,5.2c-0.4,0.2-1.2,0.3-1.9,0.3c-0.3,0-0.5,0-0.7-0.1
			c-1.5-0.4-1.5-3.5-1.5-3.5s-0.6,0.4-1.3,0.8c0.4,1.7,0.2,4.6,0.4,5c0.2,0.4,1.6,3,1.8,6c1.4-0.9,5.8-1,7.9-1.5
			c2.1-0.5,5.1-2,7.9-3.3c-1.1-2.8-4.7-6.3-7.1-8.9C234.7,386.6,234.6,386.6,234.5,386.6z"/>
	</g>
	<path fill="#FFF200" d="M332.2,393.7c-0.1-0.2-0.2-0.5-0.3-0.8c-1.4-4.6-5.7-7.6-10.7-7.6c-1.9,0-3.6,0.4-4.4,0.6
		c-2.5,0.7-4.4,1.7-5.6,2.9c-0.1-3.2-0.1-6.5-0.3-9.3c-0.3-5.2-2.8-10-7-13.4c-3.5-2.8-7.7-4.4-11.6-4.4c-0.2,0-0.5,0-0.7,0
		c-8.2,0.4-12.8,4.4-15.4,8.3c-0.7-0.6-1.4-1-2.3-1c-1.1,0-2.2,0.7-2.9,1.7c-2.8-3.3-6.3-5.5-9.3-6.3l0,0c-1.2-0.4-3.5-1.1-6.5-1.1
		c-3.5,0-8.7,1.1-13.7,6.2c0,0,0,0-0.1,0.1c-3.2-1-7.7-1.7-12.6-1.7c-6.2,0-11.6,1-14.7,2.5c-0.9-0.2-1.9-0.3-2.9-0.3
		c-2.7,0-5.2-1.8-7.1-1.1c-1.9-1.8-5.2-0.5-9.1-0.5c-2,0-3.9,0.3-5.5,0.9c-0.7-0.8-1.5-1.6-2.3-2.3c-2.6-2.2-5.7-3.6-8.8-4.1
		c-1.5-0.5-3-0.8-4.6-0.8c-7.1,0-12.9,5.1-17.3,15.1c-0.1,0.3-0.4,0.7-0.7,1.2c-1,1.6-2.6,4-3.1,7.6c-1.9-2.3-4.7-3.7-7.7-3.7h0
		c-2.9,0-5.6,1.3-7.4,3.5c0,0-0.1,0.1-0.1,0.1c-2.4,1-4.4,2.9-5.4,5.5c-1.4,3.8-0.3,8.1,2.7,10.7c0.6,0.5,1.1,1,1.5,1.4
		c0,0.3,0,0.6,0.1,0.9c0.5,4.5,3.5,7.3,4.9,8.6c0.1,0.1,0.3,0.3,0.4,0.4c0.6,1.2,1.7,4.3,2.3,6.2c0.3,0.8,0.6,1.6,0.9,2.4
		c2.6,7.2,5.7,10.8,7.2,12.4c0,0.2-0.1,0.4-0.1,0.6c-2.2,9-1.9,14.9-1.8,17c0,1.2,0.3,11.9-1.2,23.9c-1.2,9.4-1.2,13.6,1.1,18.5
		c0.9,1.9,3.5,8.8,5.5,17.9c1.6,7.4,1.9,9.5,1.7,10.7c-0.3,0.4-0.6,0.8-0.9,1.1c-0.3,0.3-0.5,0.6-0.7,0.9c-1.4,0.6-2.9,1.2-3.8,1.8
		c-3.9,2.3-6.1,6.5-5.5,10.9c0.2,1.4,0.6,2.7,1.3,3.9c0.2,0.6,0.5,1.2,0.8,1.9c2.8,5.1,8.9,6.9,13.6,6.9c0.2,0,0.4,0,0.6,0
		c3.1-0.1,7.6-0.3,11.2-2.4c1.1,0.4,2.2,0.6,3.4,0.6c2.1,0,4.1-0.7,5.8-1.9c2.4-1.7,3.9-4.6,3.8-7.5c0-0.7,0.4-2.8,1-5.7
		c0,0.3,0,0.7,0,1.1c0.1,1.6,0.2,3.5,0.2,5.1c0.1,2.6,1.4,5,3.4,6.6c1.8,1.5,4,2.3,6.3,2.3c1.7,0,3.4-0.4,4.9-1.3
		c1.7,1,3.8,1.8,6.7,1.9c0.8,0,1.6,0.1,2.4,0.1c2.3,0,4.2-0.2,5.8-0.6c1.1-0.3,2.1-0.7,2.9-1.1c3.7-0.4,6.9-2.6,8.6-5.9
		c1.3-2.4,1.6-5.3,1.1-8c0.5,0.1,1.1,0.1,1.6,0.1c0.9,0,1.8-0.1,2.7-0.3c-1.5,4-0.1,7.7,0.6,9.1c3.2,6.7,11.4,6.7,14.1,6.7
		c0.5,0,1.1,0,1.6,0c2.3-0.1,4.8-0.7,7.1-1.9c0.6,0.1,1.3,0.2,1.9,0.2c1.5,0,2.9-0.3,4.2-0.9c2.7-1.2,4.7-3.5,5.4-6.3
		c1.4,1.3,3.4,2.1,5.5,2.1c1.7,0,3.4-0.6,4.7-1.5c0.2,0.9,0.5,1.7,0.9,2.6c2.1,4.7,6.4,7.5,11.4,7.5c3.5,0,7.3-1.6,9.9-3.9
		c0.3,0.2,0.7,0.4,1.1,0.6c2.2,1.2,5,1.7,8.9,1.7c1.8,0,3.5-0.1,4.7-0.2c2.7-0.2,5.1-1.5,6.7-3.7c0.8-1,3.3-4.9,2.5-10
		c-0.7-4.5-4.2-7.5-7.5-9.4c-0.4-0.9-0.8-1.9-1.1-2.9c-0.1-0.9,0.4-3.2,0.6-4.3l0.1-0.3c0.4-2.1,2.9-8.7,8.6-20.4l0.1-0.2
		c4.6-9.4,4.8-13.6,3.5-17.6c0-0.1-0.1-0.3-0.1-0.4c-0.4-1.5-1.1-4.4-2.5-7.7c-0.9-2.2-2.2-5.8-3.5-9.2c-0.9-2.3-1.8-4.7-2.6-6.7
		c-0.6-1.7-1.4-3.3-2-4.9c-1.2-2.9-2.6-6.1-2.9-8c-0.3-1.8-0.6-3.4-1-4.9c1.7-0.6,3.2-1.5,4.3-2.8c0,0,0,0,0.1-0.1
		c5.1-5.6,9.8-19.4,10.4-21.8c0.1-0.4,0.3-1,0.5-1.6c0.6-1.6,1.5-3.9,1.3-6.6c0.1-1.5,0.4-2.6,0.6-3.2
		C333.3,399,333.3,397.1,332.2,393.7z M189.6,401.3C189.5,401.3,189.5,401.3,189.6,401.3c-0.1,0.1-0.1,0.1,0,0.2
		c-0.2,0.9-0.4,1.9-0.5,2.9c-0.4,3.3-0.2,6,0.4,8.4c-0.1,0.2-0.2,0.4-0.3,0.6c-2.3,4.5-6.7,11.5-7.6,13c-0.9,1.5-1.9,4.2-1.9,5.3
		c-0.1,1.6,0.5,4.3,1.6,6.3c-0.8,1.1-1.5,2.3-2.1,3.7c-3,6.6-1.6,14.1,1.2,19.9c-0.6,0.7-1.2,1.4-1.6,2.3
		c-1.2,2.6-3.6,14.9-2.9,20.9c0.7,6,2.4,12.5,1.8,19.9c-0.6,7.5-1.7,12.1-1.6,15c0.1,2.9,0.3,3.2,1,4.2c0.7,1,2.9,2.9,2.2,6
		c-0.7,3.1-1.5,7.6-1.5,9.2c-0.2,0.1-0.3,0.2-0.5,0.2c-0.1,0-0.2,0-0.3-0.1c-0.2-3.3,0.1-7.1-0.5-7.4c0,0,0,0,0,0
		c-0.5,2.4-0.8,4.8-0.8,5.8c-0.2,0.1-0.3,0.2-0.5,0.2c-0.1,0-0.2,0-0.3-0.1c-0.1-2,0-4.2-0.1-5.6c-0.9,0.4-2,1.1-2.5,2
		c-1,1.6-1.9,4.2-2.6,5.5c-0.7,1.3-5,1.5-7.2,1.6c-0.1,0-0.2,0-0.3,0c-2.2,0-4.7-0.8-5.5-2.2c-0.2-0.4-0.3-1.3-0.3-1.6
		c-1-0.3-1-1.9,0.2-2.6c1.3-0.7,4.5-2,5-2.1c0.8-1.4,4.1-5,4.3-5.9c1.2-3.8,0.9-6.3-1.2-16.4c-2.1-10-5.1-17.5-6.1-19.9
		c-1.2-2.5-1.4-4.8-0.3-13.5c1.7-13.7,1.3-25.5,1.3-25.5c-0.1-2-0.4-6.8,1.5-14.4c1.9-7.6,2.2-5.3,1.4-8.3c-0.6,0.2-1.2,0.4-1.8,0.4
		c-0.4,0-0.7-0.1-0.9-0.4c-0.5-0.6-3.4-2.8-6-10.1c-1.4-3.9-3-8.8-4.2-10.7c-1.2-1.9-3.6-2.9-3.8-4.8c-0.2-1.8,0-2.2,0.1-3
		c0-0.7-2.5-3.3-4.8-5.2c-0.2-0.2-0.3-0.7,0.2-0.7c0.2,0,0.5,0.1,1,0.4c1.6,1,3.9,3.2,4.3,3.4c0.1,0,0.1,0,0.2,0
		c0.3,0,0.4-0.5,0.2-0.9c-0.2-0.4-1.9-4.7-2.1-5.4c-0.1-0.3,0.1-0.5,0.3-0.5c0.2,0,0.6,0.2,0.8,0.8c0.4,1,2.7,4.8,3.1,5.3
		c0.4,0.4,0.9,1.1,1.5,1.2c1.5,0.2,2.2,2.3,2.5,4.5c0.3,2.2,1.3,4.2,2,5.3c0.6,1.1,3.5,6.2,3.6,6.3c0.3-1.9,1.3-3.4,3.1-4.9
		c1.3-1.1,2.2-1.5,2.7-2.7c0.5-1.2-0.3-5.2,2.5-7.2c-0.9-1.1-3.1-0.6-2.5-4c-2.1-2.7-3.7-3.6-2.3-7.8c-0.2-3.1,1.8-4.3,3.1-7.2
		c1.1-2.5,4.5-9.6,8.9-9.6c0.7,0,1.5,0.2,2.2,0.6c2.8,0,7.9,2.5,9.4,9.7c1.4,7.1,0.6,6.3,1.4,7.1c0.8,0.9,2.9,2.7,3,4.4
		c0.6,1.4-0.1,3-0.2,3.1c0.3,0.6,0.5,1.8,0.6,2.8C189.9,399.7,189.7,400.5,189.6,401.3z M269.9,492.3c-1.6-1.3-3.6-2.7-4.1-2.7
		c-0.1,0-0.1,0-0.1,0c0.5,1.6,1.4,7,0.4,12.8c-1,5.8-4.9,12.8-5.1,16.1c-0.2,3.3,0,4.7,0.2,4.9c0.7,0.3,1.7,3.1,0.7,6.4
		c-1,3.3-1.5,6.9-1.4,8.1c-0.2,0.1-0.5,0.1-0.7,0.1c-0.3,0-0.6-0.1-0.7-0.2c0-3,0.3-6-0.3-6.4c-1.1,1.5-3.2,4.9-3.7,6.1
		c-0.6,1.2-2.7,2.1-4.8,2.2c-0.3,0-0.7,0-1.1,0c-2.2,0-5.2-0.3-5.8-1.5c-0.7-1.4-0.5-2.5,1.9-4.2c1.5-1.1,2-1.3,2.2-1.3
		c0.1,0,0.1,0.1,0.1,0.1c1.6-2.6,6.5-4.4,7.5-15.4c0.4-4.6,1.3-21.7,0.5-24.4c-3.8-2.3-15.2-8.4-19.3-10.6c-4.1-2.2-8.7-3.2-9.2-6.8
		c-0.6-3.6-0.7-4.9,5.2-12.7c5.9-7.9,13.5-17.2,13.5-17.2c-0.4-1.9-3.7-4.4-4.9-6.9c-1.2-2.6-0.9-6.8-3-7.6
		c-3.6-1.5-4.9-4.3-5.2-5.1c-0.3-0.8-0.3-0.9-0.3-0.9c-0.1,0-0.5-0.3-0.6-0.4c-0.8,1.8-1.3,3.6-5.3,5.2c-0.8,1.3-4.4,6.2-7.3,10.4
		c2.7,1.3,5.2,2.3,6.2,2.5c0.3,0,0.8-0.1,1.4-0.1c1.5,0,3.5,0.2,4.7,0.8c0.6,0.3,0.7,0.5,1.2,0.7c0.5,0.3,4.1,1.1,5.2,1.2
		c1.1,0.1,0.8,0.9,0.1,0.9c0,0-0.1,0-0.2,0c-1,0-4.2-0.5-4.7-0.6c-0.1,0-0.1,0-0.2,0c-0.3,0-0.4,0.2-0.2,0.5
		c0.3,0.3,1.9,1.3,3.7,2.5c1.3,0.9,0.7,1.3,0.3,1.3c-0.1,0-0.2,0-0.2-0.1c-2.3-1.4-3.9-2.2-4.7-2.2c-0.1,0-0.2,0-0.3,0
		c-0.6,0.2-1.4,1.3-2.7,1.3c-0.3,0-0.5,0-0.8-0.1c-0.2-0.1-0.3-0.3-0.3-0.5c-0.9-0.4-2-1.1-2.8-1.9c-1.1-0.3-2.4-0.9-4-1.2
		c-0.7-0.2-2.3-0.6-4.1-1.3c-0.8,1.2-1.4,2.2-1.6,2.8c-0.5,1.2-0.8,4.7-0.7,7.2c0.1,2,6.6,12.9,10.1,19.5c3.5,6.6,7.5,11.6,5,15.7
		c-2.5,4.1-13.7,21.6-15.5,27.7c-1.9,6,0.2,10.4,1.2,11.9c3.1,2.3,5.2,4.4,5.9,5.5c0.6,1,0.6,3.6-1.5,3.8c-1.4,0.1-2.1,0.1-2.4,0.1
		c-0.1,0-0.2,0-0.2,0c0,1.2-2.3,1.6-4.9,1.6c-0.6,0-1.3,0-1.9,0c-3.4-0.2-3-1.4-4.8-4.1c-1.8-2.6-3.3-3.4-3.3-3.4s-0.9-0.8-1.4-1
		c-0.1,0-0.2,0-0.3,0c-0.8,0-1.4,0.6-1.4,1.8c-0.1,1.4-0.2,5.8-0.2,5.8s-0.3,0.2-0.6,0.2c-0.2,0-0.3,0-0.5-0.2
		c-0.2-3-0.3-6.9-0.4-8.6c-0.3-4.5,1.6-5.2,2.4-7.4c0.4-1.2,0.1-3.4-0.4-5.3c-1.3-5.2-4.6-12.3-4.9-19.4c-0.3-7,2.2-11,1-16.6
		c-1-4.6-3.2-13.4-4.4-18.7c0,0,0.1-0.1,0.1-0.1c0.7-1.1,1.3-2.2,1.7-3.3c0.9-2.1,1.4-4.3,1.6-6.6c0.4-4.6-0.2-9.1-1.6-13.2
		c1.4-0.8,2.7-1.4,3.8-1.9c1.4-0.7,2.5-1.7,2.5-1.7s-1.1-1.2-1-2.8c0.4-5.4,3.2-18.4,3.2-18.4c-0.8-0.7-1.3-1.5-1.8-2.3
		c1-4,1.1-8.2,0.1-11.7c0-0.1,0-0.2,0-0.3c0.7-2.1,1.3-3.6,1.4-3.9c-0.3-6.9-2.2-12.2,4.3-15.5c0.7-0.4,3.4-1.9,6.2-1.9
		c1.1,0,2.3,0.3,3.4,0.9c1.3,0.8,8.3,6.5,9.1,8c1.5-1,5.7-4.4,8.4-5.1c0.5-0.1,1-0.3,1.4-0.3c0.8,0,1.8,0.4,3.5,1.7
		c2.7,2,6.4,4.6,7.6,5c-0.1-3.6-1.2-8.8,3.5-13.6c2.6-2.7,5-3.4,7-3.4c1.7,0,3.1,0.5,4,0.8c2,0.4,7.2,4,7.3,10.3
		c0.1,6.3-0.5,9.7-0.5,12.8c0,0.7,0.1,1.7,0.2,2.9c-1.3,1.8-2.4,4.2-3,7.3c-0.5,2.9-0.5,6-0.3,9.3c-0.3,0.4-0.5,0.6-0.8,0.6
		c0.2,0.6,0.5,2,1,3.7c0.1,2.1,0.2,4.3,0.3,6.4c0,4.2,0.4,7.4,1.2,9.9c-0.1,0.1-0.1,0.2-0.2,0.2c0.1,0.1,0.2,0.1,0.3,0.2
		c0.1,0.4,0.3,0.8,0.4,1.2c0.5,1.1,1,2.1,1.7,2.9c-0.1,0.4-0.2,0.9-0.3,1.3c0,0,0,0,0,0.1c-0.3,1.2-0.5,2.5-0.6,3.8
		c-0.3,2.9-0.4,6-0.2,9.2c0.3,4.9,1.2,9.6,2.2,14.1c-1.3,4.6-2.4,8.5-2.6,9.6c-0.3,1.8-0.9,5.5-0.6,6.4c1,1,5.7,5.6,6.2,5.9
		C270.6,492,270.2,492.2,269.9,492.3z M323.5,399.9c-0.3,1.1-0.9,3.2-0.9,6c0.3,1.4-0.9,3.2-1.5,5.7c-0.6,2.5-5,14.2-8.3,17.8
		c-0.3,0.3-0.9,0.5-1.6,0.5c-1.3,0-3-0.7-4.2-2.9c-0.9,2.5-3,5.2-2.8,7.4c0.9,1.4,2.1,6.2,2.9,10.5c0.7,4.3,3.5,9.7,5.5,14.7
		c1.9,5,4.6,12.1,6.1,16c1.5,3.7,2.1,6.8,2.3,7.5c0.5,1.4,0.7,3.4-3,10.8c-1.1,2.4-8.2,16.9-9.4,22.7c-0.5,2.7-1.3,6.5-0.3,9.3
		c1,2.8,2.4,5.9,2.6,6.7c1.6,0.6,5.5,2.5,5.7,4.2c0.3,1.7-0.7,3-0.7,3c-0.9,0.1-2.5,0.2-4.1,0.2c-1.8,0-3.7-0.1-4.7-0.6
		c-1.8-0.9-1.5-4.2-2.5-5.7c-1-1.5-4.6-4.7-7.3-4.8c0,2.8-0.6,9.7-1.3,10.8c-0.4,0.7-2.3,2-4.2,2c-1.2,0-2.3-0.5-3-2.1
		c-1.8-4,0.1-10.2,0.3-12.2c-0.5-4-0.2-5.5-1-8c-0.8-2.5-7.4-13.8-7.8-22c-0.4-8.3,2.2-7-0.2-16.7c-0.8-3.2-1.8-6.8-2.8-10.7
		c0.6-2.1,1.3-4.4,2-6.8c0.2-0.8,0.4-1.3,0.6-1.9c0.2-0.6,0.4-1.2,0.7-2.1c1.2-4.2,2.2-8.1,1.3-13.5c-0.5-3.3-1.9-6.1-3.5-8.5
		c0.4-0.8,0.7-1.3,0.7-1.3c-0.5,0.1-0.9,0.2-1.4,0.3c-0.8-1-1.7-2-2.6-2.8c0.2-3.1-0.5-5.8-0.9-7.3l0-0.1c-0.3-1.3-1.2-4.4-1.9-7.2
		c0-0.2,0-0.5,0-0.7c0.4-0.9,0.8-1.8,1.1-2.6c2-3.3,2.4-7.5,2.3-12.2c0.3-0.1,0.7-0.2,1.1-0.3c1.7-1.2,2.5-1.8,2.5-1.8
		c0.6-6,1.6-17.5,3.5-23.4c1.9-5.9,6.2-6.7,9.4-6.9c0.1,0,0.2,0,0.2,0c3.3,0,9.1,3.2,9.5,9.3c0.4,6.2,0.2,16.4,0.8,18.4
		c0.4,1.1,1.3,2.1,3.9,2.1c0.1,0,0.3,0,0.4,0c0.4,0,0.8-0.1,1.3-0.1c2.1,0,4.8,0.9,4.6,9.2c-0.2,7.9,0.1,8.8,0.2,8.8
		c0,0,0.1-0.1,0.1-0.1c2.5-3.7,5.4-9.8,5.7-11.5c0.1-1.7-1.6-4.3,0.1-7.7c-0.2,0-0.5,0.1-0.7,0.1c-0.5,0-0.8-0.1-1-0.2
		c-0.3-0.3,0-0.8,1.4-0.9c0.7-0.1,0.8-0.4,0.5-0.5c-0.6-0.1-2.8,0-3-0.3c-0.4-0.6,0.6-1.1,3.5-1.2c0.1,0,0-0.1,0-0.1
		c-0.3,0-0.6,0-0.8,0c-0.2,0-0.4,0-0.6,0c-0.3,0-0.5,0-0.6-0.1c-0.7-0.6,1-1.1,1.6-1.2c0.5-0.1,1.3-0.3,2.1-0.3
		c0.9,0,1.7,0.3,1.9,1.2C324,398.2,324.1,397.9,323.5,399.9z"/>
	<path fill="#FF358C" d="M338.7,602.2H141.9l9-30.7l-9-30.8l196.8,0l-9,30.8L338.7,602.2z M155.4,592.1h169.8l-6.1-20.6l6-20.7
		l-169.8,0l6.1,20.7L155.4,592.1z"/>
	<g>
		<g>
			<path fill="#01B0F0" d="M323.2,395.7c-0.5-1.7-2.9-1.1-4.1-0.8c-0.6,0.2-2.3,0.6-1.6,1.2c0.3,0.2,0.9,0,2,0.1c0,0,0.1,0.1,0,0.1
				c-2.9,0-3.9,0.6-3.5,1.2c0.2,0.3,2.4,0.3,3,0.3c0.2,0,0.2,0.4-0.5,0.5c-1.4,0.1-1.7,0.6-1.4,0.9c0.2,0.2,1.1,0.3,1.7,0.2
				c-1.6,3.4,0,6-0.1,7.7c-0.3,1.7-3.2,7.8-5.7,11.5c0,0-0.5,1.5-0.3-8.7c0.2-10.2-3.9-9.2-5.9-9.2c-2.9,0.1-3.9-0.9-4.3-2.1
				c-0.6-2-0.4-12.2-0.8-18.4c-0.4-6.2-6.5-9.4-9.7-9.3c-3.2,0.2-7.5,1-9.4,6.9c-1.9,5.9-2.9,17.4-3.5,23.4c0,0-0.8,0.6-2.5,1.8
				c-6.8,1.4-4.2,12-4.1,23.7c0.1,11.7,3,10.1,6.4,9.3c0,0-2.7,4.9-3.5,8.6c-0.2,1-0.4,2-0.5,2.9c-0.3,2.5-0.3,5-0.2,7.6
				c0.6,9.2,3.6,18.6,5.3,25.6c2.4,9.7-0.1,8.4,0.2,16.7c0.4,8.3,7,19.6,7.8,22c0.8,2.5,0.5,4,1,8c-0.2,2-2.1,6.5-0.3,10.6
				c1.8,4,6.3,1.2,7.2,0.1c0.9-1,1.9-6.3,1.9-9.1c2.6,0.1,5.2,3.2,6.2,4.8c1,1.5,1.2,4.7,3.1,5.7c1.8,0.9,6.9,0.6,8.7,0.5
				c0,0,1-1.3,0.7-3c-0.3-1.7-4.1-3.6-5.7-4.2c-0.1-0.7-1.5-3.8-2.6-6.7c-1-2.8-0.2-6.6,0.3-9.3c1.2-5.9,8.3-20.4,9.4-22.7
				c3.6-7.5,3.4-9.4,3-10.8c-0.2-0.7-0.9-3.8-2.3-7.5c-1.5-3.8-4.2-11-6.1-16c-1.9-5-4.7-10.4-5.5-14.7c-0.7-4.3-1.9-9.1-2.9-10.5
				c-0.3-2.2,1.8-4.9,2.8-7.4c1.8,3.4,5,3.3,5.8,2.4c3.3-3.6,7.7-15.3,8.3-17.8c0.6-2.5,1.8-4.3,1.5-5.7c0.1-2.8,0.6-4.9,0.9-6
				C324.1,397.9,324,398.2,323.2,395.7z M282.7,429.5c0,0-0.1-0.4-0.5-0.5c-0.5-0.1-1.6,0.7-2.6,1.2c-1.1,0.6-2.1,0-2.1,0
				s1-10.7,2.3-12.7c1.7,2.2,3.7,5.1,3.7,6.6C283.5,425.6,282.9,428.9,282.7,429.5z M307.6,482.6c1.7,3.5,2.4,4.5,1.2,6.7
				c-1.3,2.2-4.5,8.4-5.2,18.7c-0.1,1.3,0,10.7-4.1,13.1c-1,0.7-3.7,1.5-3.8,4c-2.2-5.8-3.8-5.3-4.2-14.8c-0.4-9.5-0.6-14.3-1.5-20
				c1.5-4.8,1.9-5.6,0.4-23.3c-0.4-4-0.5-8.6,0.8-9.4C292.9,459.8,305.9,479.1,307.6,482.6z"/>
		</g>
	</g>
	<g>
		<g>
			<path fill="#01B0F0" d="M270.4,460.5c0.6-1.9,0.9-2.6,1.3-3.9c1.1-3.8,1.6-6.1,1-9.4c-0.9-5.5-6.3-8.9-8.4-10.3
				c2.3-3.1,1.4-6.3,0.8-8.6c-0.6-2.2-2.7-10.2-3.1-11.7c0.8-0.1,2.2-3.2,2.8-5.2c2.4-2.5,1.2-11.9,1.1-15
				c-0.1-3.1,0.5-6.5,0.5-12.8c0-6.3-5.2-9.9-7.3-10.3c-2-0.6-6.3-2.3-11,2.6c-4.7,4.9-3.6,10.1-3.5,13.6c-1.2-0.5-4.9-3.1-7.6-5
				c-2.7-2-3.4-1.8-4.9-1.4c-2.7,0.7-7,4.1-8.4,5.1c-0.7-1.5-7.7-7.2-9.1-8c-3.8-2.4-8.6,0.5-9.6,1c-6.4,3.3-4.6,8.6-4.3,15.5
				c-0.3,1.1-6,12.7,0.2,18.3c0,0-2.8,13-3.2,18.4c-0.1,1.6,1,2.8,1,2.8s-1.1,1-2.5,1.7c-2.5,1.3-6.6,2.6-8.8,7.5
				c-2.1,4.6,0.1,10.9,2.6,14.7c1,4,3.9,16,5.1,21.6c1.3,5.6-1.3,9.6-1,16.6c0.3,7,3.6,14.2,4.9,19.4c0.5,1.8,0.8,4.1,0.4,5.3
				c-0.8,2.2-2.7,3-2.4,7.4c0.1,1.6,0.2,5.6,0.4,8.6c0.6,0.5,1.1-0.1,1.1-0.1s0.1-4.3,0.2-5.8c0.1-1.4,0.7-2,1.8-1.8
				c0.5,0.2,1.4,1,1.4,1s1.4,0.8,3.3,3.4c1.8,2.6,1.4,3.9,4.8,4.1c3.4,0.2,6.9,0,6.9-1.5c0,0,0.5,0,2.6-0.1c2.1-0.2,2.1-2.8,1.5-3.8
				c-0.7-1.1-2.8-3.2-5.9-5.5c-1-1.5-3-5.8-1.2-11.9c1.9-6.1,13.1-23.6,15.5-27.7c2.5-4.1-1.5-9.1-5-15.7
				c-3.5-6.6-10.1-17.5-10.1-19.5c-0.1-2.6,0.3-6,0.7-7.2c0.2-0.6,0.8-1.6,1.6-2.8c1.9,0.7,3.4,1.1,4.1,1.3c1.6,0.3,2.9,0.9,4,1.2
				c0.8,0.8,2,1.5,2.8,1.9c0,0.3,0.1,0.4,0.3,0.5c1.8,0.6,2.8-0.9,3.5-1.1c0.7-0.3,2.4,0.6,5,2.2c0.3,0.2,1.5-0.2,0-1.2
				c-1.8-1.2-3.3-2.2-3.7-2.5c-0.3-0.3-0.1-0.5,0.3-0.4c0.5,0.1,4.1,0.6,4.8,0.5c0.7-0.1,1-0.8-0.1-0.9c-1.1-0.1-4.7-0.9-5.2-1.2
				c-0.5-0.3-0.6-0.4-1.2-0.7c-1.6-0.8-4.9-0.9-6-0.7c-1-0.2-3.5-1.2-6.2-2.5c3-4.3,6.6-9.2,7.3-10.4c3.9-1.6,4.5-3.4,5.3-5.2
				c0.1,0.1,0.5,0.4,0.6,0.4c0,0,0,0.1,0.3,0.9c0.3,0.8,1.6,3.6,5.2,5.1c2.1,0.9,1.8,5.1,3,7.6c1.2,2.6,4.5,5,4.9,6.9
				c0,0-7.6,9.4-13.5,17.2c-5.9,7.8-5.8,9.1-5.2,12.7c0.6,3.6,5.1,4.6,9.2,6.8c4.1,2.2,15.6,8.3,19.3,10.6
				c0.9,2.7-0.1,19.8-0.5,24.4c-1,11-5.9,12.8-7.5,15.4c0,0,0.1-0.5-2.3,1.2c-2.4,1.7-2.5,2.8-1.9,4.2c0.7,1.4,4.8,1.6,6.9,1.5
				c2.1-0.1,4.3-1,4.8-2.2c0.6-1.2,2.6-4.7,3.7-6.1c0.5,0.4,0.3,3.5,0.3,6.4c0.2,0.2,0.7,0.3,1.3,0c-0.1-1.2,0.4-4.8,1.4-8.1
				c1-3.3-0.1-6.1-0.7-6.4c-0.2-0.2-0.3-1.6-0.2-4.9c0.2-3.3,4-10.3,5.1-16.1c1-5.8,0.1-11.2-0.4-12.8c0.3-0.3,2.5,1.2,4.3,2.6
				c0.3-0.1,0.7-0.3,0.9-0.8c-0.5-0.3-5.1-4.9-6.2-5.9c-0.4-0.9,0.3-4.6,0.6-6.4C265.5,477.5,268.1,468.1,270.4,460.5z M214.6,481
				c2.9,2.8,3.9,5.2,4.1,5.9c-1.8,2.6-5.1,7.2-7.7,18.9c-2.6,11.7-5.7,12.6-5.7,12.6c-1-11.1-1.5-23.8,0.2-29.2
				c1.6-5.4,2.3-7.8,1.2-17.1C210.3,476.1,211.7,478.2,214.6,481z M238,405.4c-1.3,1-1.9,3-2.2,5c-0.4,2.5-2.6,3.2-3.1,5.7
				c-0.3,1.6-0.3,1.6-0.3,2c0.1-1.1-0.8-2.7-1.7-3.8c-0.9-1.3-2.4-3.7-2.9-5.2c1.5-0.6,11.5-5.1,13.5-6.2
				C241.2,403.7,239.8,403.9,238,405.4z M234.1,398.9c-2.1,0.5-6.5,0.7-7.9,1.5c-0.2-3-1.5-5.6-1.8-6c-0.2-0.4,0-3.3-0.4-5
				c0.8-0.4,1.3-0.8,1.3-0.8s0.1,3.1,1.5,3.5c0.9,0.1,2.2,0,2.7-0.2c0.5-0.2,3.4-5.8,5.3-5.2c2.5,2.6,6.1,6.1,7.1,8.9
				C239.2,396.8,236.2,398.3,234.1,398.9z M253.6,483.8c-1.5-2.4-7.5-7.9-12-10c1.8-1.4,10.7-9.9,12.2-11.3
				C253,466.8,253.7,477.9,253.6,483.8z"/>
		</g>
	</g>
	<g>
		<path fill="#FF358C" d="M181.5,426.3c0.9-1.5,5.2-8.5,7.6-13c2.3-4.5,1.9-10.1,0.4-12c1-0.5,0.7-3.9,0.1-5.2
			c0.2-0.1,0.9-1.7,0.2-3.1c0-1.8-2.1-3.6-3-4.4c-0.8-0.9,0,0-1.4-7.1c-1.5-7.1-6.5-9.6-9.4-9.7c-5.5-3.1-9.8,6.1-11.1,9
			c-1.3,2.9-3.3,4.1-3.1,7.2c-1.3,4.2,0.2,5.1,2.3,7.8c-0.6,3.5,1.6,2.9,2.5,4c-2.8,2-2.1,6-2.5,7.2c-0.4,1.2-1.4,1.7-2.7,2.7
			c-1.7,1.5-2.7,3-3.1,4.9c-0.1-0.1-2.9-5.2-3.6-6.3c-0.6-1.1-1.7-3.1-2-5.3c-0.3-2.2-1-4.3-2.5-4.5c-0.6-0.1-1.1-0.8-1.5-1.2
			c-0.4-0.4-2.6-4.2-3.1-5.3c-0.4-1-1.2-0.9-1.1-0.2c0.1,0.7,1.9,5,2.1,5.4c0.2,0.4,0,1-0.4,0.8c-0.4-0.2-2.7-2.5-4.3-3.4
			c-1.6-1-1.5,0.1-1.2,0.3c2.3,2,4.8,4.5,4.8,5.2c0,0.7-0.3,1.1-0.1,3c0.2,1.8,2.6,2.9,3.8,4.8c1.2,1.9,2.8,6.8,4.2,10.7
			c2.6,7.3,5.6,9.4,6,10.1c0.5,0.6,1.6,0.4,2.7,0c0.8,3,0.5,0.7-1.4,8.3c-1.9,7.6-1.7,12.4-1.5,14.4c0,0,0.4,11.8-1.3,25.5
			c-1.1,8.7-0.9,11,0.3,13.5c1.1,2.3,4,9.9,6.1,19.9c2.2,10.1,2.5,12.6,1.2,16.4c-0.2,0.8-3.5,4.5-4.3,5.9c-0.5,0.1-3.7,1.4-5,2.1
			c-1.3,0.7-1.3,2.3-0.2,2.6c0,0.3,0.1,1.1,0.3,1.6c0.8,1.5,3.6,2.2,5.8,2.2c2.2-0.1,6.5-0.3,7.2-1.6c0.7-1.3,1.6-3.9,2.6-5.5
			c0.5-0.9,1.6-1.6,2.5-2c0.1,1.5,0,3.6,0.1,5.6c0.2,0.1,0.4,0.2,0.8-0.1c0-1.1,0.3-3.5,0.8-5.8c0,0,0,0,0,0
			c0.6,0.4,0.3,4.1,0.5,7.4c0.2,0.1,0.4,0.2,0.8-0.1c0-1.6,0.8-6.1,1.5-9.2c0.7-3.1-1.6-5-2.2-6c-0.7-1-0.9-1.2-1-4.2
			c-0.1-2.9,1-7.6,1.6-15c0.6-7.5-1.1-13.9-1.8-19.9c-0.7-6,1.7-18.4,2.9-20.9c0.9-1.9,2.6-3.1,4.3-5.8c0.4-0.6,0.8-1.3,1-2
			c0.5-1.2,0.8-2.6,0.9-3.9c0.4-4.4-0.4-9.3-3.1-13.1c-1.4-2-2.3-5.5-2.3-7.5C179.6,430.5,180.6,427.8,181.5,426.3z"/>
	</g>
</g>
<g>
</g>
<g>
</g>
<g>
</g>
<g>
</g>
<g>
</g>
<g>
</g>
</svg>
