<?xml version="1.0" encoding="utf-8"?>
<!-- Generator: Adobe Illustrator 18.1.1, SVG Export Plug-In . SVG Version: 6.00 Build 0)  -->
<svg version="1.1" id="Layer_1" xmlns="http://www.w3.org/2000/svg" xmlns:xlink="http://www.w3.org/1999/xlink" x="0px" y="0px"
	 viewBox="0 0 483 621.9" enable-background="new 0 0 483 621.9" xml:space="preserve">
<path fill="#1253B3" stroke="#3C2415" stroke-width="2" stroke-miterlimit="10" d="M478.8,58.9c-2.2-17.4-15.6-31.6-33.2-35.5
	l-0.8-0.2C417,16.5,341.5,1,241.5,1c-71.1,0-130,8-166.9,14.7c-19.5,3.5-32.2,6.6-36.3,7.6l-0.8,0.2c-17.6,3.9-31,18.1-33.2,35.5
	C3.9,62.4,2.6,89,1.7,122c-3.3,132.9,4.7,201,12,234.8c12.4,57.5,33.5,107.6,62.7,148.8c37.5,52.9,88.1,90.8,150.3,112.8
	c4.8,1.7,9.7,2.5,14.8,2.5c4.7,0,9.3-0.7,13.8-2.2c0.3-0.1,0.6-0.2,1-0.3c62.2-21.9,112.8-59.9,150.3-112.8c1.6-2.2,3.2-4.6,5-7.2
	c18.3-27.3,33.3-58.6,44.6-93.1c5.1-15.6,9.5-31.9,13.1-48.5C490.4,259,479,60.5,478.8,58.9z"/>
<path fill="#CD1228" stroke="#3C2415" stroke-linejoin="round" stroke-miterlimit="10" d="M464.1,61.1C462.5,49.8,453.7,40.5,442,38
	l-1-0.2c-27.2-6.5-101.2-21.8-199.4-21.8c-69.8,0-127.7,7.8-164,14.4c-19.1,3.5-31.4,6.4-35.5,7.4l-1,0.2
	c-11.8,2.6-20.7,12-22.1,23.4c-0.4,3-1.7,29.3-2.5,61.5C13.3,254,21.1,320.8,28.2,353.7c11.9,55.5,32.2,103.7,60.2,143.2
	c35.7,50.3,83.9,86.5,143.1,107.4c3.2,1.1,6.6,1.7,10,1.7c3.2,0,6.4-0.5,9.4-1.5c0.2-0.1,0.4-0.1,0.7-0.2
	c59.2-20.9,107.4-57,143.1-107.3c1.5-2.1,3-4.3,4.8-6.9c17.5-26.2,31.9-56.2,42.8-89.4c4.9-15.1,9.2-30.8,12.7-46.9
	C475.2,259.4,464.5,67.7,464.1,61.1z M442.1,351c-3.4,15.6-7.5,30.9-12.3,45.6c-10.5,32-24.4,61-41.3,86.2c-1.7,2.5-3.1,4.6-4.6,6.6
	c-34.1,48.1-80.1,82.6-136.7,102.6l-0.4,0.1c-1.7,0.5-3.5,0.8-5.3,0.8c-1.9,0-3.9-0.3-5.7-1c-56.6-20-102.6-54.5-136.7-102.6
	c-27-38-46.5-84.6-58.1-138.3c-6.9-32.2-14.5-97.9-11.4-227.8c0.8-32.3,2.1-57.2,2.4-60.2c0.8-5.9,5.6-10.8,11.9-12.1l1.2-0.3
	c4-1,16.1-3.9,34.8-7.3c35.7-6.5,92.7-14.2,161.6-14.2c96.8,0,169.6,15,196.3,21.4l1.3,0.3c6.2,1.3,10.9,6,11.8,11.7
	c0.3,5.6,2.9,53.1,3.1,112.1C454.4,252.1,450.2,313.1,442.1,351z"/>
<path fill="#F7E646" stroke="#3C2415" stroke-miterlimit="10" d="M242.3,600.8c-3.4,0-6.7-0.6-9.9-1.7
	c-58.2-20.5-105.4-56-140.5-105.4C64.5,455,44.6,407.7,32.8,353.2c-7-32.3-14.6-97.9-11.4-226.7c0.8-31.6,2.1-57.4,2.4-60.4
	C25.2,55,34,45.7,45.6,43.2l1-0.2c4-1,16.1-3.9,34.8-7.3c35.6-6.4,92.4-14.1,161-14.1c96.4,0,169.1,15,195.8,21.4l1,0.2
	c11.5,2.5,20.2,11.6,21.7,22.7c0.4,6.5,10.9,194.6-9,287.3c-3.4,15.8-7.6,31.2-12.4,46c-10.7,32.5-24.8,62.1-42.1,87.7
	c-1.7,2.5-3.2,4.7-4.7,6.8c-35.1,49.4-82.3,84.9-140.5,105.4c-0.2,0.1-0.4,0.1-0.6,0.2C248.6,600.4,245.5,600.8,242.3,600.8z"/>
<path fill="#1253B3" d="M83.3,48.1l342.3,344.8c-7,20.9-35.3,80.8-39.3,84.8C370,461.6,35.8,126.5,35.8,126.5s1.8-47.7,2.1-55
	c0.3-7.3-0.6-13.7,19.5-17.3C77.4,50.5,83.3,48.1,83.3,48.1z"/>
<g>
	<path fill="#1253B3" stroke="#3C2415" stroke-miterlimit="10" d="M320.8,534.3c-0.9-0.8,1.6-2.1-1-6.8c-2.6-4.7-11.2-8.7-13.2-10.2
		c-2-1.6-4.3-5.4-4.3-7.2c-2.6,4.9-14.3,5.5-22,5.2c7.4-0.7,7.4-6.5,7.2-8.6c6.2,1.8,23.3-2.3,21.4-16.7c-2-14.4-15.1-19.9-20-21.3
		c-4.9-1.4-9-3.2-12.7-6.2c1.8,2.3,6.8,8.2,7.5,10.7c-3.4-2.1-14.4-8.4-20.2-10.5c0,0,1.7,5.7,8.8,10.7c-3.6-0.6-19.8-9.5-22-13
		c-0.2,1.5,0.2,4.7,2.7,9.1c-4.9-1.8-10.5-9.8-10.8-13.5c-0.8,1.6-2,4.3-1.8,9.8c-5.3-2.4-7.8-10.4-7.8-12.9
		c-1.2,1.6-7.1,10.3,1.6,20.9c8.7,10.6,28.3,9.9,40.7,10.5c12.4,0.6,18.3,8.3,19.3,12.8c1,4.5-3,6.1-6.2,6.3
		c-0.2-3.1-2.4-4.6-5.1-5.8c2.8,0.1,4.6-0.8,5.7-2.1c-1,0.3-2.1-0.5-9.3-1.8c0.3-0.4,2.8-1.1,4.8-1.2c-0.7-0.4-8.1-1.4-12.1-1.4
		c0.7-0.3,1.4-0.9,2.7-2.2c-2.5,0.6-8.9,0.7-13.3,0.5c0.4-0.2,1.3-0.8,2.1-1.5c-2,0.2-7.4-0.3-11.6-0.6c0.6-0.3,1.3-0.8,2.3-1.5
		c-2.2,0-4.8-0.6-10.4-1c0.9-0.1,1.6-0.6,3.5-1.2c-3.6-0.3-5.5-1.2-10.6-2c0.7-0.1,1.4-0.8,2.6-1.4c-3-0.2-6.7-1.6-10.8-2.9
		c0.8,0,1.7-0.4,3.8-1.1c-1.9-0.3-6-1.5-10.5-2.8c0.7-0.1,1.2-0.2,4.2-0.9c-2.4,0.4-3.4-0.5-10.5-2.2c1.4,0.2,4-0.4,6.9-1.5
		c-3.6-0.4-8.7-2.6-11.8-4.4c3.4-0.3,7,0.1,9.9,0.3c-0.1-1.5-5.2-5.4-10.6-7.4c2.9-0.2,8.7-3.1,11.8-4.4c-2.8-0.3-6.6-2.7-10-5.2
		c2.6-0.9,4.4-3,8.9-8.5c-1.5,0.4-2.5,0.3-8.5,1.4c3.1-1.8,6.7-8.7,9.2-14.2c-1.6,1.8-3.2,2.5-9.9,7.5c2.8-2.1,5.3-9.2,6.4-14.2
		c-2.1,6.2-5.2,6.9-11.4,10.3c-6.2,3.4-11,12.2-11.6,16.7c-4.3-1.7-12.8-0.9-15.1,0c0.1-2.1-4.9-8.3-7.6-11
		c-2.4-2.4-8.4-6.4-10.4-7.5c-2.1-1.1-6.6-4.3-8.6-9.2c-0.7,4.3,2,13,10.1,19c-1.3-0.1-6-1.6-12.1-6.9c0.6,1.2,1.5,4.2,12.1,11.5
		c-1.8-0.2-4.6-1.7-9.9-3.5c1.6,1.3,5,4.6,11.7,7.9c0,0-5.5-0.9-13.4,0.9c1.6,1.6,9.7,3.7,16,4.5c-2.1,1.4-7.9,2.5-13.7,0.7
		c1.7,1.5,7.2,4.1,14.9,3.3c-1.6,0.9-10.6,3.5-15.9,3.4c0.7,0.9,12.1,1.7,17.3,1.6c-0.9,1.5-7.6,5.5-14.9,5.4c0,0,3.6,2.6,16.9,0.3
		c1.7-0.3,3.1-0.4,4.4-0.3c-3.6,4.1-3.7,7.9-4.3,12.4c0.5-1.1,2.3-2.4,5.3-3.8c-2.1,2-2.7,9-1.8,11.8c0.1-0.8,0.8-2.2,2.5-3.4
		c0.5,4,3,7.2,5.1,9.7c0,0-9.6-2-13.3-2.9c-3.7-0.9-4.5-0.6-7.6-0.1c-3.1,0.5-9.5,0.6-13.3-0.4c-3.7-1-5.2,1.5-2.8,4.4
		c2.4,2.9,7.7,0.9,7.7,0.9s-0.4,0.7-1.4,2.1c1.2,0,4-0.9,7-1.5c0,0-0.4,0.4-0.8,1.4c1.8,0.3,7.5-1.6,9.7-2.9
		c2,1.1,12.6,3.5,15.8,4.1c3.2,0.6,3.9,1.1,6.6,2c-0.1-0.6,0.2-1.2-0.2-3.3c1.2,0.4,7.5,1.2,12.1,2.1c0,0,0.4,1.7,0.7,4.9
		c-3.4,0-20.5-1.7-22.6-1.9c-2.1-0.2-2.5,0.4-5.8,2.4c-3.3,2-5.2,2.9-8,6.3c-2.9,3.5-5.9,1.4-7.7,3.4c-1.7,2,2,3.9,5,4
		c3,0.1,6.2-1.8,6.6-3.3c0,0,1.2,0.3,2.1,1.1c0,0,0.6-0.9,0.6-3.2c0,0,1.4,0.2,2.2,0.8c0.7-1,2-4.8,2.5-6.1
		c2.5-0.5,16.1,1.3,23.6,2.1c0.7,0.9,3.5,1.7,6.8,3.3c-0.1-0.4-0.1-0.8-1.5-2.9c1.4,0.3,5.3,2.7,6.9,3.5c-0.6-1.1-1.2-4.5-1.6-6.4
		c0,0,1.5,1.4,2.2,2.1c0.1-0.5,0.2-2.3-0.8-5.2c0.6,1.3,4.3,2.3,7.4,3.7c0,0-0.4-0.4-1.3-2.2c1.1,1.4,4.3,2.6,7,3.4
		c-0.5-0.4-1.1-1.3-2-3c1.4,1.3,5.1,2.7,8.5,3.6c-0.4-0.3-1-0.8-1.9-2c1,0.7,3.8,1.8,6.2,2.2c-0.2-0.3-0.4-0.7-1.5-2.3
		c0.7,0.7,4.9,1.7,7.7,2.2c-0.6-0.4-2-1.6-2.4-2.7c3.2,0.8,7.2,0,11.8-1.1c0.5,10.9,5.8,11.1,8.3,11.5c1,1.5,6.8,5,11.4,6.5
		c-7,2.6-20.1,4.2-28.7,1.7c-8.6-2.4-6.7,3.3-3.9,5.4c2.7,2.1,10,2.3,13.7,1.7c3.7-0.7,27.4-5.1,30.9-5.7c-1.7-0.4-4.1-1.7-6.8-4.7
		c8.2,0.9,16.7-4,20.7-6.2c0.1,0.9,7.5,12.5,11.6,15.8c4.1,3.4,8.5,3.9,12.3,3.6C322.9,535.6,321.7,535.1,320.8,534.3z"/>
	<g>
		<path fill="#EDC624" d="M201.4,457.7c1,1.7-0.8,1.8-2.7,2.6c-1.8,0.8-2.9,2.1-4.2,1.1c-1-0.8,0-3,1.7-3.9
			C198.2,456.5,200.8,456.6,201.4,457.7z"/>
		<path fill="#1253B3" d="M200.6,458.1c0.2,0.6-0.2,1.1-0.9,1.2c-0.7,0.1-1.4-0.2-1.5-0.8c-0.2-0.6,0.2-1.1,0.9-1.2
			C199.7,457.3,200.4,457.6,200.6,458.1z"/>
	</g>
	<g>
		<path fill="#EDC624" d="M177.7,460.7c0,1.8,1.7,1.3,3.9,1.5c2.1,0.1,3.8,1,4.4-0.4c0.5-1.1-1.6-2.7-3.7-3
			C179.9,458.5,177.7,459.5,177.7,460.7z"/>
		<path fill="#1253B3" d="M182.5,460.9c0.1,0.6,0.8,0.9,1.5,0.8c0.7-0.1,1.1-0.6,1-1.2c-0.1-0.6-0.8-0.9-1.5-0.8
			C182.8,459.9,182.3,460.4,182.5,460.9z"/>
	</g>
	<path fill="#3C2415" d="M194.8,491.3c-3.7-0.6-5.4-5.4-7.1-10c-0.2-0.4-0.3-0.9-0.5-1.3c-0.3-0.8-0.6-1.8-0.8-2.8
		c-0.9-3.2-1.9-6.9-5.1-8.7c-2.2-1.2-5.1-1.5-8.9-0.9l-0.1-0.5c4-0.7,7-0.4,9.3,0.9c3.4,2,4.5,5.7,5.4,9c0.3,1,0.5,1.9,0.8,2.7
		c0.2,0.4,0.3,0.9,0.5,1.3c1.7,4.7,3.5,9.6,7.2,9.7c1.5,0,2.6-0.3,3.4-1c1.1-1.1,1.4-3,0.9-6.1c-0.1-0.6-0.2-1.2-0.3-1.9
		c-0.7-3.5-1.6-8.2,1.5-13.1c3.7-5.7,13.1-4.9,19.3-4.3l0.4,0l0,0.5l-0.4,0c-6-0.5-15.1-1.4-18.7,4.1c-3.1,4.7-2.1,9.3-1.5,12.7
		c0.1,0.7,0.3,1.3,0.4,1.9c0.5,3.3,0.1,5.3-1.1,6.5c-0.8,0.8-2.1,1.2-3.8,1.2C195.2,491.3,195,491.3,194.8,491.3z"/>
	<path fill="#3C2415" d="M189,484.7c0.6,0,2.5-1.3,4.8-1.7c2.9-0.5,6.2,0,6.4-0.1c0.4,2.7,1.4,7.7-3.1,8.4
		C192.6,492,190.4,489.4,189,484.7z"/>
</g>
<path fill="#1253B3" stroke="#3C2415" stroke-miterlimit="10" d="M234.8,410.7c-0.7-0.7,1.3-1.7-0.8-5.4c-2.1-3.7-8.9-6.9-10.6-8.2
	c-1.6-1.3-3.4-4.4-3.5-5.8c-2.1,3.9-11.4,4.4-17.6,4.2c5.9-0.6,5.9-5.2,5.7-6.9c5,1.5,18.7-1.8,17.1-13.4
	c-1.6-11.5-12.1-15.9-16-17.1c-3.9-1.2-7.2-2.5-10.1-4.9c1.4,1.9,5.4,6.5,6,8.6c-2.7-1.7-11.5-6.7-16.2-8.4c0,0,1.4,4.6,7,8.6
	c-2.8-0.4-15.8-7.6-17.6-10.4c-0.2,1.2,0.1,3.8,2.1,7.3c-4-1.5-8.4-7.9-8.6-10.8c-0.7,1.3-1.6,3.4-1.4,7.9
	c-4.3-1.9-6.3-8.3-6.2-10.3c-0.9,1.3-5.7,8.2,1.3,16.7c7,8.5,22.6,7.9,32.6,8.4c9.9,0.5,14.6,6.6,15.4,10.3c0.8,3.6-2.4,4.8-5,5.1
	c-0.2-2.5-1.9-3.6-4.1-4.6c2.3,0.1,3.7-0.7,4.5-1.7c-0.8,0.3-1.7-0.4-7.4-1.5c0.2-0.4,2.2-0.9,3.9-1c-0.6-0.3-6.5-1.1-9.7-1.1
	c0.6-0.2,1.1-0.8,2.2-1.8c-2,0.5-7.1,0.5-10.6,0.4c0.3-0.2,1-0.6,1.6-1.2c-1.6,0.1-5.9-0.2-9.3-0.4c0.5-0.2,1-0.6,1.8-1.2
	c-1.7,0-3.8-0.4-8.3-0.8c0.7-0.1,1.3-0.5,2.8-1c-2.9-0.2-4.4-1-8.5-1.6c0.6-0.1,1.1-0.6,2.1-1.2c-2.4-0.1-5.3-1.3-8.7-2.3
	c0.6,0,1.3-0.3,3-0.8c-1.5-0.2-4.8-1.2-8.4-2.2c0.6-0.1,0.9-0.2,3.3-0.8c-1.9,0.3-2.7-0.4-8.4-1.8c1.1,0.2,3.2-0.3,5.5-1.2
	c-2.9-0.3-7-2.1-9.5-3.5c2.7-0.2,5.6,0,7.9,0.3c-0.1-1.2-4.2-4.3-8.5-5.9c2.3-0.1,6.9-2.5,9.5-3.5c-2.2-0.3-5.3-2.1-8-4.2
	c2.1-0.7,3.5-2.4,7.1-6.8c-1.2,0.3-2,0.3-6.8,1.1c2.5-1.5,5.4-6.9,7.4-11.3c-1.3,1.4-2.6,2-7.9,6c2.3-1.7,4.3-7.4,5.1-11.4
	c-1.7,4.9-4.2,5.5-9.1,8.2c-5,2.7-8.8,9.7-9.3,13.4c-3.5-1.3-10.2-0.7-12.1,0c0.1-1.7-3.9-6.6-6.1-8.8c-1.9-1.9-6.7-5.1-8.3-6
	c-1.7-0.9-5.2-3.4-6.9-7.3c-0.5,3.4,1.6,10.4,8,15.2c-1-0.1-4.8-1.3-9.7-5.5c0.5,1,1.2,3.3,9.6,9.2c-1.4-0.1-3.7-1.4-7.9-2.8
	c1.3,1,4,3.7,9.3,6.3c0,0-4.4-0.7-10.7,0.8c1.3,1.3,7.8,3,12.8,3.6c-1.7,1.1-6.3,2-11,0.6c1.3,1.2,5.7,3.3,11.9,2.7
	c-1.2,0.7-8.5,2.8-12.7,2.7c0.5,0.7,9.6,1.3,13.8,1.3c-0.8,1.2-6.1,4.4-11.9,4.3c0,0,2.9,2.1,13.5,0.2c1.3-0.2,2.5-0.3,3.5-0.3
	c-2.8,3.3-2.9,6.4-3.4,9.9c0.4-0.9,1.8-1.9,4.3-3.1c-1.7,1.6-2.2,7.2-1.5,9.4c0.1-0.6,0.7-1.8,2-2.7c0.4,3.2,2.4,5.8,4.1,7.8
	c0,0-7.7-1.6-10.7-2.3s-3.6-0.5-6.1-0.1c-2.5,0.4-7.6,0.5-10.6-0.4c-3-0.8-4.2,1.2-2.3,3.5c1.9,2.3,6.2,0.7,6.2,0.7
	s-0.3,0.6-1.1,1.6c0.9,0,3.2-0.7,5.6-1.2c0,0-0.3,0.3-0.6,1.1c1.4,0.2,6-1.3,7.7-2.3c1.6,0.9,10,2.8,12.6,3.3
	c2.6,0.5,3.1,0.9,5.3,1.6c-0.1-0.5,0.2-1-0.2-2.6c0.9,0.3,6,1,9.7,1.7c0,0,0.3,1.4,0.6,3.9c-2.7,0-16.4-1.4-18.1-1.5
	c-1.7-0.2-2,0.3-4.6,1.9c-2.6,1.6-4.1,2.3-6.4,5.1c-2.3,2.8-4.8,1.1-6.1,2.7c-1.4,1.6,1.6,3.1,4,3.2c2.4,0.1,5-1.4,5.3-2.6
	c0,0,1,0.2,1.7,0.9c0,0,0.5-0.7,0.5-2.5c0,0,1.1,0.2,1.8,0.6c0.6-0.8,1.6-3.8,2-4.9c2-0.4,12.8,1,18.9,1.7c0.5,0.7,2.8,1.3,5.4,2.6
	c-0.1-0.4-0.1-0.6-1.2-2.3c1.2,0.2,4.2,2.2,5.5,2.8c-0.5-0.8-0.9-3.6-1.2-5.1c0,0,1.2,1.1,1.8,1.7c0.1-0.4,0.1-1.9-0.6-4.2
	c0.5,1.1,3.4,1.8,6,3c0,0-0.3-0.3-1.1-1.7c0.9,1.1,3.5,2.1,5.6,2.7c-0.4-0.4-0.9-1.1-1.6-2.4c1.1,1.1,4.1,2.2,6.8,2.9
	c-0.3-0.3-0.8-0.7-1.5-1.6c0.8,0.6,3,1.5,4.9,1.8c-0.2-0.2-0.3-0.6-1.2-1.9c0.6,0.6,3.9,1.4,6.2,1.8c-0.5-0.3-1.6-1.3-1.9-2.2
	c2.5,0.6,5.7,0,9.4-0.9c0.4,8.7,4.6,8.9,6.7,9.2c0.8,1.2,5.5,4,9.1,5.2c-5.6,2.1-16.1,3.3-23,1.4c-6.9-1.9-5.3,2.7-3.1,4.3
	c2.2,1.7,8,1.9,11,1.3c3-0.5,21.9-4,24.7-4.5c-1.3-0.3-3.2-1.4-5.4-3.7c6.5,0.7,13.3-3.2,16.5-5c0.1,0.7,6,10,9.3,12.7
	c3.3,2.7,6.8,3.1,9.8,2.9C236.4,411.7,235.5,411.3,234.8,410.7z"/>
<g>
	<path fill="#EDC624" d="M139.2,349.4c0.8,1.3-0.7,1.4-2.2,2.1c-1.5,0.7-2.3,1.7-3.3,0.9c-0.8-0.7,0-2.4,1.4-3.1
		C136.6,348.4,138.7,348.6,139.2,349.4z"/>
	<path fill="#1253B3" d="M138.5,349.8c0.1,0.4-0.2,0.9-0.7,1c-0.5,0.1-1.1-0.2-1.2-0.6c-0.1-0.4,0.2-0.9,0.7-1
		C137.8,349.1,138.4,349.3,138.5,349.8z"/>
</g>
<g>
	<path fill="#EDC624" d="M120.2,351.8c0,1.5,1.4,1.1,3.1,1.2c1.7,0.1,3.1,0.8,3.5-0.3c0.4-0.9-1.3-2.2-2.9-2.4
		C122,350.1,120.2,350.8,120.2,351.8z"/>
	<path fill="#1253B3" d="M124.1,352c0.1,0.4,0.6,0.7,1.2,0.7c0.5-0.1,0.9-0.5,0.8-1c-0.1-0.4-0.6-0.7-1.2-0.7S123.9,351.6,124.1,352
		z"/>
</g>
<path fill="#3C2415" d="M133.9,376.3c-2.9-0.5-4.3-4.3-5.7-8c-0.1-0.3-0.2-0.7-0.4-1c-0.2-0.7-0.5-1.4-0.7-2.2
	c-0.7-2.6-1.5-5.5-4.1-7c-1.7-1-4-1.2-7.1-0.7l-0.1-0.4c3.2-0.5,5.6-0.3,7.4,0.7c2.8,1.6,3.6,4.6,4.3,7.2c0.2,0.8,0.4,1.5,0.7,2.2
	c0.1,0.3,0.3,0.7,0.4,1c1.4,3.8,2.8,7.7,5.8,7.8c1.2,0,2.1-0.2,2.7-0.8c0.9-0.8,1.1-2.4,0.8-4.9c-0.1-0.5-0.2-1-0.3-1.5
	c-0.6-2.8-1.3-6.6,1.2-10.5c3-4.6,10.5-3.9,15.4-3.5l0.3,0l0,0.4l-0.3,0c-4.8-0.4-12.1-1.1-15,3.3c-2.5,3.7-1.7,7.5-1.2,10.2
	c0.1,0.6,0.2,1.1,0.3,1.5c0.4,2.6,0.1,4.3-0.9,5.2c-0.7,0.6-1.7,1-3,0.9C134.3,376.3,134.1,376.3,133.9,376.3z"/>
<path fill="#3C2415" d="M129.3,371c0.5,0,2-1.1,3.8-1.4c2.3-0.4,4.9,0,5.1-0.1c0.3,2.2,1.1,6.2-2.5,6.7
	C132.1,376.8,130.4,374.8,129.3,371z"/>
<path fill="#CD1228" stroke="#3C2415" stroke-width="1.5" stroke-linejoin="round" stroke-miterlimit="10" d="M91.3,254.6
	c1.3,1.2,6,3.5,9,3.8c-1.9,0.7-3.6,1.1-4.4,1c4.6,1.1,5.2,1.7,6.7,1.4c-1.9,0.5-2.2,0.6-2.7,0.6c2.9,0.8,5.5,1.6,6.7,1.8
	c-1.4,0.4-1.9,0.7-2.4,0.7c2.6,0.8,5,1.7,6.9,1.8c-0.8,0.4-1.2,0.9-1.7,0.9c3.3,0.5,4.5,1.1,6.8,1.3c-1.2,0.4-1.6,0.7-2.2,0.8
	c3.6,0.3,5.3,0.6,6.7,0.7c-0.7,0.5-1.1,0.8-1.5,1c2.7,0.2,6.2,0.5,7.4,0.4c-0.5,0.5-1.1,0.8-1.3,1c2.8,0.1,6.9,0.1,8.5-0.3
	c-0.9,0.8-1.3,1.2-1.7,1.4c2.5,0,7.3,0.6,7.7,0.9c-1.3,0-2.9,0.5-3.1,0.8c4.6,0.8,5.3,1.4,5.9,1.2c-0.7,0.8-1.8,1.5-3.6,1.4
	c1.8,0.8,3.2,1.7,3.3,3.7c2.1-0.2,4.6-1.1,4-4c-0.6-2.9-4.4-7.8-12.3-8.2c-8-0.4-20.5,0.1-26-6.7c-5.6-6.8-1.8-12.4-1-13.4
	c0,1.6,1.6,6.7,5,8.3c-0.2-3.6,0.6-5.3,1.1-6.3c0.1,2.3,3.7,7.4,6.9,8.6c-1.6-2.8-1.9-4.8-1.7-5.8c1.4,2.2,11.8,7.9,14.1,8.3
	c-4.5-3.2-5.6-6.9-5.6-6.9c3.7,1.3,10.7,5.4,12.9,6.7c-0.5-1.6-3.7-5.4-4.8-6.9c2.4,1.9,5,3,8.1,3.9c3.1,0.9,11.5,4.4,12.8,13.7
	c1.3,9.2-9.7,11.9-13.7,10.7c0.2,1.3,0.2,5.1-4.6,5.5c4.9,0.1,12.4-0.2,14.1-3.3c0,1.1,1.5,3.6,2.8,4.6c1.3,1,6.8,3.6,8.4,6.6
	c1.6,3,0.1,3.8,0.6,4.3c0.6,0.5,1.3,0.8,1.3,0.8c-2.4,0.2-5.2-0.1-7.9-2.3c-2.6-2.2-7.4-9.6-7.4-10.1c-2.6,1.4-8,4.5-13.2,4
	c1.7,1.9,3.3,2.8,4.3,3c-2.2,0.4-17.4,3.2-19.8,3.6c-2.4,0.4-7,0.3-8.8-1.1c-1.8-1.3-3-5,2.5-3.5c5.5,1.5,13.9,0.6,18.4-1.1
	c-2.9-1-6.6-3.2-7.3-4.1c-1.6-0.3-5-0.4-5.3-7.4c-2.9,0.7-5.5,1.2-7.5,0.7c0.3,0.7,1.2,1.5,1.5,1.7c-1.9-0.4-4.9-1.1-5-1.5
	c0.8,1.1,0.9,1.4,1,1.6c-1.5-0.3-3.3-1-4-1.4c0.6,0.8,0.9,1.1,1.2,1.3c-2.1-0.6-4.5-1.5-5.4-2.3c0.6,1.1,1,1.7,1.3,1.9
	c-1.7-0.5-3.7-1.3-4.5-2.2c0.6,1.2,0.9,1.4,0.9,1.4c-2-0.9-4.4-1.5-4.8-2.4c0.6,1.9,0.6,3,0.5,3.4c-0.5-0.5-1.4-1.3-1.4-1.3
	c0.2,1.2,0.6,3.4,1,4.1c-1-0.5-3.5-2-4.4-2.2c0.9,1.4,0.9,1.6,0.9,1.9c-2.1-1-3.9-1.5-4.3-2.1c-4.9-0.5-13.5-1.7-15.1-1.3
	c-0.3,0.9-1.1,3.3-1.6,3.9c-0.5-0.4-1.4-0.5-1.4-0.5c0,1.5-0.4,2-0.4,2c-0.6-0.5-1.3-0.7-1.3-0.7c-0.2,1-2.3,2.2-4.2,2.1
	c-1.9-0.1-4.3-1.3-3.2-2.5c1.1-1.3,3.1,0,4.9-2.2c1.8-2.2,3-2.8,5.1-4.1c2.1-1.3,2.3-1.6,3.7-1.5c1.4,0.1,12.3,1.2,14.5,1.2
	c-0.2-2-0.5-3.1-0.5-3.1c-2.9-0.5-7-1.1-7.8-1.3c0.3,1.3,0.1,1.7,0.1,2.1c-1.7-0.6-2.1-0.9-4.2-1.3c-2.1-0.4-8.8-1.9-10.1-2.6
	c-1.4,0.8-5,2-6.2,1.8c0.3-0.7,0.5-0.9,0.5-0.9c-2,0.4-3.8,1-4.5,1c0.7-0.9,0.9-1.3,0.9-1.3s-3.4,1.3-5-0.5
	c-1.5-1.8-0.6-3.5,1.8-2.8c2.4,0.6,6.5,0.6,8.5,0.3c2-0.3,2.5-0.5,4.9,0.1c2.4,0.5,8.5,1.8,8.5,1.8c-1.3-1.6-2.9-3.7-3.3-6.2
	c-1.1,0.8-1.5,1.7-1.6,2.2c-0.6-1.8-0.2-6.3,1.2-7.5c-2,0.9-3.1,1.7-3.4,2.4c0.4-3.2,0.5-5.8,3.6-8.8c3.1-3,6.9-5.2,11.1-5.2
	C86.8,251,89.4,253,91.3,254.6z"/>
<path fill="#CD1228" stroke="#3C2415" stroke-width="1.5" stroke-linejoin="round" stroke-miterlimit="10" d="M72.9,244.2
	c1.5-0.6,6.9-1.1,9.6,0c0.4-2.9,3.4-8.5,7.4-10.7c4-2.2,5.9-2.6,7.3-6.6c-0.7,3.2-2.3,7.8-4.1,9.1c4.3-3.2,5.3-3.6,6.4-4.8
	c-1.6,3.5-3.9,7.9-5.9,9.1c3.8-0.7,4.5-0.7,5.4-0.9c-2.9,3.6-4,4.9-5.7,5.5c2.2,1.6,4.6,3.1,6.4,3.3c-2,0.9-5.7,2.7-7.6,2.8
	c3.4,1.3,6.7,3.8,6.8,4.8c-3.9-0.3-10-1-12.4,2.7c-2.4,3.7-1.1,7.2-0.7,9.5c0.5,3.1-0.2,4.8-2.9,4.7c-2.7,0-3.9-3.8-5.1-7.2
	c-1.2-3.3-1.5-9.6-9.9-8.2c-8.5,1.5-10.8-0.2-10.8-0.2c4.7,0.1,9-2.5,9.6-3.4c-3.3,0.1-10.6-0.4-11.1-1c3.4,0.1,9.2-1.6,10.2-2.2
	c-4.9,0.5-8.5-1.2-9.5-2.1c3.8,1.2,7.4,0.4,8.8-0.4c-4-0.5-9.2-1.9-10.2-2.9c5-1.2,8.6-0.6,8.6-0.6c-4.3-2.1-6.5-4.3-7.5-5.1
	c3.4,1.1,5.2,2.1,6.3,2.2c-6.8-4.7-7.3-6.6-7.7-7.4c3.9,3.3,6.9,4.3,7.7,4.4c-5.2-3.9-6.9-9.4-6.4-12.2c1.3,3.1,4.2,5.1,5.5,5.9
	c1.3,0.7,5.1,3.3,6.7,4.8C69.8,238.9,73,242.8,72.9,244.2z"/>
<g>
	<path fill="#EDC624" d="M86.8,251.3c0.6,1.1-0.5,1.1-1.8,1.7c-1.2,0.5-1.9,1.4-2.7,0.7c-0.7-0.5,0-1.9,1.1-2.5
		C84.7,250.5,86.4,250.6,86.8,251.3z"/>
	<path fill="#1253B3" d="M86.2,251.6c0.1,0.4-0.1,0.7-0.6,0.8c-0.4,0.1-0.9-0.1-1-0.5c-0.1-0.4,0.1-0.7,0.6-0.8
		C85.7,251,86.1,251.2,86.2,251.6z"/>
</g>
<g>
	<path fill="#EDC624" d="M71.6,253.2c0,1.2,1.1,0.8,2.5,0.9c1.3,0.1,2.4,0.6,2.8-0.2c0.3-0.7-1-1.7-2.4-1.9
		C73,251.8,71.6,252.5,71.6,253.2z"/>
	<path fill="#1253B3" d="M74.7,253.4c0.1,0.4,0.5,0.6,1,0.5c0.4-0.1,0.7-0.4,0.6-0.8c-0.1-0.4-0.5-0.6-1-0.5
		C74.9,252.7,74.6,253,74.7,253.4z"/>
</g>
<path fill="#3C2415" d="M82.5,272.8c-2.3-0.4-3.5-3.4-4.6-6.4c-0.1-0.3-0.2-0.6-0.3-0.8c-0.2-0.5-0.4-1.1-0.5-1.8
	c-0.6-2.1-1.2-4.4-3.3-5.6c-1.4-0.8-3.2-1-5.7-0.5l-0.1-0.3c2.5-0.4,4.5-0.2,6,0.6c2.2,1.2,2.9,3.7,3.4,5.8c0.2,0.6,0.3,1.2,0.5,1.8
	c0.1,0.3,0.2,0.5,0.3,0.8c1.1,3,2.3,6.2,4.6,6.2c1,0,1.7-0.2,2.2-0.6c0.7-0.7,0.9-1.9,0.6-3.9c-0.1-0.4-0.1-0.8-0.2-1.2
	c-0.4-2.2-1.1-5.3,1-8.4c2.4-3.7,8.4-3.1,12.3-2.8l0.2,0l0,0.3l-0.2,0c-3.9-0.3-9.7-0.9-12,2.6c-2,3-1.4,6-0.9,8.2
	c0.1,0.4,0.2,0.9,0.2,1.2c0.3,2.1,0.1,3.4-0.7,4.2c-0.5,0.5-1.3,0.8-2.4,0.8C82.8,272.8,82.7,272.8,82.5,272.8z"/>
<path fill="#3C2415" d="M78.8,268.6c0.4,0,1.6-0.9,3.1-1.1c1.8-0.3,3.9,0,4.1,0c0.2,1.7,0.9,4.9-2,5.4
	C81.1,273.3,79.8,271.6,78.8,268.6z"/>
<path fill="#CD1228" stroke="#3C2415" stroke-width="1.5" stroke-linejoin="round" stroke-miterlimit="10" d="M405,149.5
	c-0.4-11.9-3-32.1-15.8-50.8c-12.8-18.7-43.1-24.5-57.4-26.3c-30.1-3.8-69.5,8.8-78.7,43.2c-8.9,33.3,3.2,35.7,10.4,42.6
	c1.7,1.7,4,2.9,6.6,3.8c-4.8,1.8-8.7,5.2-11.3,7.6c-3.8,3.6-1.5,9.7,5,6.5c6.6-3.2,18.1-0.2,23.3,3.4c5.2,3.6,9.4,4.3,9.3-0.7
	c-0.1-2.7-1.9-7.2-5.2-11c1.8,0.7,3.4,1.6,4.7,2.7c7.9,6.6,5.6,14.3,1,36c-5,23.6,7.4,27.1,11.3,27.5c3.9,0.4,8.1,0,10.2-1.1
	c2.1-1.1,4.9-3.7,6.6-0.6c1.7,3.1,6.2,7.8,16.6,15.2c10.5,7.4,15.5,15.2,19.7,24.7c4.2,9.5,5,5.3,8,2.2
	c27.2-32.5,33.9-71.3,35.9-81.7C407.4,182.2,405.4,161.7,405,149.5z M369.2,188.2c-5.2-3.6-16.7-6.6-23.3-3.4
	c-6.6,3.2-8.8-2.9-5-6.5c4.2-4,12.1-10.6,21.8-8.5c9.7,2.1,15.7,12.8,15.8,17.7C378.6,192.5,374.4,191.8,369.2,188.2z"/>
<g>
	<path fill="#F7E646" stroke="#3C2415" stroke-miterlimit="10" d="M262,294.7c8.9,9,20.5,15.9,33.6,2.9l4.5-4.4l-18-18.1l-6.5,6.4
		l11.6,11.8c-4.7,4.6-11.1,2.8-18.8-5L262,294.7z"/>
	
		<rect x="282" y="304.1" transform="matrix(-0.7109 0.7033 -0.7033 -0.7109 724.6989 320.2578)" fill="#F7E646" stroke="#3C2415" stroke-miterlimit="10" width="29.1" height="9.9"/>
	<path fill="#F7E646" stroke="#3C2415" stroke-miterlimit="10" d="M246.4,313l20.5,18.6l-1.1,1l6.9,7l15.9-15.8l-26.3-26.6
		L246.4,313z M275.7,322.9l-2.8,2.7l-13.1-12l3.4-3.3L275.7,322.9z"/>
	<path fill="#F7E646" stroke="#3C2415" stroke-miterlimit="10" d="M320.7,332.8c-0.8,5.3,1.9,11.1,8.9,18.2l5.7-5.7
		c-6.3-6.2-7.8-10.3-6.8-12.9l9.5,9.6l5.8-5.7l-26.4-26.7l-5.8,5.7l9.5,9.6c-2.6,0.9-6.7-0.5-12.8-6.9l-5.7,5.7
		C309.7,330.8,315.5,333.5,320.7,332.8z"/>
	<polygon fill="#F7E646" stroke="#3C2415" stroke-miterlimit="10" points="328.5,353.7 317.5,342.5 320.9,339.1 314.4,332.5 
		311,335.9 300,324.8 293.9,330.8 322.5,359.7 	"/>
	<path fill="#F7E646" stroke="#3C2415" stroke-miterlimit="10" d="M301.3,368.9c2.9,2.9,8.3,2.3,12.1-1.4c3.7-3.7,4.5-9.2,1.6-12.1
		l-16.9-17c-2.9-2.9-8.3-2.2-12.1,1.5c-3.8,3.7-4.5,9.1-1.6,12L301.3,368.9z M292.4,346c0.5-0.5,1.3-0.7,1.7-0.3l13.3,13.4
		c0.4,0.4,0.2,1.2-0.3,1.7c-0.5,0.5-1.3,0.7-1.7,0.3l-13.3-13.4C291.7,347.3,291.9,346.5,292.4,346z"/>
	
		<rect x="342" y="376.7" transform="matrix(-0.7109 0.7033 -0.7033 -0.7109 886.8549 398.8521)" fill="#F7E646" stroke="#3C2415" stroke-miterlimit="10" width="39" height="9.9"/>
	<polygon fill="#F7E646" stroke="#3C2415" stroke-miterlimit="10" points="348.3,402.7 328.6,382.8 335.6,375.8 328.5,368.6 
		314.9,382.2 341.6,409.2 	"/>
	<path fill="#F7E646" stroke="#3C2415" stroke-miterlimit="10" d="M368.1,362l-17.5-17.7l-20.5,20.2l17.5,17.7L368.1,362z
		 M350.6,357.3l4.6,4.6l-7.5,7.4l-4.6-4.6L350.6,357.3z"/>
	<path fill="#F7E646" stroke="#3C2415" stroke-miterlimit="10" d="M383.5,366.9l-7-7.1c-0.8-0.9-1.9-1.5-3-1.8
		c-0.2-0.3-0.4-0.5-0.6-0.8l-17.5-17.7c-1.2-1.3-2.9-2-4.7-2c-0.1,0-0.1,0-0.2,0c0.1-0.4,0.1-0.8,0.1-1.3c0-1.7-0.7-3.5-1.9-4.7
		l-26.4-26.7c-1.4-1.4-3.3-2.1-5.3-1.9c0-0.2,0-0.4,0-0.6c0-1.8-0.7-3.4-1.9-4.7l-7-7.1c-0.8-0.8-1.8-1.4-2.9-1.7
		c-0.1-0.1-0.2-0.3-0.3-0.4l-18-18.1c-1.2-1.2-2.9-2-4.7-2c-1.8,0-3.4,0.7-4.7,1.9l-6.5,6.4c-1.3,1.2-2,2.9-2,4.7c0,0.1,0,0.1,0,0.2
		c-1.9-0.2-3.8,0.5-5.2,1.9l-6.5,6.4c-1.3,1.3-2,3-2,4.9l-13.6,13.5c-1.3,1.3-2,3-2,4.9c0,1.8,0.8,3.6,2.2,4.8l17.3,15.7
		c0.2,1.4,0.9,2.7,1.8,3.7l6.9,7c1.3,1.3,2.9,2,4.7,2c1.2,0,2.4-0.3,3.4-0.9c0,0.2,0,0.4-0.1,0.6c-0.4,4.1,0.9,7.8,3.7,10.6l16.9,17
		c2.4,2.4,5.8,3.8,9.4,3.8c1.8,0,3.5-0.3,5.2-0.9l-1,1c-1.3,1.2-2,2.9-2,4.7c0,1.8,0.7,3.5,1.9,4.7l26.8,27.1c1.3,1.3,2.9,2,4.7,2
		c1.8,0,3.4-0.7,4.7-1.9l6.6-6.6c0.8-0.8,1.4-1.8,1.7-2.8c0.4-0.3,0.8-0.6,1.1-0.9l27.7-27.4c1.3-1.2,2-2.9,2-4.7
		C385.4,369.8,384.8,368.1,383.5,366.9z M280.5,346.3c0.3-2.9,1.7-5.7,4-8c1.7-1.7,3.8-2.9,6-3.5l2.5-0.7l-1.1-2.4
		c-0.1-0.3-0.2-0.6-0.2-0.9c0-0.3,0.1-0.6,0.2-0.9l3.7-3.9l3.5-3.2c0.2-0.1,0.5-0.2,0.7-0.2l0.8,0l6.1-6.1c0.3-0.3,0.7-0.5,1.2-0.6
		l1.2-0.2l0.5-1.2c0.1-0.3,0.3-0.5,0.5-0.7l5.8-5.7c0.8-0.8,2.3-0.8,3.1,0l26.4,26.7c0.4,0.4,0.6,1,0.6,1.5c0,0.6-0.2,1.1-0.6,1.5
		l-5.8,5.7c-0.2,0.2-0.5,0.4-0.7,0.5l-1.2,0.5l-0.2,1.2c-0.1,0.4-0.3,0.8-0.6,1.2l-6.1,6.1l-0.1,0.8c0,0.5-0.2,0.9-0.6,1.3l-0.2,0.2
		l-3.9,3.8l0,0l-2.1,2.1c-0.6,0.6-1.7,0.8-2.5,0.4l-2.4-1.1l-0.7,2.6c-0.6,2.2-1.8,4.3-3.6,6c-2.5,2.5-5.7,3.9-8.9,3.9
		c-2.5,0-4.7-0.9-6.2-2.5l-16.9-17C281.1,351.6,280.2,349.1,280.5,346.3z M313.3,380.6l13.7-13.5c0.1-0.1,0.1-0.1,0.2-0.2l1-0.8
		l-0.2-1.3c-0.1-0.6,0.1-1.3,0.5-1.8l0.4-0.4l3.6-3.5l0,0l16.6-16.4c0.4-0.4,1-0.6,1.5-0.6c0.6,0,1.1,0.2,1.5,0.6l17.5,17.7
		c0.2,0.2,0.3,0.4,0.4,0.6l0.6,1.2l1.3,0.1c0.5,0,1,0.3,1.4,0.6l7,7.1c0.8,0.9,0.8,2.2,0,3.1l-27.7,27.4c-0.2,0.2-0.5,0.4-0.8,0.5
		l-1.3,0.5l-0.1,1.4c0,0.5-0.3,1-0.6,1.3l-6.6,6.6c-0.8,0.8-2.3,0.8-3.1,0l-26.8-27.1c-0.4-0.4-0.6-1-0.6-1.5
		C312.7,381.6,312.9,381,313.3,380.6z M276.7,290.6c3,1.6,5.5,1.8,5.5,1.8l-7.9-9.3l-0.1-0.1c-0.4-0.4-0.6-1-0.6-1.5
		c0-0.6,0.2-1.1,0.6-1.5l6.5-6.4c0.4-0.4,1-0.6,1.5-0.6c0.6,0,1.1,0.2,1.5,0.6l18,18.1c0.1,0.1,0.2,0.3,0.3,0.4l0.6,0.9l1.1,0.1
		c0.5,0.1,0.9,0.3,1.3,0.6l7,7.1c0.4,0.4,0.6,1,0.6,1.5c0,0.6-0.2,1.1-0.6,1.5l-37.6,37.2c-0.8,0.8-2.3,0.8-3.1,0l-6.9-7
		c-0.4-0.4-0.6-1-0.6-1.6v-1l-18.7-17c-0.4-0.4-0.7-1-0.7-1.6c0-0.6,0.2-1.2,0.6-1.6l15.3-15.1l-0.3-1.2c-0.2-0.7,0.1-1.5,0.6-2
		l6.5-6.4c0.4-0.4,0.9-0.6,1.5-0.6C269.2,286.2,273.7,289,276.7,290.6z"/>
	<path fill="#F7E646" stroke="#3C2415" stroke-miterlimit="10" d="M210.5,203.8l-16.9-17.1l-7.3,7.2l10.5,10.6
		c-11.7,11.6-21.7,14.4-31.2,9.6l-7.7,7.7c13,8.7,28.9,5.5,46.6-12L210.5,203.8z"/>
	<polygon fill="#F7E646" stroke="#3C2415" stroke-miterlimit="10" points="211.1,229.3 207.2,225.4 220.9,211.9 214,205 
		176.4,242.2 183.2,249.1 199.5,233 203.3,236.9 	"/>
	<path fill="#F7E646" stroke="#3C2415" stroke-miterlimit="10" d="M134.8,126.8l-8.7,8.6l-3.6-3.7l8.7-8.6l-6.6-6.6l-35.4,35.1
		l11.6,8.9l-1.5,1.4l6.4,6.5l35.4-35.1L134.8,126.8z M107.7,153.6l-4.1-3.2l12.1-11.9l3.6,3.7L107.7,153.6z"/>
	<polygon fill="#F7E646" stroke="#3C2415" stroke-miterlimit="10" points="134.1,167 141.9,159.3 138.6,156.1 152.3,142.6 
		145.5,135.7 107.8,172.9 114.7,179.8 130.9,163.7 	"/>
	<path fill="#F7E646" stroke="#3C2415" stroke-miterlimit="10" d="M187,178.5l-6.8-6.9l-4.5,4.4L163,163.2l4.5-4.4l-6.9-6.9
		l-22.2,21.9l26.4,26.7L187,178.5z M152,174l4.7-4.6l12.7,12.8l-4.7,4.6L152,174z"/>
	<polygon fill="#F7E646" stroke="#3C2415" stroke-miterlimit="10" points="147.9,197.6 153.8,191.8 147,184.8 141,190.7 
		130.2,179.7 122.9,186.9 151.5,215.8 158.8,208.6 	"/>
	<polygon fill="#F7E646" stroke="#3C2415" stroke-miterlimit="10" points="213.5,253.9 206.5,246.9 193.7,259.6 220.5,286.7 
		227.1,280.2 207.2,260.1 	"/>
	<path fill="#F7E646" stroke="#3C2415" stroke-miterlimit="10" d="M246.9,245.9l-4.2-4.2l3.2-3.2l-16.6-16.8L207.8,243l16.6,16.8
		l3.3-3.3l4.2,4.2l-8.9,8.8l6.9,6.9l27.7-27.5l-6.9-6.9L246.9,245.9z M224.5,246.9l-3.6-3.7l8.6-8.5l3.6,3.7L224.5,246.9z
		 M237.8,254.9l-4.2-4.2l3.2-3.1l4.2,4.2L237.8,254.9z"/>
	<path fill="#F7E646" stroke="#3C2415" stroke-miterlimit="10" d="M264.3,249.1c0-1.8-0.7-3.4-1.9-4.7l-6.9-6.9
		c-1-1-2.2-1.6-3.5-1.9c-0.3-0.6-0.7-1.2-1.2-1.7L234.1,217c-1.3-1.3-2.9-2-4.7-2c-1.1,0-2.2,0.3-3.2,0.8c0.9-1.1,1.3-2.5,1.3-4
		c0-1.8-0.7-3.4-1.9-4.7l-6.8-6.9c-1.2-1.2-2.7-1.9-4.3-2L198.3,182c-1.2-1.3-2.9-2-4.7-2c0,0-0.1,0-0.1,0c0.1-0.5,0.2-1,0.2-1.6
		c0-1.8-0.7-3.4-1.9-4.7l-6.8-6.9c-1.3-1.3-2.9-2-4.7-2c-1.7,0-3.2,0.6-4.4,1.7l-3.4-3.4c1.1-1.2,1.7-2.8,1.8-4.5
		c0-1.8-0.7-3.4-1.9-4.7l-6.9-6.9c-1.3-1.3-2.9-2-4.7-2c-0.8,0-1.6,0.2-2.4,0.4c0.5-0.9,0.7-1.9,0.7-3c0-1.8-0.7-3.4-1.9-4.7
		l-6.8-6.9c-1-1.1-2.4-1.7-3.9-1.9c-0.1-0.1-0.2-0.3-0.4-0.4l-6.4-6.5c-0.6-0.6-1.4-1.1-2.2-1.5c-0.3-0.8-0.8-1.6-1.4-2.2l-6.6-6.6
		c-1.2-1.3-2.9-2-4.7-2c-1.8,0-3.4,0.7-4.7,1.9l-35.4,35.1c-1.4,1.4-2.1,3.2-2,5.2c0.1,1.9,1.1,3.7,2.6,4.9l7.6,5.8
		c0.2,1.5,0.8,2.8,1.9,3.9l6.4,6.5c0,0,0.1,0.1,0.1,0.1c0.1,1.6,0.7,3.2,1.9,4.4l6.8,6.9c1.3,1.3,2.9,2,4.7,2c0.6,0,1.1-0.1,1.6-0.2
		c0,0.2,0,0.4,0,0.6c0,1.8,0.7,3.4,1.9,4.7l28.6,28.9c1.2,1.2,2.7,1.9,4.4,2c0.1,0.6,0.2,1.1,0.4,1.6l0.1,0.4
		c0.5,1.2,1.3,2.2,2.4,2.9c6.8,4.6,14.3,6.5,22.3,5.6l-4.6,4.6c-1.3,1.2-2,2.9-2,4.7c0,1.8,0.7,3.4,1.9,4.7l6.8,6.9
		c1.2,1.3,2.9,2,4.7,2c1.8,0,3.4-0.7,4.7-1.9l11.6-11.5c0.4,0.3,0.9,0.6,1.4,0.8L189,254.9c-2.6,2.6-2.6,6.8,0,9.4l26.8,27.1
		c1.2,1.3,2.9,2,4.7,2h0c1.8,0,3.4-0.7,4.7-1.9l6.6-6.6c0.8-0.8,1.4-1.7,1.7-2.8c0.4-0.3,0.8-0.5,1.1-0.9l27.7-27.5
		C263.6,252.5,264.3,250.8,264.3,249.1z M116.2,181.3c-0.8,0.8-2.3,0.8-3.1,0l-6.8-6.9c-0.4-0.4-0.6-1-0.6-1.5c0-0.1,0-0.2,0-0.4
		l0.3-1.5l-1.3-0.8c-0.1-0.1-0.3-0.2-0.4-0.3l-6.4-6.5c-0.4-0.5-0.7-1.1-0.6-1.7l0.1-1.2l-9.4-7.2c-0.5-0.4-0.8-1-0.9-1.6
		c0-0.6,0.2-1.2,0.6-1.7l35.4-35.1c0.4-0.4,1-0.6,1.5-0.6c0.6,0,1.1,0.2,1.5,0.6l6.6,6.6c0.3,0.3,0.5,0.7,0.6,1.2l0.2,1.6l1.6,0.3
		c0.5,0.1,0.9,0.3,1.2,0.6l6.4,6.5c0.2,0.2,0.3,0.3,0.4,0.5l0.7,1.3l1.5-0.1c0.6,0,1.3,0.2,1.7,0.6l6.8,6.9c0.4,0.4,0.6,1,0.6,1.5
		c0,0.6-0.2,1.1-0.6,1.5l-12.1,12l1.7,1.7c0.4,0.5,0.7,1.1,0.6,1.8l-9.5,9.6l-0.2,0c-0.1,0-0.1,0-0.2,0c-0.6,0-1.1-0.2-1.5-0.6
		l-1.7-1.7L116.2,181.3z M152.8,217.5c-0.4,0.3-0.9,0.5-1.3,0.5c-0.6,0-1.1-0.2-1.5-0.6l-28.6-28.9c-0.4-0.4-0.6-1-0.6-1.5
		c0-0.6,0.2-1.1,0.6-1.5l7.3-7.2c0.4-0.4,1-0.6,1.5-0.6c0.6,0,1.1,0.2,1.5,0.6l9.3,9.4l4.1-4l-8.2-8.3c-0.4-0.4-0.6-1-0.6-1.5
		c0-0.4,0.1-0.8,0.4-1.2l0.1-0.1l22.4-22.1c0.8-0.8,2.3-0.8,3.1,0l6.9,6.9c0.4,0.4,0.6,1,0.6,1.5c0,0.6-0.2,1.1-0.6,1.5l-2.9,2.9
		l9.6,9.7l2.9-2.9c0.8-0.8,2.3-0.8,3.1,0l6.8,6.9c0.4,0.4,0.6,1,0.6,1.5c0,0.6-0.2,1.1-0.6,1.5l-22.2,21.9c-0.8,0.8-2.3,0.8-3.1,0
		l-8.2-8.3l-4.1,4l9.3,9.4c0.7,0.7,0.8,1.8,0.3,2.7l-3,2.8L152.8,217.5z M181.5,198.6l5.6,5.6c-4.7,3.7-8.8,5.5-12.6,5.5
		c-2,0-4-0.5-6-1.5c-0.9-0.5-1.9-0.7-3-0.7c-0.1,0-0.1,0-0.2,0c0-0.2-0.1-0.3-0.1-0.5c1.6-0.1,3.1-0.8,4.3-1.9l10.2-10.1
		C179.9,196.4,180.6,197.6,181.5,198.6z M199.5,236.1l-14.7,14.5c-0.4,0.4-1,0.6-1.5,0.6c-0.6,0-1.1-0.2-1.5-0.6l-6.8-6.9
		c-0.4-0.4-0.6-1-0.6-1.5c0-0.6,0.2-1.1,0.6-1.5l16.9-16.7l-9.1,3c-9.3,3.1-18.3,1.9-26.1-3.3c-0.5-0.4-0.9-0.9-1-1.6
		c0-0.5,0.1-1,0.4-1.5l0.6-0.9l7.4-7.1c0.6-0.6,1.7-0.8,2.5-0.4c2.7,1.3,5.3,2,8,2c5.4,0,11.1-2.6,17.4-8.1l1.8-1.6l-8.9-9
		c-0.4-0.4-0.6-1-0.6-1.5c0-0.6,0.2-1.1,0.6-1.5l7.3-7.2c0.4-0.4,1-0.6,1.5-0.6c0.6,0,1.1,0.2,1.5,0.6l17.6,17.8l1.1-0.1
		c0.1,0,0.2,0,0.3,0c0.6,0,1.1,0.2,1.5,0.6l6.8,6.9c0.4,0.4,0.6,1,0.6,1.5c0,0.6-0.2,1.1-0.6,1.5l-12.1,12l2.3,2.3
		c0.4,0.4,0.6,0.9,0.6,1.5l-9.8,9.8l-0.1,0c-0.6,0-1.1-0.2-1.5-0.6L199.5,236.1z M259.2,250.6L231.4,278c-0.2,0.2-0.5,0.4-0.7,0.5
		l-1.3,0.5l-0.1,1.4c0,0.5-0.3,1-0.6,1.3l-6.6,6.6c-0.4,0.4-1,0.6-1.5,0.6h0c-0.6,0-1.1-0.2-1.5-0.6l-26.8-27.1
		c-0.4-0.4-0.6-1-0.6-1.5c0-0.6,0.2-1.1,0.6-1.5c0,0,12.9-12.8,12.9-12.8l0.8-0.8l-0.2-1.1c0-0.1,0-0.2,0-0.4c0-0.3,0.1-0.6,0.2-0.8
		l0.1-0.3l21.9-21.7c0.8-0.8,2.3-0.8,3.1,0l16.6,16.8c0.3,0.3,0.5,0.7,0.6,1.1l0.4,2l2.1-0.2c0.1,0,0.1,0,0.2,0
		c0.6,0,1.1,0.2,1.5,0.6l6.9,6.9c0.4,0.4,0.6,1,0.6,1.5C259.8,249.6,259.6,250.2,259.2,250.6z"/>
</g>
<path fill="#CD1228" stroke="#3C2415" stroke-width="1.5" stroke-linejoin="round" stroke-miterlimit="10" d="M451,65.2
	c-0.9-6.7-6.3-12.3-13.5-13.8c-0.2,0-0.6-0.1-1.1-0.3c-26.6-6.4-98.8-21.3-194.9-21.3c-67,0-122.7,7.4-158.3,13.7l0,0l-2.1,0.4
	l-7.5,1.4l0,0c-14.3,2.7-23.7,5-27.1,5.8c-0.6,0.1-1,0.2-1.1,0.3c-7.2,1.5-12.6,7.1-13.5,13.8c-0.2,1.3-1.3,21.3-2.1,50.4l0,0
	l-0.2,8.7c0,0.2,0,0.4,0,0.7l0,1.7l0,0C28.3,185.2,28,290.5,41,351c11.5,53.5,31,99.8,57.9,137.7c34,47.9,79.9,82.4,136.4,102.3
	c2,0.7,4.1,1.1,6.3,1.1c2,0,4-0.3,5.9-0.9l0.4-0.1c56.5-19.9,102.3-54.3,136.4-102.3c0.6-0.8,1.2-1.7,1.8-2.6l0,0l2.7-4.1l1.8-2.7
	l0,0c14.9-22.8,27.4-48.6,37.2-76.9l0,0l2-6.2l0.8-2.3l0,0c4.5-13.8,8.3-28.3,11.5-43C461.7,259.6,451.2,66.8,451,65.2z
	 M245.2,583.4l-0.2,0.1c-1.9,0.6-4,0.7-6,0.2c-11.2-10.1-26.3-29.1-8.5-47.6c-4.7,0.6-13.9,6.3-11.7,12.6c-7.2-2.9-8.4,3.7-8.3,7.5
	c0.2,5.6,3.8,8.4,6.9,12.3c-10.3-5-16.8-10.3-9.3-21.6c-5.5,1.1-10,7.1-9.5,12.1c-5.4-3.6-11.2-3.1-17.2-2.9
	c-29.7-18.7-55.2-42.8-76-72.2c-2.3-3.2-4.4-6.4-6.6-9.7c-2.8-14.9-3.1-38.5,22-42.5c-4.2-2.4-14.9-3.3-16.9,3.1
	c-4-6.7-9-2.1-11.2,1c-3.2,4.6-2,9-1.9,14c-5.2-10.1-7.3-18.3,5.5-22.8c-5.1-2.4-12.2-0.4-14.9,4c-2.1-5.9-6.8-9-11.4-12.3
	c-7.5-18.3-13.7-37.9-18.7-58.6c3.4-14.5,12.2-32.5,34.8-27.7c-3-3.7-12.8-8.4-16.9-3.2c-1.4-7.7-7.6-5.2-10.8-3
	c-4.6,3.1-5.1,7.7-6.8,12.4c-1.3-11.3-0.3-19.7,13.3-19.4c-3.9-4.1-11.3-4.7-15.3-1.6c0.2-7.4-4.4-12.4-8-18.1
	c-2.4-25.1-3.6-52.7-4.2-79.5c3.8-14.5,13.9-38.2,39.2-30.2c-2.7-4-11.9-9.7-16.5-4.8c-0.6-7.7-7.1-5.9-10.4-4.1
	c-4.9,2.7-5.8,7.2-8,11.7c-0.1-11.4,1.7-19.6,15.1-17.9c-3.5-4.5-10.8-5.8-15.1-3.1c0.8-6.2-2-11-4.7-16c0.1-7.4,0.2-14.5,0.3-21
	L176,274.3c7.2,13.2,15.9,37.1-7.8,48.7c4.7,1.1,15.3-1.1,15.3-7.8c5.8,5.2,9.2-0.6,10.4-4.2c1.8-5.3-0.7-9.2-2.2-14
	c7.9,8.2,12.3,15.4,1.3,23.4c5.6,0.8,11.8-3.2,13.1-8.1c4.2,5.8,10.7,7,16.8,9.2l45,45.4c7.3,12.7,17.9,38.3-6.9,50.3
	c4.7,1.1,15.3-1.1,15.3-7.8c5.8,5.2,9.2-0.6,10.4-4.2c1.8-5.3-0.7-9.2-2.2-14c7.9,8.2,12.3,15.4,1.3,23.4c5.6,0.8,11.8-3.2,13.1-8.1
	c4.5,6.1,11.5,7.2,17.9,9.7l62.8,63.3c-12.9,6.2-30.3,9.5-40.9-9.1c-0.7,4.7,2.2,15.2,8.9,14.7c-4.8,6.1,1.2,9.1,4.9,10.1
	c5.4,1.4,9.2-1.3,13.8-3.2c-7.6,8.5-14.6,13.3-23.3,2.9c-0.5,5.6,4,11.6,9,12.5c-4.9,4.1-6.1,9.7-7.5,15.3
	C316.5,549.7,283.3,569.9,245.2,583.4z M421.4,396.1c-9.1,27.3-20.8,52.2-34.7,74.3c-2.9-10.9-4.4-28.4,14.4-37.5
	c-4.7-1.1-15.3,1.1-15.3,7.8c-5.7-5.2-9.2,0.5-10.4,4.2c-1.8,5.3,0.7,9.2,2.2,14c-7.9-8.2-12.2-15.5-1.3-23.5
	c-5.6-0.9-11.8,3.1-13.1,8.1c-4.4-6.1-11.4-7.2-17.8-9.7L37.8,123.5C38.6,90,39.9,67.7,40,66.3c0.4-3.4,3.3-6.2,7.2-7
	c0.2,0,0.7-0.1,1.3-0.3c3.7-0.9,14.8-3.6,32-6.7l1.9,1.9C88.7,67.7,93,87.5,72,97.8c4.7,1.1,15.3-1.1,15.3-7.8
	c5.8,5.2,9.2-0.6,10.4-4.2c1.8-5.3-0.7-9.2-2.2-14c7.9,8.2,12.3,15.4,1.3,23.4c5.6,0.8,11.8-3.2,13.1-8.1c3.4,4.6,8.2,6.3,13.1,8
	l198.4,200.2L421.4,396.1z M429,370.8c-1.5,5.7-3.1,11.3-4.8,16.8L90.1,50.5c6.2-1.1,12.8-2.1,20-3.2c0,0,49.6-5.9,74.1-7.7
	c17.9-1.1,37.1-1.8,57.3-1.8c16,0,31.3,0.4,45.8,1.1c38.5,2.5,66.3,5.7,66.3,5.7c38.2,4.7,66.4,10.7,80.9,14.2
	c0.7,0.2,1.1,0.3,1.3,0.3c3.9,0.8,6.8,3.6,7.2,7c0.1,0.6,1.7,30.3,2.5,71.5c0.4,29.8,0.3,67.6,0.3,67.6c-0.4,31.4-1.6,64.1-4.3,93.3
	C438.3,334.1,429,370.8,429,370.8z"/>
<g>
</g>
<g>
</g>
<g>
</g>
<g>
</g>
<g>
</g>
<g>
</g>
</svg>
