<?xml version="1.0" encoding="utf-8"?>
<!-- Generator: Adobe Illustrator 18.1.1, SVG Export Plug-In . SVG Version: 6.00 Build 0)  -->
<svg version="1.1" id="Layer_1" xmlns="http://www.w3.org/2000/svg" xmlns:xlink="http://www.w3.org/1999/xlink" x="0px" y="0px"
	 viewBox="0 0 383.5 547.8" enable-background="new 0 0 383.5 547.8" xml:space="preserve">
<g enable-background="new    ">
	<polygon fill="#FF358C" points="191.7,429.8 311,429.8 311,106.5 191.6,6.5 72.3,106.5 72.3,429.8 	"/>
	<path fill="#414042" d="M316,434.8H67.3V104.2L191.6,0L316,104.2V434.8z M77.3,424.8H306V108.9L191.6,13L77.3,108.9V424.8z"/>
</g>
<g enable-background="new    ">
	<polygon fill="#FF358C" points="311,118.1 311,106.5 191.6,6.5 72.3,106.5 72.3,429.8 72.3,429.8 72.3,441.3 191.7,541.3 
		311,441.3 311,118.1 	"/>
	<path fill="#414042" d="M191.7,547.8L67.3,443.6l0-339.4L191.6,0L316,104.2l0,339.4L191.7,547.8z M77.3,439l114.4,95.8L306,439
		l0-330.1L191.6,13L77.3,108.9L77.3,439z"/>
</g>
<g enable-background="new    ">
	<polygon fill="#4EFFBB" points="89.4,431.1 89.4,116.7 191.6,31 293.9,116.7 293.9,431.1 191.7,516.8 	"/>
	<path fill="#414042" d="M191.7,523.3L84.4,433.4l0-319l107.2-89.9l107.3,89.9l0,319L191.7,523.3z M94.4,428.8l97.3,81.5l97.2-81.5
		l0-309.7l-97.3-81.5l-97.2,81.5L94.4,428.8z"/>
</g>
<g>
	<path fill="#414042" d="M231.7,329.5l14.4-14.5h-18.6c-5.8-11.2-28.4-72.8-28.4-151.2h1.7l0.5-5.6l6.5-1.9l4.8-26.4l-12.8-16.4
		l-8.2-51.7l-8.2,51.7l-12.8,16.4l4.8,26.4l6.5,1.9l0.5,5.6h1.7c0,78.4-22.7,140-28.4,151.2h-18.5l14.3,14.5
		c-11.8,42.1-56.5,82.8-71,93h68.3c0-23.6,4-61.2,42.8-61.2s42.8,37.6,42.8,61.2h68.3C288.2,412.3,243.4,371.6,231.7,329.5z
		 M191.6,289.1c11.3,0,10.6,25.9,10.6,25.9H181C181,315,180.3,289.1,191.6,289.1z"/>
</g>
<g>
	
		<path fill="#FF358C" stroke="#FF358C" stroke-width="3" stroke-linecap="round" stroke-linejoin="round" stroke-miterlimit="10" enable-background="new    " d="
		M276.9,209.2c-1.7-2.7-19.3-0.4-31.4,1.3c-6.8,0.9-17.6,2.3-27.1,4.7c-7.5,1.9-18.9,6.6-23.2,7.6c-1.6,0.4-2,0.7-3.6,0.7
		c-1.7,0-2-0.3-3.6-0.7c-4.3-1.1-15.7-5.7-23.2-7.6c-9.5-2.5-20.3-3.8-27.1-4.7c-12.1-1.7-29.6-4-31.4-1.3c-1.2,1.9-1.6,8.4,0,10.9
		c1.6,2.6,4.3,9,5.1,12.3c2,8.2,4.1,17.8,7.8,25.1c1.8,3.6,5.1,7.3,8.4,9.4c8.1,4.9,17.3,6.2,26.6,5.6c13.3-0.8,21.2-10,27.6-20.8
		c2.4-4.4,3-9.6,6.1-13.5c0.8-1.1,2-1.4,3.3-1.4c0,0,0.2,0,0.2,0c0.1,0,0.4,0,0.4,0c1.3,0,2.5,0.3,3.3,1.4c3,3.9,3.7,9.2,6.1,13.5
		c6.3,10.7,14.3,20,27.6,20.8c9.4,0.6,18.5-0.8,26.6-5.6c3.4-2,6.6-5.8,8.4-9.3c3.7-7.3,5.8-16.9,7.9-25.1c0.8-3.3,3.5-9.7,5.1-12.3
		C278.5,217.5,278.2,211.1,276.9,209.2z M176.3,254.9c-10,15.6-26.4,17.9-42.8,12c-7.6-2.7-12.3-8.7-13.9-16.4
		c-1.8-8.1-3-11.6-1.2-23c1.8-11.4,11.8-12.8,22.6-12.6c7.4,0.1,14.3,1.2,25.4,4.3C187.5,225.2,188.6,235.7,176.3,254.9z
		 M263.7,250.6c-1.7,7.6-6.4,13.6-13.9,16.4c-16.4,5.9-32.9,3.6-42.8-12.1c-12.2-19.2-11.2-29.7,10-35.7c11.1-3.1,18-4.2,25.4-4.3
		c10.8-0.2,20.8,1.2,22.6,12.6C266.8,239,265.5,242.5,263.7,250.6z"/>
	<path opacity="0.8" fill="#414042" d="M166.3,219.2c-11.1-3.1-18-4.2-25.4-4.3c-10.8-0.2-20.8,1.2-22.6,12.6
		c-1.8,11.4-0.5,15,1.2,23c1.7,7.6,6.4,13.6,13.9,16.4c16.4,5.9,32.8,3.6,42.8-12C188.6,235.7,187.5,225.2,166.3,219.2z"/>
	<path opacity="0.8" fill="#414042" d="M242.4,214.9c-7.4,0.1-14.3,1.2-25.4,4.3c-21.2,6-22.2,16.5-10,35.7
		c10,15.6,26.4,17.9,42.8,12.1c7.6-2.7,12.3-8.7,13.9-16.4c1.8-8.1,3-11.6,1.2-23C263.2,216.1,253.2,214.8,242.4,214.9z"/>
</g>
<polygon fill="#FF358C" points="208.8,101.7 208.8,80.1 191.6,89.4 174.5,80.1 174.5,101.7 191.6,92.5 "/>
<g>
	<g enable-background="new    ">
		<polygon fill="#FF358C" points="68.1,384.9 11.5,384.9 40.8,416.7 11.5,448.1 68.1,448.1 		"/>
		<path fill="#414042" d="M73.1,453.1H0l34-36.4L0.1,379.9h73V453.1z M23,443.1h40.1v-53.1H22.9l24.7,26.8L23,443.1z"/>
	</g>
	<g enable-background="new    ">
		<polygon fill="#FF358C" points="315.3,384.9 371.9,384.9 342.7,416.7 371.9,448.1 315.3,448.1 		"/>
		<path fill="#414042" d="M383.5,453.1h-73.1v-73.1h73l-33.8,36.8L383.5,453.1z M320.3,443.1h40.1l-24.6-26.3l24.7-26.8h-40.2V443.1
			z"/>
	</g>
	<g enable-background="new    ">
		<rect x="55.4" y="404" fill="#FF358C" width="272.4" height="63.1"/>
		<path fill="#414042" d="M332.9,472.1H50.4V399h282.4V472.1z M60.4,462.1h262.4V409H60.4V462.1z"/>
	</g>
	<polygon fill="#414042" points="50.8,403 73.9,387.3 73.6,403.3 	"/>
	<polygon fill="#414042" points="332.4,403.2 309.6,387.2 309.6,403.2 	"/>
	<g>
		<path fill="#414042" d="M70.6,448.4h3.7L73.2,424h8.8l0.8,24.4h3l0.9-24.4h8.8l-1.1,24.4h3.7v7.4H70.6V448.4z M71.1,415.4h26.6
			v7.4H71.1V415.4z M100.7,414h10.2v15.6h4.8v8.9h-4.8v18.6h-10.2V414z"/>
		<path fill="#414042" d="M121.2,415.4h26.2v23h-16v8.1l19.5-1.5v8.3l-29.7,2.4v-25.1h16.1v-7h-16.1V415.4z M151.9,414h10.4v43.1
			h-10.4V414z"/>
		<path fill="#414042" d="M170.3,414.7h25.9v5.1c0,15-12.8,20.8-26.1,20.8v-7.4c11.5,0,16.7-5.7,16.7-11h-16.5V414.7z M186.5,440.1
			h10.4v1.2c0,4.5,5.2,7.9,15.1,7.9v8c-11.1,0-17.1-3.4-20.4-7.2c-3.2,3.8-9.3,7.2-20.4,7.2v-8c9.9,0,15.2-3.4,15.2-7.9V440.1z
			 M200,414h10.2v9.1h4.8v8.1h-4.8V442H200V414z"/>
		<path fill="#414042" d="M219.5,415.2h10.2v31.4l17.4-1.3v8.5l-27.6,1.9V415.2z M248.2,414h10.2v15.6h5.8v8.9h-5.8v18.6h-10.2V414z
			"/>
		<path fill="#414042" d="M268.6,424.4c0-6.8,5.6-10.4,12.4-10.4c3.9,0,7.5,1.2,9.7,3.5h8.9V414h10.2v25.2h-10.2v-4.6H291
			c-2.3,2.6-5.9,3.8-10,3.8c-6.8,0-12.4-3.5-12.4-10.3V424.4z M279.1,440.4h22.2c5.1,0,9.1,3.5,9.1,8.5c0,4.8-4,8.5-9.1,8.5h-22.2
			c-5,0-9-3.7-9-8.5C270.1,443.9,274.1,440.4,279.1,440.4z M278,428.7c0,1.8,1.3,2.9,3.2,2.9c1.8,0,3.2-1.1,3.2-2.9v-5.1
			c0-1.8-1.4-3-3.2-3c-1.8,0-3.2,1.2-3.2,3V428.7z M298.2,450.4c1.3,0,1.9-0.6,1.9-1.5c0-1-0.6-1.5-1.9-1.5h-16.1
			c-1.1,0-1.8,0.5-1.8,1.5c0,0.9,0.6,1.5,1.8,1.5H298.2z M299.7,427.8v-3.5h-6.3v3.5H299.7z"/>
	</g>
</g>
<g>
</g>
<g>
</g>
<g>
</g>
<g>
</g>
<g>
</g>
<g>
</g>
</svg>
