<?xml version="1.0" encoding="utf-8"?>
<!-- Generator: Adobe Illustrator 18.1.1, SVG Export Plug-In . SVG Version: 6.00 Build 0)  -->
<svg version="1.1" id="Layer_1" xmlns="http://www.w3.org/2000/svg" xmlns:xlink="http://www.w3.org/1999/xlink" x="0px" y="0px"
	 viewBox="0 0 509.6 559.2" enable-background="new 0 0 509.6 559.2" xml:space="preserve">
<g>
	<path fill="#EF1B58" d="M315.5,45.7c-28.5-12.5-44.3-22.4-44.9-22.8L257,14l-13.6,8.8c-0.2,0.1-15.9,10.1-45,22.9
		C171,57.8,125.6,75,65.2,88.3l-0.1,0L37.2,94v198.2c0,35,5.9,65.5,18,93.3c9.7,22.1,23.2,42.3,42.5,63.6
		c36.4,39.9,74.9,57.7,119.5,78.3l0.3,0.2c7.7,3.6,15.7,7.3,23.9,11.2l15.5,7.4l15.5-7.4c8.2-3.9,16.2-7.6,23.9-11.2l0.4-0.2
		c44.6-20.6,83.1-38.4,119.5-78.3c19.4-21.3,32.9-41.5,42.5-63.6c12.1-27.8,18-58.3,18-93.3V94l-28-5.7
		C388.4,75,343,57.8,315.5,45.7z"/>
	<g>
		<path fill="none" d="M315.5,45.7c-28.5-12.5-44.3-22.4-44.9-22.8L257,14l-13.6,8.8c-0.2,0.1-15.9,10.1-45,22.9
			C171,57.8,125.6,75,65.2,88.3l-0.1,0L37.2,94v198.2c0,35,5.9,65.5,18,93.3c9.7,22.1,23.2,42.3,42.5,63.6
			c36.4,39.9,74.9,57.7,119.5,78.3l0.3,0.2c7.7,3.6,15.7,7.3,23.9,11.2l15.5,7.4l15.5-7.4c8.2-3.9,16.2-7.6,23.9-11.2l0.4-0.2
			c44.6-20.6,83.1-38.4,119.5-78.3c19.4-21.3,32.9-41.5,42.5-63.6c12.1-27.8,18-58.3,18-93.3V94l-28-5.7
			C388.4,75,343,57.8,315.5,45.7z"/>
		<path fill="#593D26" d="M451.3,76.8c-59.4-13.1-104-30-131-41.9c-27.7-12.2-42.7-21.6-43.3-22L257,0l-19.9,12.9
			c-0.2,0.1-15.4,9.7-43.4,22c-27,11.9-71.6,28.7-131,41.9l-37.3,7.6v207.8c0,36.7,6.2,68.7,19,98c10.2,23.3,24.4,44.6,44.6,66.8
			c38,41.7,77.5,60,123.4,81.1l0.3,0.1c7.7,3.6,15.6,7.2,23.8,11.1l20.5,9.8l20.5-9.8c8.1-3.9,16.1-7.6,23.8-11.1l0.3-0.2
			c45.8-21.1,85.3-39.4,123.3-81.1c20.3-22.2,34.4-43.5,44.6-66.8c12.8-29.3,19-61.4,19-98V84.4L451.3,76.8z M476.8,292.2
			c0,35-5.9,65.5-18,93.3c-9.7,22.1-23.2,42.3-42.5,63.6c-36.4,39.9-74.9,57.7-119.5,78.3l-0.4,0.2c-7.7,3.6-15.7,7.3-23.9,11.2
			l-15.5,7.4l-15.5-7.4c-8.2-3.9-16.2-7.6-23.9-11.2l-0.3-0.2c-44.6-20.6-83.2-38.4-119.5-78.3c-19.4-21.3-32.9-41.5-42.5-63.6
			c-12.1-27.8-18-58.3-18-93.3V94l27.9-5.7l0.1,0C125.6,75,171,57.8,198.4,45.7c29.1-12.8,44.8-22.8,45-22.9L257,14l13.7,8.8
			c0.7,0.4,16.4,10.3,44.9,22.8C343,57.8,388.4,75,448.8,88.3l28,5.7V292.2z"/>
	</g>
	<path fill="#FBB040" d="M245.6,528.8c-8.4-3.9-16.5-7.6-24.4-11.2c-43.7-19.9-81.4-37-116.5-74.9c-18.6-20.2-31.6-39.3-40.9-60.1
		c-11.6-26.2-17.2-55-17.2-88.2V106.9l20.4-4.1c61.2-13.3,107.3-30.5,135.1-42.6c30.2-13.1,46.2-23.2,46.3-23.3l8.4-5.3l8.4,5.4
		c0.1,0.1,16.1,10.2,46.3,23.3c27.9,12.1,73.9,29.2,135.1,42.6l20.4,4.1v187.5c0,33.2-5.6,62-17.2,88.2
		c-9.2,20.8-22.2,39.9-40.9,60.1c-35.1,37.9-72.8,55.1-116.5,74.9c-7.9,3.6-16,7.3-24.4,11.2l-11.3,5.3L245.6,528.8z"/>
	<path fill="#EF1B58" d="M443.6,117.7C321.7,91.1,257,49.7,257,49.7s-64.7,41.4-186.6,67.9l-8.2,1.7c0,0,0,134.5,0,175.1
		c0,66.8,24.5,106,54.1,138c39,42.2,81.4,57,136,82.6l4.7,2.2l4.7-2.2c54.7-25.7,97.1-40.5,136-82.6c29.6-32,54.1-71.1,54.1-138
		c0-40.6,0-175.1,0-175.1L443.6,117.7z"/>
	<g>
		<path fill="none" d="M467,277.7l21.4-159.4c-79.8-12.9-160.8-19.1-240.7-18.4c-76.4,0.6-151.6,7.6-223.5,20.8l24,158.9
			c65-10.5,132.5-16.1,200.9-16.6C321.2,262.4,394.5,267.4,467,277.7z"/>
		<path fill="#593D26" d="M498.6,103.9C415.5,90,330.9,83.4,247.5,84c-80,0.7-158.7,8.2-233.9,22.4l-7.5,1.4L34.9,298l8-1.3
			c66.6-11.2,136-17.2,206.3-17.7c74-0.6,149.2,4.7,223.4,15.7l8,1.2l25.6-190.6L498.6,103.9z M48.2,279.6l-24-158.9
			c72-13.1,147.1-20.1,223.5-20.8c80-0.7,161,5.5,240.7,18.4L467,277.7C394.5,267.4,321.2,262.4,249,263
			C180.7,263.5,113.2,269.1,48.2,279.6z"/>
	</g>
	<polygon fill="#FBB040" points="135.1,144.7 76.4,151.9 77.2,159.3 136,152 	"/>
	<path fill="#FBB040" d="M145.9,229.3c-0.1,0-0.3,0-0.4,0l-60.9,7.5c-1.9,0.2-3.1,2-2.9,3.8c0.2,1.7,1.6,3.2,3.3,3.2
		c0.1,0,0.2,0,0.4,0l60.9-7.5c1.9-0.2,3.1-2.2,2.9-4C149,230.7,147.6,229.3,145.9,229.3z"/>
	<path fill="#FBB040" d="M247.7,99.9c-76.4,0.6-151.6,7.6-223.5,20.8l24,158.9c65-10.5,132.5-16.1,200.9-16.6
		c72.1-0.6,145.5,4.4,217.9,14.7l21.4-159.4C408.6,105.5,327.6,99.3,247.7,99.9z"/>
	<g>
		<path fill="#593D26" d="M251.5,511c-14.6-13.9-31.1-27.2-47.2-40c-48.3-38.7-98.3-78.6-98.6-141.3c-0.1-26.3,8.7-49.1,25.6-66.1
			c16.3-16.4,39.2-25.7,62.8-25.7c23.8,0,45.8,9,62.8,25.7c17-16.7,39-25.7,62.8-25.7c23.6,0,46.5,9.4,62.8,25.7
			c16.9,17,25.8,39.8,25.7,66.1c-0.3,62.7-50.3,102.7-98.6,141.3c-16,12.8-32.6,26.1-47.2,40l-5.5,5.2L251.5,511z"/>
		<path fill="#EF1B58" d="M257,494.4c-13.6-12.5-28.4-24.3-42.8-35.8c-47.5-38-92.4-73.9-92.6-129c-0.1-22,7.2-40.9,21-54.8
			c13.3-13.4,32.1-21.1,51.6-21.1c22,0,42.2,9.4,56.8,26.6l6,7.1l6-7.1c14.6-17.2,34.8-26.6,56.8-26.6c19.4,0,38.2,7.7,51.5,21.1
			c13.9,13.9,21.1,32.9,21,54.9c-0.2,55.1-45.1,91-92.6,129C285.4,470.1,270.6,481.9,257,494.4z"/>
	</g>
	<path fill="#593D26" d="M262.1,468.6C127.5,468.6,28,436.3,27,436l-20.2-6.6l26.9-35L0,334.3l35.4,11.6c0.9,0.3,97,31.2,226.7,31.2
		c76.4,0,149.4-10.5,217-31.3l30.5-9.4l-25.7,57.3l21.1,36.8l-17.9,5.5C416.8,457.6,341.2,468.6,262.1,468.6z"/>
	<path fill="#FBB040" d="M483,421.5c-233.6,71.7-451.8,0-451.8,0L51,395.8l-19.8-35.4c0,0,218.3,71.7,451.8,0l-15.4,34.3L483,421.5z
		"/>
	<g>
		<path fill="#593D26" d="M77.5,386.2l10.2,1.9l0.3,22.3l8.3-20.8l9.8,1.8l-6.1,33.5l-7.4-1.4l3.3-18.2l-7.2,17.5l-5.8-1.1l-0.7-19
			L78.8,421l-7.4-1.4L77.5,386.2z"/>
		<path fill="#593D26" d="M114.6,427.1l-7.9-1.2l9.7-33l13.5,2l-0.3,34.4l-7.9-1.2l0.1-5.8l-5.7-0.8L114.6,427.1z M118,415l3.9,0.6
			l0.3-15.7L118,415z"/>
		<path fill="#593D26" d="M146.8,407c-0.1,1.2,0.5,1.9,3.3,3.3c9.1,4.5,8.8,7,8,13.3l-0.2,2c-0.7,5.8-5.8,7.2-11.6,6.6
			c-5.8-0.7-10.2-3.3-9.5-9.1l0.6-5.1l8.1,1l-0.5,3.8c-0.2,1.5,0.8,2.4,2.3,2.6c1.5,0.2,2.6-0.5,2.8-2l0.1-0.8
			c0.5-4.2,0.3-4.5-6.1-7.8c-5-2.6-5.5-6.1-5.2-8.7l0.3-2.6c0.7-5.8,5.6-7.3,11.4-6.6c5.8,0.7,10.2,3.3,9.5,9.1l-0.4,3.6l-7.9-0.9
			l0.3-2.4c0.2-1.5-0.8-2.4-2.3-2.6c-1.5-0.2-2.6,0.3-2.8,1.8L146.8,407z"/>
		<path fill="#593D26" d="M187.5,401.3l-0.6,7l-6.1-0.6l-2.4,26.9l-8.3-0.7l2.4-26.9l-6.1-0.6l0.6-7L187.5,401.3z"/>
		<path fill="#593D26" d="M193.7,401.8l20.6,1.3l-0.4,7l-12.7-0.8l-0.4,6.4l12.3,0.8l-0.4,6.6l-12.3-0.8l-0.4,7l13.1,0.8l-0.4,7
			l-21-1.3L193.7,401.8z"/>
		<path fill="#593D26" d="M233.2,437.9l0.4-11c0.1-1.6-1.5-1.9-3.3-2l-1.9-0.1l-0.4,12.9l-7.9-0.3l1.1-34l13.1,0.4
			c5,0.2,7.4,1.2,7.4,6.3l-0.2,6.4c-0.1,2.5-2.4,4.8-5.3,4.8c2.9,0.3,5.4,2.9,5.3,5.6l-0.4,11.2L233.2,437.9z M231.5,410.6l-2.7-0.1
			l-0.3,7.5l2.7,0.1c1.6,0,2.3-0.7,2.4-2.6l0.1-2.2C233.7,411.7,233.3,410.6,231.5,410.6z"/>
		<path fill="#593D26" d="M265.2,411.4c-0.1-5.8,4.6-7.9,10.4-8c5.8-0.1,10.6,1.9,10.6,7.7l0.3,19.8c0.1,5.8-4.6,7.9-10.4,8
			c-5.8,0.1-10.6-1.9-10.6-7.7L265.2,411.4z M273.3,429.9c0,1.5,1.2,2.3,2.7,2.2c1.5,0,2.6-0.8,2.6-2.3l-0.2-17.3
			c0-1.5-1.2-2.3-2.7-2.2c-1.5,0-2.6,0.8-2.6,2.3L273.3,429.9z"/>
		<path fill="#593D26" d="M293.4,403.8l20.7-0.9l0.3,7.2l-12.7,0.6l0.3,6.3l12.3-0.6l0.3,6.6l-12.3,0.6l0.6,13.9l-7.9,0.4
			L293.4,403.8z"/>
		<path fill="#593D26" d="M336.2,401.3l20.6-2l0.7,7l-12.7,1.2l0.6,6.4l12.3-1.2l0.6,6.6l-12.3,1.2l0.7,6.9l13-1.2l0.7,7l-21,2
			L336.2,401.3z"/>
		<path fill="#593D26" d="M380.9,430.7l-1.4-10.9c-0.2-1.6-1.8-1.7-3.6-1.4l-1.9,0.2l1.6,12.8l-7.9,1l-4.3-33.8l13-1.7
			c4.9-0.6,7.5,0,8.3,5l0.8,6.4c0.3,2.4-1.6,5.1-4.4,5.6c3-0.2,5.8,2,6.1,4.6l1.4,11.1L380.9,430.7z M374.8,404l-2.7,0.3l1,7.4
			l2.7-0.3c1.6-0.2,2.2-1.1,1.9-2.9l-0.3-2.2C377.1,404.8,376.6,403.8,374.8,404z"/>
		<path fill="#593D26" d="M392.1,402c-0.9-5.7,3.4-8.5,9.1-9.5c5.7-0.9,10.7,0.4,11.7,6.1l3.2,19.5c0.9,5.7-3.4,8.5-9.1,9.5
			c-5.7,0.9-10.7-0.4-11.7-6.1L392.1,402z M402.8,419c0.2,1.5,1.5,2.1,3,1.8c1.5-0.2,2.5-1.2,2.2-2.7l-2.8-17.1
			c-0.2-1.5-1.5-2.1-3-1.8c-1.5,0.2-2.5,1.2-2.2,2.7L402.8,419z"/>
		<path fill="#593D26" d="M428,398.3c0.2,1.2,1,1.7,4.1,2.1c10,1.5,10.5,3.9,11.8,10.2l0.4,2c1.1,5.7-3.3,8.7-9,9.8
			c-5.7,1.1-10.7,0-11.9-5.7l-1-5l8-1.6l0.8,3.8c0.3,1.4,1.5,2,3,1.7c1.4-0.3,2.4-1.3,2.1-2.7l-0.2-0.8c-0.8-4.2-1.1-4.3-8.2-5.6
			c-5.6-0.9-7.1-4-7.7-6.7l-0.5-2.6c-1.1-5.7,3.1-8.7,8.8-9.8c5.7-1.1,10.7,0,11.9,5.7l0.7,3.6l-7.8,1.6l-0.5-2.3
			c-0.3-1.4-1.5-2-3-1.7c-1.4,0.3-2.4,1.1-2.1,2.5L428,398.3z"/>
	</g>
	<path fill="#593D26" d="M151.9,208.4l-77.4,9.6c-13.3,1.6-22.8,13.6-21.3,26.8c1.4,12,11.6,20.9,23.6,20.9c1,0,2-0.1,3-0.2
		l77.4-9.6c13.1-1.6,22.9-13.6,21.4-26.6c-1.4-12.2-11.9-21-23.8-21C153.9,208.2,152.9,208.3,151.9,208.4z M146.3,236.4l-60.9,7.5
		c-0.1,0-0.2,0-0.4,0c-1.7,0-3.1-1.5-3.3-3.2c-0.2-1.8,1-3.6,2.9-3.8l60.9-7.5c0.1,0,0.3,0,0.4,0c1.7,0,3.1,1.4,3.3,3.1
		C149.4,234.2,148.2,236.2,146.3,236.4z"/>
	<path fill="#593D26" d="M125,183.1l-1-9.3l45.6-5.6l-6.3-55.9l-31.4,3.9l0.9,8.4l-58.7,7.2l-0.9-8.4l-31.1,3.8l6.3,55.9l45.5-5.6
		l1,9.3l-50.5,6.2l2.5,22.5l131.2-16.2l-2.5-22.5L125,183.1z M77.2,159.3l-0.8-7.3l58.7-7.3l0.8,7.3L77.2,159.3z"/>
	<g>
		<path fill="#593D26" d="M189.9,111.7l0.3,76l76.7-0.3l-0.3-76L189.9,111.7z M220.4,163.5l-0.1-27.8l16.7-0.1l0.1,27.8L220.4,163.5
			z"/>
		<polygon fill="#593D26" points="313.5,143.3 313.3,109.1 281.8,109.2 282.1,212.5 313.7,212.4 313.6,170.6 328.5,170.6 
			328.4,143.3 		"/>
		<polygon fill="#593D26" points="228.3,224.8 228.3,198.5 196.2,198.6 196.4,249.6 316.7,249.2 316.7,224.5 		"/>
	</g>
	<polygon fill="#593D26" points="396.9,248.4 399.5,221.8 361,221.2 368.6,145.2 402.5,149 405,123.5 344.1,116.7 331,247.1 	"/>
	<polygon fill="#593D26" points="424.8,262.1 430.9,201 438.6,201.9 432.5,263 459.1,265.9 473,126.5 446.5,123.6 441.4,174.7 
		433.6,173.9 438.8,122.7 413.3,119.9 399.4,259.3 	"/>
</g>
<g>
</g>
<g>
</g>
<g>
</g>
<g>
</g>
<g>
</g>
<g>
</g>
</svg>
