<?xml version="1.0" encoding="utf-8"?>
<!-- Generator: Adobe Illustrator 18.1.1, SVG Export Plug-In . SVG Version: 6.00 Build 0)  -->
<svg version="1.1" id="Layer_1" xmlns="http://www.w3.org/2000/svg" xmlns:xlink="http://www.w3.org/1999/xlink" x="0px" y="0px"
	 viewBox="0 0 479.5 677.1" enable-background="new 0 0 479.5 677.1" xml:space="preserve">
<polygon fill="#231F20" points="241.9,0 22.3,103.5 22.3,541.3 241.9,677.1 457.2,541.3 457.2,103.6 "/>
<path fill="#FFFFFF" d="M241.7,47.7L414.9,131v387.8L241.7,628.2L64.6,518.7V131.2L241.7,47.7 M241.8,28.2L47,120v408.4L241.8,649
	l190.8-120.4V120L241.8,28.2L241.8,28.2z"/>
<g>
	<path fill="#FFFFFF" d="M206.9,583.1l-7.2-12.9h1.1l6.1,10.9v-10.9h1.1v12.9H206.9z"/>
	<path fill="#FFFFFF" d="M212.2,583.1l-3.3-5.9v-1l3.3-5.9h1.7l3.3,5.9v1l-3.3,5.9H212.2z M213.3,582.1l2.8-5v-1l-2.8-5h-0.5l-2.8,5
		v1l2.8,5H213.3z"/>
	<path fill="#FFFFFF" d="M223.5,583.1l-7.2-12.9h1.1l7.2,12.9H223.5z"/>
	<path fill="#FFFFFF" d="M227.4,583.1l-3.3-5.9v-1l3.3-5.9h1.1l-3.3,5.9v1l3.3,5.9H227.4z"/>
	<path fill="#FFFFFF" d="M231.5,583.1l-3.3-5.9v-1l3.3-5.9h1.1l-3.3,5.9h4.4v1h-4.4l3.3,5.9H231.5z"/>
	<path fill="#FFFFFF" d="M241.4,583.1l-3.3-5.9v-1l3.3-5.9h1.7l3.3,5.9v1l-3.3,5.9H241.4z M242.5,582.1l2.8-5v-1l-2.8-5H242l-2.7,5
		v1l2.7,5H242.5z"/>
	<path fill="#FFFFFF" d="M252.2,583.1l-6.6-11.9v-1h3.8l0.6,1h-3.3l2.8,5h3.3l0.5,1H250l3.3,5.9H252.2z"/>
	<path fill="#FFFFFF" d="M261,583.1l-3.3-5.9v-1l3.3-5.9h1.1l-3.3,5.9h4.4v1h-4.4l3.3,5.9H261z"/>
	<path fill="#FFFFFF" d="M262.7,583.1l3.3-5.9v-1l-3.3-5.9h1.1l3.3,5.9l3.3-5.9h1.1l-3.3,5.9v1l3.3,5.9h-1.1l-3.3-5.9l-3.3,5.9
		H262.7z"/>
	<path fill="#FFFFFF" d="M274.8,583.1l-3.3-5.9v-1l3.3-5.9h1.7l3.3,5.9v1l-3.3,5.9H274.8z M275.9,582.1l2.8-5v-1l-2.8-5h-0.5l-2.8,5
		v1l2.8,5H275.9z"/>
</g>
<g>
	<g>
		<polygon fill="#FFFFFF" points="132.1,527.3 24.4,340.8 132.1,154.3 347.4,154.3 455.1,340.8 347.4,527.3 		"/>
		<path fill="#231F20" d="M347.4,154.3l107.7,186.5L347.4,527.3H132.1L24.4,340.8l107.7-186.5H347.4 M359.6,133.2h-12.2H132.1h-12.2
			l-6.1,10.6L6.1,330.3L0,340.8l6.1,10.6l107.7,186.5l6.1,10.6h12.2h215.4h12.2l6.1-10.6l107.7-186.5l6.1-10.6l-6.1-10.6
			L365.7,143.8L359.6,133.2L359.6,133.2z"/>
	</g>
	<g>
		<polygon fill="#231F20" points="153.8,508.7 240.1,359.2 326.4,508.7 		"/>
		<polygon fill="#231F20" points="326.4,173 240.1,322.5 153.8,173 		"/>
		<polygon fill="#231F20" points="433.9,340.5 342.9,498.4 251.8,340.5 342.8,183 		"/>
		<g>
			<path fill="#231F20" d="M228.4,340.5l-91.2-157.1l-85,146.1h109c5.7,0,11.1,5.5,11.1,11.1c0,5.7-5.5,11.1-11.1,11.1H52.2
				l84.7,146.1L228.4,340.5z"/>
		</g>
	</g>
</g>
<g>
	<g>
		<polygon fill="#FFFFFF" points="239.8,539.1 242.6,544.8 248.9,545.7 244.3,550.2 245.4,556.5 239.8,553.5 234.1,556.5 
			235.2,550.2 230.6,545.7 236.9,544.8 		"/>
	</g>
	<polygon fill="#FFFFFF" points="305.1,543.3 306.8,546.8 310.6,547.3 307.8,550 308.5,553.8 305.1,552 301.7,553.8 302.3,550 
		299.6,547.3 303.4,546.8 	"/>
	<polygon fill="#FFFFFF" points="264.4,543.3 266.1,546.8 270,547.3 267.2,550 267.8,553.8 264.4,552 261,553.8 261.7,550 
		258.9,547.3 262.7,546.8 	"/>
	<polygon fill="#FFFFFF" points="325.4,543.3 327.1,546.8 330.9,547.3 328.2,550 328.8,553.8 325.4,552 322,553.8 322.6,550 
		319.9,547.3 323.7,546.8 	"/>
	<polygon fill="#FFFFFF" points="194.8,543.3 196.5,546.8 200.3,547.3 197.5,550 198.2,553.8 194.8,552 191.3,553.8 192,550 
		189.2,547.3 193,546.8 	"/>
	<polygon fill="#FFFFFF" points="215.1,543.3 216.8,546.8 220.6,547.3 217.8,550 218.5,553.8 215.1,552 211.7,553.8 212.3,550 
		209.6,547.3 213.4,546.8 	"/>
	<polygon fill="#FFFFFF" points="174.4,543.3 176.1,546.8 180,547.3 177.2,550 177.8,553.8 174.4,552 171,553.8 171.7,550 
		168.9,547.3 172.7,546.8 	"/>
	<polygon fill="#FFFFFF" points="284.8,543.3 286.5,546.8 290.3,547.3 287.5,550 288.2,553.8 284.8,552 281.3,553.8 282,550 
		279.2,547.3 283,546.8 	"/>
	<polygon fill="#FFFFFF" points="154.1,543.3 155.8,546.8 159.6,547.3 156.9,550 157.5,553.8 154.1,552 150.7,553.8 151.3,550 
		148.6,547.3 152.4,546.8 	"/>
</g>
<path fill="#231F20" d="M338,39.2h-4.8H313h-4.8h-8.8v5.9c-6.4-3.9-14.3-5.9-23.2-5.9c-22.4,0-38.1,13.2-38.1,32.1v3.6
	c0,5.4,1.3,10.4,3.8,14.9v1.7v4.8v9.1v4.8v19v4.8v8.8h8.8h4.8h77.6h4.8h8.8V134v-3.7l0-8.8v-4.8V96.2v-4.8V52.8V48v-8.8H338z"/>
<path fill="#FFFFFF" d="M333.2,48H313h-4.8v4.8V54h-11.3c-5.2-3.9-12.5-6.1-20.8-6.1c-17.5,0-29.3,9.3-29.3,23.3v3.6
	c0,6.8,2.8,12.5,7.8,16.5h-4v4.8v9.1v4.8v19v4.8h4.8h77.6h4.8v-4.8v-7.7h0v-4.8V96.2v-4.8V52.8V48H333.2z"/>
<polygon fill="#231F20" points="237.9,58.8 237.1,58.8 237.1,52.8 237.1,48 237.1,39.2 228.3,39.2 223.5,39.2 203.4,39.2 
	198.5,39.2 194.8,39.2 194.8,37.5 186,37.5 181.2,37.5 161.4,37.5 156.6,37.5 147.8,37.5 147.8,43.3 144.8,43.3 140,43.3 
	131.2,43.3 131.2,52.1 131.2,56.9 131.2,71.1 131.2,74.3 130.3,74.4 130.3,82.2 130.3,86.4 130.3,100.9 130.3,106.4 130.3,116.4 
	135,115.8 135,129.2 135,134 135,142.8 143.8,142.8 148.7,142.8 223.5,142.8 228.3,142.8 237.1,142.8 237.1,134 237.1,129.2 
	237.1,124 237.1,115.2 237.1,110.4 237.1,101 237.9,101 246.7,101 246.7,92.2 246.7,87.3 246.7,72.5 246.7,67.6 246.7,58.8 "/>
<path fill="#FFFFFF" d="M233,67.6h-4.7V52.8V48h-4.8h-20.1h-4.8v4.1h-1H186v-0.9v-4.8h-4.8h-19.8h-4.8v4.8v0.9h-11.7H140v4.8v14.1
	v4.8h4.8h10.6c-1.9,3-6,4.9-12.1,5.7l-4.2,0.5v4.3v14.5v5.5l4.8-0.6v23.4v4.8h4.8h74.8h4.8v-4.8v-13.5v-0.5h0v-4.8V92.2h4.7h4.8
	v-4.8V72.5v-4.8H233z"/>
<path fill="#231F20" d="M251.8,71.2c0-12.1,11-18.4,24.4-18.4c7.7,0,14.5,2.1,19,6.1H313v-6.1h20.1v41.4H313v-6.1h-19
	c-4.5,3.4-10.8,5-17.8,5c-13.4,0-24.4-6.2-24.4-18.3V71.2z M255.6,96.2h77.6v20.5h-57.4v3h57.4v9.5h-77.6v-21.1H313v-2.8h-57.4V96.2
	z M270.1,76.5c0,3.2,2.7,5.2,6.2,5.2c3.6,0,6.3-2,6.3-5.2v-7c0-3.2-2.7-5.3-6.3-5.3c-3.6,0-6.2,2.1-6.2,5.3V76.5z M300.5,76.1H313
	v-5.2h-12.4v3.9C300.6,75.4,300.6,75.8,300.5,76.1z"/>
<path fill="#231F20" d="M198.4,100.9c-12.2-1.6-21.4-5.2-27.3-12.4c-5.9,7.2-15.2,10.9-27.3,12.4V86.4c10.2-1.3,17.7-6.1,17.7-15.4
	h-16.7V56.9h16.6v-5.8h19.8v5.8h16.4v14.1h-16.8c0,9.3,7.6,14.1,17.7,15.4V100.9z M223.5,129.2h-74.8v-25.3h20.4v11.8h54.4V129.2z
	 M203.4,52.8h20.1v19.7h9.5v14.9h-9.5v23h-20.1V52.8z"/>
<g>
</g>
<g>
</g>
<g>
</g>
<g>
</g>
<g>
</g>
<g>
</g>
</svg>
