<?xml version="1.0" encoding="utf-8"?>
<!-- Generator: Adobe Illustrator 18.1.1, SVG Export Plug-In . SVG Version: 6.00 Build 0)  -->
<svg version="1.1" id="Layer_1" xmlns="http://www.w3.org/2000/svg" xmlns:xlink="http://www.w3.org/1999/xlink" x="0px" y="0px"
	 viewBox="0 0 444.5 596.2" enable-background="new 0 0 444.5 596.2" xml:space="preserve">
<g>
	<path fill="#002E6D" d="M222.3,596.2c-4.2,0-8.4-0.5-12.5-1.6L36.8,549C15.1,543.2,0,523.6,0,501.1v-406C0,72.7,15.1,53,36.8,47.3
		L209.6,1.6C213.8,0.6,218,0,222.3,0c4.3,0,8.5,0.5,12.6,1.6l172.8,45.6c21.7,5.7,36.8,25.4,36.8,47.8v406
		c0,22.4-15.1,42.1-36.8,47.8l-172.8,45.6C230.7,595.7,226.5,596.2,222.3,596.2z"/>
	<path fill="#D1D3D4" d="M222.3,586.3c-1,0-2,0-2.9-0.1c-0.8-0.1-1.4-0.7-1.3-1.5c0.1-0.8,0.7-1.3,1.5-1.3c0.9,0.1,1.8,0.1,2.7,0.1
		l0.1,0c0.8,0,1.4,0.6,1.4,1.4C223.8,585.7,223.1,586.3,222.3,586.3L222.3,586.3C222.3,586.3,222.3,586.3,222.3,586.3z M228,585.9
		c-0.7,0-1.3-0.5-1.4-1.2c-0.1-0.8,0.4-1.5,1.2-1.6c0.9-0.1,1.8-0.3,2.7-0.5c0.8-0.2,1.5,0.3,1.7,1.1c0.2,0.8-0.3,1.5-1.1,1.7
		c-0.9,0.2-1.9,0.4-2.9,0.5C228.1,585.9,228,585.9,228,585.9z M213.9,585.4c-0.1,0-0.2,0-0.3,0c-0.5-0.1-1-0.2-1.5-0.4l-1.3-0.3
		c-0.8-0.2-1.2-1-1-1.7c0.2-0.8,1-1.2,1.7-1l1.3,0.3c0.5,0.1,0.9,0.2,1.4,0.3c0.8,0.2,1.2,0.9,1.1,1.7
		C215.1,584.9,214.5,585.4,213.9,585.4z M236.2,583.9c-0.6,0-1.2-0.4-1.4-1.1c-0.2-0.8,0.3-1.5,1-1.7l2.7-0.7c0.8-0.2,1.5,0.3,1.7,1
		c0.2,0.8-0.2,1.5-1,1.7l-2.7,0.7C236.4,583.9,236.3,583.9,236.2,583.9z M205.7,583.2c-0.1,0-0.2,0-0.4,0l-2.7-0.7
		c-0.8-0.2-1.2-1-1-1.7c0.2-0.8,1-1.2,1.7-1l2.7,0.7c0.8,0.2,1.2,1,1,1.7C206.9,582.8,206.3,583.2,205.7,583.2z M244.4,581.8
		c-0.6,0-1.2-0.4-1.4-1.1c-0.2-0.8,0.2-1.5,1-1.7l2.7-0.7c0.7-0.2,1.5,0.2,1.7,1c0.2,0.8-0.3,1.5-1,1.7l-2.7,0.7
		C244.6,581.8,244.5,581.8,244.4,581.8z M197.5,581.1c-0.1,0-0.2,0-0.4,0l-2.7-0.7c-0.8-0.2-1.2-1-1-1.7c0.2-0.8,1-1.2,1.7-1
		l2.7,0.7c0.8,0.2,1.2,1,1,1.7C198.7,580.7,198.1,581.1,197.5,581.1z M252.5,579.6c-0.6,0-1.2-0.4-1.4-1.1c-0.2-0.8,0.2-1.5,1-1.7
		l2.7-0.7c0.8-0.2,1.5,0.2,1.7,1c0.2,0.8-0.3,1.5-1,1.7l-2.7,0.7C252.8,579.6,252.7,579.6,252.5,579.6z M189.3,578.9
		c-0.1,0-0.2,0-0.4,0l-2.7-0.7c-0.8-0.2-1.2-1-1-1.7c0.2-0.8,1-1.2,1.7-1l2.7,0.7c0.8,0.2,1.2,1,1,1.7
		C190.5,578.5,190,578.9,189.3,578.9z M260.7,577.5c-0.6,0-1.2-0.4-1.4-1.1c-0.2-0.8,0.3-1.5,1-1.7l2.7-0.7c0.8-0.2,1.5,0.2,1.7,1
		c0.2,0.8-0.3,1.5-1,1.7l-2.7,0.7C261,577.4,260.8,577.5,260.7,577.5z M181.2,576.8c-0.1,0-0.2,0-0.4,0l-2.7-0.7
		c-0.8-0.2-1.2-1-1-1.7c0.2-0.8,1-1.2,1.7-1l2.7,0.7c0.8,0.2,1.2,1,1,1.7C182.4,576.4,181.8,576.8,181.2,576.8z M268.9,575.3
		c-0.6,0-1.2-0.4-1.4-1.1c-0.2-0.8,0.3-1.5,1-1.7l2.7-0.7c0.8-0.2,1.5,0.2,1.7,1c0.2,0.8-0.3,1.5-1,1.7l-2.7,0.7
		C269.1,575.3,269,575.3,268.9,575.3z M173,574.6c-0.1,0-0.2,0-0.4,0l-2.7-0.7c-0.8-0.2-1.2-1-1-1.7c0.2-0.8,1-1.2,1.7-1l2.7,0.7
		c0.8,0.2,1.2,1,1,1.7C174.2,574.2,173.6,574.6,173,574.6z M277.1,573.1c-0.6,0-1.2-0.4-1.4-1.1c-0.2-0.8,0.3-1.5,1-1.7l2.7-0.7
		c0.8-0.2,1.5,0.3,1.7,1c0.2,0.8-0.2,1.5-1,1.7l-2.7,0.7C277.3,573.1,277.2,573.1,277.1,573.1z M164.8,572.5c-0.1,0-0.2,0-0.4,0
		l-2.7-0.7c-0.8-0.2-1.2-1-1-1.7c0.2-0.8,1-1.2,1.7-1l2.7,0.7c0.8,0.2,1.2,1,1,1.7C166,572,165.5,572.5,164.8,572.5z M285.2,571
		c-0.6,0-1.2-0.4-1.4-1.1c-0.2-0.8,0.3-1.5,1-1.7l2.7-0.7c0.8-0.2,1.5,0.2,1.7,1c0.2,0.8-0.2,1.5-1,1.7l-2.7,0.7
		C285.5,571,285.3,571,285.2,571z M156.7,570.3c-0.1,0-0.2,0-0.4,0l-2.7-0.7c-0.8-0.2-1.2-1-1-1.7c0.2-0.8,1-1.2,1.7-1l2.7,0.7
		c0.8,0.2,1.2,1,1,1.7C157.9,569.9,157.3,570.3,156.7,570.3z M293.4,568.8c-0.6,0-1.2-0.4-1.4-1.1c-0.2-0.8,0.2-1.5,1-1.7l2.7-0.7
		c0.7-0.2,1.5,0.2,1.7,1c0.2,0.8-0.2,1.5-1,1.7l-2.7,0.7C293.6,568.8,293.5,568.8,293.4,568.8z M148.5,568.1c-0.1,0-0.2,0-0.4,0
		l-2.7-0.7c-0.8-0.2-1.2-1-1-1.7c0.2-0.8,1-1.2,1.7-1l2.7,0.7c0.8,0.2,1.2,1,1,1.7C149.7,567.7,149.1,568.1,148.5,568.1z
		 M301.6,566.7c-0.6,0-1.2-0.4-1.4-1.1c-0.2-0.8,0.3-1.5,1-1.7l2.7-0.7c0.8-0.2,1.5,0.2,1.7,1c0.2,0.8-0.2,1.5-1,1.7l-2.7,0.7
		C301.8,566.7,301.7,566.7,301.6,566.7z M140.3,566c-0.1,0-0.2,0-0.4,0l-2.7-0.7c-0.8-0.2-1.2-1-1-1.7c0.2-0.8,1-1.2,1.7-1l2.7,0.7
		c0.8,0.2,1.2,1,1,1.7C141.5,565.6,140.9,566,140.3,566z M309.7,564.5c-0.6,0-1.2-0.4-1.4-1.1c-0.2-0.8,0.2-1.5,1-1.7l2.7-0.7
		c0.8-0.2,1.5,0.3,1.7,1c0.2,0.8-0.3,1.5-1,1.7l-2.7,0.7C310,564.5,309.9,564.5,309.7,564.5z M132.1,563.8c-0.1,0-0.2,0-0.4,0
		l-2.7-0.7c-0.8-0.2-1.2-1-1-1.7c0.2-0.8,1-1.2,1.7-1l2.7,0.7c0.8,0.2,1.2,1,1,1.7C133.3,563.4,132.8,563.8,132.1,563.8z
		 M317.9,562.4c-0.6,0-1.2-0.4-1.4-1.1c-0.2-0.8,0.3-1.5,1-1.7l2.7-0.7c0.8-0.2,1.5,0.2,1.7,1c0.2,0.8-0.3,1.5-1,1.7l-2.7,0.7
		C318.2,562.3,318,562.4,317.9,562.4z M124,561.7c-0.1,0-0.2,0-0.4,0l-2.7-0.7c-0.8-0.2-1.2-1-1-1.7c0.2-0.8,1-1.2,1.7-1l2.7,0.7
		c0.8,0.2,1.2,1,1,1.7C125.2,561.2,124.6,561.7,124,561.7z M326.1,560.2c-0.6,0-1.2-0.4-1.4-1.1c-0.2-0.8,0.3-1.5,1-1.7l2.7-0.7
		c0.8-0.2,1.5,0.2,1.7,1c0.2,0.8-0.3,1.5-1,1.7l-2.7,0.7C326.3,560.2,326.2,560.2,326.1,560.2z M115.8,559.5c-0.1,0-0.2,0-0.4,0
		l-2.7-0.7c-0.8-0.2-1.2-1-1-1.7c0.2-0.8,1-1.2,1.7-1l2.7,0.7c0.8,0.2,1.2,1,1,1.7C117,559.1,116.4,559.5,115.8,559.5z M334.3,558
		c-0.6,0-1.2-0.4-1.4-1.1c-0.2-0.8,0.3-1.5,1-1.7l2.7-0.7c0.8-0.2,1.5,0.2,1.7,1c0.2,0.8-0.2,1.5-1,1.7l-2.7,0.7
		C334.5,558,334.4,558,334.3,558z M107.6,557.4c-0.1,0-0.2,0-0.4,0l-2.7-0.7c-0.8-0.2-1.2-1-1-1.7c0.2-0.8,1-1.2,1.7-1l2.7,0.7
		c0.8,0.2,1.2,1,1,1.7C108.8,556.9,108.2,557.4,107.6,557.4z M342.4,555.9c-0.6,0-1.2-0.4-1.4-1.1c-0.2-0.8,0.2-1.5,1-1.7l2.7-0.7
		c0.8-0.2,1.5,0.2,1.7,1c0.2,0.8-0.3,1.5-1,1.7l-2.7,0.7C342.7,555.9,342.6,555.9,342.4,555.9z M99.4,555.2c-0.1,0-0.2,0-0.4,0
		l-2.7-0.7c-0.8-0.2-1.2-1-1-1.7c0.2-0.8,1-1.2,1.7-1l2.7,0.7c0.8,0.2,1.2,1,1,1.7C100.6,554.8,100.1,555.2,99.4,555.2z
		 M350.6,553.7c-0.6,0-1.2-0.4-1.4-1.1c-0.2-0.8,0.3-1.5,1-1.7l2.7-0.7c0.8-0.2,1.5,0.2,1.7,1c0.2,0.8-0.3,1.5-1,1.7l-2.7,0.7
		C350.8,553.7,350.7,553.7,350.6,553.7z M91.3,553c-0.1,0-0.2,0-0.4,0l-2.7-0.7c-0.8-0.2-1.2-1-1-1.7c0.2-0.8,1-1.2,1.7-1l2.7,0.7
		c0.8,0.2,1.2,1,1,1.7C92.5,552.6,91.9,553,91.3,553z M358.8,551.6c-0.6,0-1.2-0.4-1.4-1.1c-0.2-0.8,0.2-1.5,1-1.7l2.7-0.7
		c0.8-0.2,1.5,0.2,1.7,1c0.2,0.8-0.3,1.5-1,1.7l-2.7,0.7C359,551.6,358.9,551.6,358.8,551.6z M83.1,550.9c-0.1,0-0.2,0-0.4,0
		l-2.7-0.7c-0.8-0.2-1.2-1-1-1.7c0.2-0.8,1-1.2,1.7-1l2.7,0.7c0.8,0.2,1.2,1,1,1.7C84.3,550.5,83.7,550.9,83.1,550.9z M367,549.4
		c-0.6,0-1.2-0.4-1.4-1.1c-0.2-0.8,0.2-1.5,1-1.7l2.7-0.7c0.8-0.2,1.5,0.2,1.7,1c0.2,0.8-0.3,1.5-1,1.7l-2.7,0.7
		C367.2,549.4,367.1,549.4,367,549.4z M74.9,548.7c-0.1,0-0.2,0-0.4,0l-2.7-0.7c-0.8-0.2-1.2-1-1-1.7c0.2-0.8,1-1.2,1.7-1l2.7,0.7
		c0.8,0.2,1.2,1,1,1.7C76.1,548.3,75.6,548.7,74.9,548.7z M375.1,547.3c-0.6,0-1.2-0.4-1.4-1.1c-0.2-0.8,0.3-1.5,1-1.7l2.7-0.7
		c0.8-0.2,1.5,0.2,1.7,1c0.2,0.8-0.2,1.5-1,1.7l-2.7,0.7C375.4,547.2,375.2,547.3,375.1,547.3z M66.8,546.6c-0.1,0-0.2,0-0.4,0
		l-2.7-0.7c-0.8-0.2-1.2-1-1-1.7c0.2-0.8,1-1.2,1.7-1l2.7,0.7c0.8,0.2,1.2,1,1,1.7C68,546.1,67.4,546.6,66.8,546.6z M383.3,545.1
		c-0.6,0-1.2-0.4-1.4-1.1c-0.2-0.8,0.3-1.5,1-1.7l2.7-0.7c0.8-0.2,1.5,0.2,1.7,1c0.2,0.8-0.3,1.5-1,1.7l-2.7,0.7
		C383.5,545.1,383.4,545.1,383.3,545.1z M58.6,544.4c-0.1,0-0.2,0-0.4,0l-2.7-0.7c-0.8-0.2-1.2-1-1-1.7s1-1.2,1.7-1l2.7,0.7
		c0.8,0.2,1.2,1,1,1.7C59.8,544,59.2,544.4,58.6,544.4z M391.5,542.9c-0.6,0-1.2-0.4-1.4-1.1c-0.2-0.8,0.2-1.5,1-1.7l2.7-0.7
		c0.8-0.2,1.5,0.2,1.7,1c0.2,0.8-0.2,1.5-1,1.7l-2.7,0.7C391.7,542.9,391.6,542.9,391.5,542.9z M50.4,542.2c-0.1,0-0.2,0-0.4,0
		l-2.7-0.7c-0.8-0.2-1.2-1-1-1.7s1-1.2,1.7-1l2.7,0.7c0.8,0.2,1.2,1,1,1.7C51.6,541.8,51,542.2,50.4,542.2z M399.6,540.8
		c-0.6,0-1.2-0.4-1.4-1.1c-0.2-0.8,0.2-1.5,1-1.7l2.7-0.7c0.8-0.2,1.5,0.2,1.7,1c0.2,0.8-0.2,1.5-1,1.7l-2.7,0.7
		C399.9,540.8,399.8,540.8,399.6,540.8z M42.2,540.1c-0.1,0-0.2,0-0.4,0l-2.2-0.6c-0.2-0.1-0.4-0.1-0.6-0.2c-0.8-0.2-1.2-1-1-1.7
		s1-1.2,1.7-1c0.2,0.1,0.4,0.1,0.5,0.1l2.2,0.6c0.8,0.2,1.2,1,1,1.7C43.4,539.7,42.9,540.1,42.2,540.1z M407.8,538.5
		c-0.6,0-1.1-0.4-1.3-0.9c-0.3-0.7,0.1-1.5,0.8-1.8c0.8-0.3,1.7-0.7,2.5-1c0.7-0.3,1.5,0,1.9,0.7c0.3,0.7,0,1.5-0.7,1.9
		c-0.9,0.4-1.8,0.8-2.7,1.1C408.1,538.5,407.9,538.5,407.8,538.5z M34.2,537.5c-0.2,0-0.4,0-0.6-0.1c-0.9-0.4-1.8-0.8-2.6-1.3
		c-0.7-0.4-0.9-1.2-0.6-1.9c0.4-0.7,1.2-0.9,1.9-0.6c0.8,0.4,1.6,0.8,2.4,1.2c0.7,0.3,1,1.2,0.7,1.9
		C35.3,537.1,34.8,537.5,34.2,537.5z M415.3,534.8c-0.5,0-0.9-0.2-1.2-0.7c-0.4-0.7-0.2-1.5,0.4-1.9c0.8-0.5,1.5-1,2.2-1.5
		c0.6-0.5,1.5-0.3,2,0.3c0.5,0.6,0.3,1.5-0.3,2c-0.8,0.6-1.6,1.1-2.4,1.7C415.9,534.7,415.6,534.8,415.3,534.8z M26.9,533.2
		c-0.3,0-0.6-0.1-0.8-0.3c-0.8-0.6-1.5-1.2-2.3-1.8c-0.6-0.5-0.7-1.4-0.2-2c0.5-0.6,1.4-0.7,2-0.2c0.7,0.6,1.4,1.2,2.1,1.7
		c0.6,0.5,0.8,1.3,0.3,2C27.8,533,27.4,533.2,26.9,533.2z M421.9,529.5c-0.4,0-0.7-0.1-1-0.4c-0.5-0.6-0.5-1.4,0-2
		c0.6-0.6,1.3-1.3,1.9-2c0.5-0.6,1.4-0.7,2-0.1c0.6,0.5,0.6,1.4,0.1,2c-0.6,0.7-1.3,1.4-2,2.1C422.6,529.4,422.3,529.5,421.9,529.5z
		 M20.7,527.5c-0.4,0-0.8-0.2-1.1-0.5c-0.6-0.7-1.3-1.5-1.8-2.3c-0.5-0.6-0.3-1.5,0.3-2c0.6-0.5,1.5-0.3,2,0.3
		c0.5,0.7,1.1,1.4,1.7,2.1c0.5,0.6,0.5,1.5-0.1,2C21.4,527.4,21.1,527.5,20.7,527.5z M427.2,522.9c-0.3,0-0.5-0.1-0.8-0.2
		c-0.7-0.4-0.8-1.3-0.4-2c0.5-0.8,1-1.5,1.4-2.3c0.4-0.7,1.2-0.9,1.9-0.6c0.7,0.4,0.9,1.2,0.6,1.9c-0.5,0.8-1,1.7-1.5,2.5
		C428.2,522.7,427.7,522.9,427.2,522.9z M15.9,520.6c-0.5,0-1-0.3-1.2-0.7c-0.5-0.8-0.9-1.7-1.3-2.6c-0.3-0.7,0-1.5,0.7-1.9
		c0.7-0.3,1.5,0,1.9,0.7c0.4,0.8,0.8,1.6,1.2,2.4c0.4,0.7,0.1,1.5-0.6,1.9C16.4,520.5,16.1,520.6,15.9,520.6z M431,515.4
		c-0.2,0-0.3,0-0.5-0.1c-0.7-0.3-1.1-1.1-0.8-1.8c0.3-0.8,0.6-1.7,0.9-2.6c0.2-0.8,1-1.2,1.7-1c0.8,0.2,1.2,1,1,1.8
		c-0.3,0.9-0.6,1.9-0.9,2.8C432.1,515,431.6,515.4,431,515.4z M12.7,512.8c-0.6,0-1.2-0.4-1.4-1c-0.3-0.9-0.5-1.9-0.7-2.8
		c-0.2-0.8,0.3-1.5,1.1-1.7c0.8-0.2,1.5,0.3,1.7,1.1c0.2,0.9,0.4,1.8,0.7,2.6c0.2,0.7-0.2,1.5-1,1.8
		C12.9,512.8,12.8,512.8,12.7,512.8z M433.1,507.2c-0.1,0-0.1,0-0.2,0c-0.8-0.1-1.3-0.8-1.2-1.6c0.1-0.9,0.2-1.8,0.3-2.7
		c0-0.8,0.7-1.4,1.5-1.3c0.8,0,1.4,0.7,1.3,1.5c-0.1,1-0.2,1.9-0.3,2.9C434.4,506.7,433.8,507.2,433.1,507.2z M11.2,504.5
		c-0.7,0-1.4-0.6-1.4-1.3c-0.1-0.9-0.1-1.8-0.1-2.7v-0.2c0-0.8,0.6-1.4,1.4-1.4c0.8,0,1.4,0.6,1.4,1.4v0.2c0,0.8,0,1.7,0.1,2.5
		C12.6,503.8,12.1,504.4,11.2,504.5C11.2,504.5,11.2,504.5,11.2,504.5z M433.4,498.8c-0.8,0-1.4-0.6-1.4-1.4v-2.8
		c0-0.8,0.6-1.4,1.4-1.4s1.4,0.6,1.4,1.4v2.8C434.8,498.1,434.2,498.8,433.4,498.8z M11.1,496c-0.8,0-1.4-0.6-1.4-1.4v-2.8
		c0-0.8,0.6-1.4,1.4-1.4c0.8,0,1.4,0.6,1.4,1.4v2.8C12.5,495.4,11.9,496,11.1,496z M433.4,490.3c-0.8,0-1.4-0.6-1.4-1.4v-2.8
		c0-0.8,0.6-1.4,1.4-1.4s1.4,0.6,1.4,1.4v2.8C434.8,489.7,434.2,490.3,433.4,490.3z M11.1,487.6c-0.8,0-1.4-0.6-1.4-1.4v-2.8
		c0-0.8,0.6-1.4,1.4-1.4c0.8,0,1.4,0.6,1.4,1.4v2.8C12.5,487,11.9,487.6,11.1,487.6z M433.4,481.9c-0.8,0-1.4-0.6-1.4-1.4v-2.8
		c0-0.8,0.6-1.4,1.4-1.4s1.4,0.6,1.4,1.4v2.8C434.8,481.2,434.2,481.9,433.4,481.9z M11.1,479.1c-0.8,0-1.4-0.6-1.4-1.4v-2.8
		c0-0.8,0.6-1.4,1.4-1.4c0.8,0,1.4,0.6,1.4,1.4v2.8C12.5,478.5,11.9,479.1,11.1,479.1z M433.4,473.4c-0.8,0-1.4-0.6-1.4-1.4v-2.8
		c0-0.8,0.6-1.4,1.4-1.4s1.4,0.6,1.4,1.4v2.8C434.8,472.8,434.2,473.4,433.4,473.4z M11.1,470.7c-0.8,0-1.4-0.6-1.4-1.4v-2.8
		c0-0.8,0.6-1.4,1.4-1.4c0.8,0,1.4,0.6,1.4,1.4v2.8C12.5,470.1,11.9,470.7,11.1,470.7z M433.4,465c-0.8,0-1.4-0.6-1.4-1.4v-2.8
		c0-0.8,0.6-1.4,1.4-1.4s1.4,0.6,1.4,1.4v2.8C434.8,464.3,434.2,465,433.4,465z M11.1,462.2c-0.8,0-1.4-0.6-1.4-1.4V458
		c0-0.8,0.6-1.4,1.4-1.4c0.8,0,1.4,0.6,1.4,1.4v2.8C12.5,461.6,11.9,462.2,11.1,462.2z M433.4,456.5c-0.8,0-1.4-0.6-1.4-1.4v-2.8
		c0-0.8,0.6-1.4,1.4-1.4s1.4,0.6,1.4,1.4v2.8C434.8,455.9,434.2,456.5,433.4,456.5z M11.1,453.8c-0.8,0-1.4-0.6-1.4-1.4v-2.8
		c0-0.8,0.6-1.4,1.4-1.4c0.8,0,1.4,0.6,1.4,1.4v2.8C12.5,453.2,11.9,453.8,11.1,453.8z M433.4,448.1c-0.8,0-1.4-0.6-1.4-1.4v-2.8
		c0-0.8,0.6-1.4,1.4-1.4s1.4,0.6,1.4,1.4v2.8C434.8,447.4,434.2,448.1,433.4,448.1z M11.1,445.3c-0.8,0-1.4-0.6-1.4-1.4v-2.8
		c0-0.8,0.6-1.4,1.4-1.4c0.8,0,1.4,0.6,1.4,1.4v2.8C12.5,444.7,11.9,445.3,11.1,445.3z M433.4,439.6c-0.8,0-1.4-0.6-1.4-1.4v-2.8
		c0-0.8,0.6-1.4,1.4-1.4s1.4,0.6,1.4,1.4v2.8C434.8,439,434.2,439.6,433.4,439.6z M11.1,436.9c-0.8,0-1.4-0.6-1.4-1.4v-2.8
		c0-0.8,0.6-1.4,1.4-1.4c0.8,0,1.4,0.6,1.4,1.4v2.8C12.5,436.2,11.9,436.9,11.1,436.9z M433.4,431.2c-0.8,0-1.4-0.6-1.4-1.4v-2.8
		c0-0.8,0.6-1.4,1.4-1.4s1.4,0.6,1.4,1.4v2.8C434.8,430.5,434.2,431.2,433.4,431.2z M11.1,428.4c-0.8,0-1.4-0.6-1.4-1.4v-2.8
		c0-0.8,0.6-1.4,1.4-1.4c0.8,0,1.4,0.6,1.4,1.4v2.8C12.5,427.8,11.9,428.4,11.1,428.4z M433.4,422.7c-0.8,0-1.4-0.6-1.4-1.4v-2.8
		c0-0.8,0.6-1.4,1.4-1.4s1.4,0.6,1.4,1.4v2.8C434.8,422.1,434.2,422.7,433.4,422.7z M11.1,420c-0.8,0-1.4-0.6-1.4-1.4v-2.8
		c0-0.8,0.6-1.4,1.4-1.4c0.8,0,1.4,0.6,1.4,1.4v2.8C12.5,419.3,11.9,420,11.1,420z M433.4,414.3c-0.8,0-1.4-0.6-1.4-1.4V410
		c0-0.8,0.6-1.4,1.4-1.4s1.4,0.6,1.4,1.4v2.8C434.8,413.6,434.2,414.3,433.4,414.3z M11.1,411.5c-0.8,0-1.4-0.6-1.4-1.4v-2.8
		c0-0.8,0.6-1.4,1.4-1.4c0.8,0,1.4,0.6,1.4,1.4v2.8C12.5,410.9,11.9,411.5,11.1,411.5z M433.4,405.8c-0.8,0-1.4-0.6-1.4-1.4v-2.8
		c0-0.8,0.6-1.4,1.4-1.4s1.4,0.6,1.4,1.4v2.8C434.8,405.2,434.2,405.8,433.4,405.8z M11.1,403.1c-0.8,0-1.4-0.6-1.4-1.4v-2.8
		c0-0.8,0.6-1.4,1.4-1.4c0.8,0,1.4,0.6,1.4,1.4v2.8C12.5,402.4,11.9,403.1,11.1,403.1z M433.4,397.4c-0.8,0-1.4-0.6-1.4-1.4v-2.8
		c0-0.8,0.6-1.4,1.4-1.4s1.4,0.6,1.4,1.4v2.8C434.8,396.7,434.2,397.4,433.4,397.4z M11.1,394.6c-0.8,0-1.4-0.6-1.4-1.4v-2.8
		c0-0.8,0.6-1.4,1.4-1.4c0.8,0,1.4,0.6,1.4,1.4v2.8C12.5,394,11.9,394.6,11.1,394.6z M433.4,388.9c-0.8,0-1.4-0.6-1.4-1.4v-2.8
		c0-0.8,0.6-1.4,1.4-1.4s1.4,0.6,1.4,1.4v2.8C434.8,388.3,434.2,388.9,433.4,388.9z M11.1,386.2c-0.8,0-1.4-0.6-1.4-1.4v-2.8
		c0-0.8,0.6-1.4,1.4-1.4c0.8,0,1.4,0.6,1.4,1.4v2.8C12.5,385.5,11.9,386.2,11.1,386.2z M433.4,380.4c-0.8,0-1.4-0.6-1.4-1.4v-2.8
		c0-0.8,0.6-1.4,1.4-1.4s1.4,0.6,1.4,1.4v2.8C434.8,379.8,434.2,380.4,433.4,380.4z M11.1,377.7c-0.8,0-1.4-0.6-1.4-1.4v-2.8
		c0-0.8,0.6-1.4,1.4-1.4c0.8,0,1.4,0.6,1.4,1.4v2.8C12.5,377.1,11.9,377.7,11.1,377.7z M433.4,372c-0.8,0-1.4-0.6-1.4-1.4v-2.8
		c0-0.8,0.6-1.4,1.4-1.4s1.4,0.6,1.4,1.4v2.8C434.8,371.4,434.2,372,433.4,372z M11.1,369.3c-0.8,0-1.4-0.6-1.4-1.4V365
		c0-0.8,0.6-1.4,1.4-1.4c0.8,0,1.4,0.6,1.4,1.4v2.8C12.5,368.6,11.9,369.3,11.1,369.3z M433.4,363.5c-0.8,0-1.4-0.6-1.4-1.4v-2.8
		c0-0.8,0.6-1.4,1.4-1.4s1.4,0.6,1.4,1.4v2.8C434.8,362.9,434.2,363.5,433.4,363.5z M11.1,360.8c-0.8,0-1.4-0.6-1.4-1.4v-2.8
		c0-0.8,0.6-1.4,1.4-1.4c0.8,0,1.4,0.6,1.4,1.4v2.8C12.5,360.2,11.9,360.8,11.1,360.8z M433.4,355.1c-0.8,0-1.4-0.6-1.4-1.4v-2.8
		c0-0.8,0.6-1.4,1.4-1.4s1.4,0.6,1.4,1.4v2.8C434.8,354.5,434.2,355.1,433.4,355.1z M11.1,352.4c-0.8,0-1.4-0.6-1.4-1.4v-2.8
		c0-0.8,0.6-1.4,1.4-1.4c0.8,0,1.4,0.6,1.4,1.4v2.8C12.5,351.7,11.9,352.4,11.1,352.4z M433.4,346.6c-0.8,0-1.4-0.6-1.4-1.4v-2.8
		c0-0.8,0.6-1.4,1.4-1.4s1.4,0.6,1.4,1.4v2.8C434.8,346,434.2,346.6,433.4,346.6z M11.1,343.9c-0.8,0-1.4-0.6-1.4-1.4v-2.8
		c0-0.8,0.6-1.4,1.4-1.4c0.8,0,1.4,0.6,1.4,1.4v2.8C12.5,343.3,11.9,343.9,11.1,343.9z M433.4,338.2c-0.8,0-1.4-0.6-1.4-1.4V334
		c0-0.8,0.6-1.4,1.4-1.4s1.4,0.6,1.4,1.4v2.8C434.8,337.6,434.2,338.2,433.4,338.2z M11.1,335.4c-0.8,0-1.4-0.6-1.4-1.4v-2.8
		c0-0.8,0.6-1.4,1.4-1.4c0.8,0,1.4,0.6,1.4,1.4v2.8C12.5,334.8,11.9,335.4,11.1,335.4z M433.4,329.7c-0.8,0-1.4-0.6-1.4-1.4v-2.8
		c0-0.8,0.6-1.4,1.4-1.4s1.4,0.6,1.4,1.4v2.8C434.8,329.1,434.2,329.7,433.4,329.7z M11.1,327c-0.8,0-1.4-0.6-1.4-1.4v-2.8
		c0-0.8,0.6-1.4,1.4-1.4c0.8,0,1.4,0.6,1.4,1.4v2.8C12.5,326.4,11.9,327,11.1,327z M433.4,321.3c-0.8,0-1.4-0.6-1.4-1.4V317
		c0-0.8,0.6-1.4,1.4-1.4s1.4,0.6,1.4,1.4v2.8C434.8,320.6,434.2,321.3,433.4,321.3z M11.1,318.5c-0.8,0-1.4-0.6-1.4-1.4v-2.8
		c0-0.8,0.6-1.4,1.4-1.4c0.8,0,1.4,0.6,1.4,1.4v2.8C12.5,317.9,11.9,318.5,11.1,318.5z M433.4,312.8c-0.8,0-1.4-0.6-1.4-1.4v-2.8
		c0-0.8,0.6-1.4,1.4-1.4s1.4,0.6,1.4,1.4v2.8C434.8,312.2,434.2,312.8,433.4,312.8z M11.1,310.1c-0.8,0-1.4-0.6-1.4-1.4v-2.8
		c0-0.8,0.6-1.4,1.4-1.4c0.8,0,1.4,0.6,1.4,1.4v2.8C12.5,309.5,11.9,310.1,11.1,310.1z M433.4,304.4c-0.8,0-1.4-0.6-1.4-1.4v-2.8
		c0-0.8,0.6-1.4,1.4-1.4s1.4,0.6,1.4,1.4v2.8C434.8,303.7,434.2,304.4,433.4,304.4z M11.1,301.6c-0.8,0-1.4-0.6-1.4-1.4v-2.8
		c0-0.8,0.6-1.4,1.4-1.4c0.8,0,1.4,0.6,1.4,1.4v2.8C12.5,301,11.9,301.6,11.1,301.6z M433.4,295.9c-0.8,0-1.4-0.6-1.4-1.4v-2.8
		c0-0.8,0.6-1.4,1.4-1.4s1.4,0.6,1.4,1.4v2.8C434.8,295.3,434.2,295.9,433.4,295.9z M11.1,293.2c-0.8,0-1.4-0.6-1.4-1.4V289
		c0-0.8,0.6-1.4,1.4-1.4c0.8,0,1.4,0.6,1.4,1.4v2.8C12.5,292.6,11.9,293.2,11.1,293.2z M433.4,287.5c-0.8,0-1.4-0.6-1.4-1.4v-2.8
		c0-0.8,0.6-1.4,1.4-1.4s1.4,0.6,1.4,1.4v2.8C434.8,286.8,434.2,287.5,433.4,287.5z M11.1,284.7c-0.8,0-1.4-0.6-1.4-1.4v-2.8
		c0-0.8,0.6-1.4,1.4-1.4c0.8,0,1.4,0.6,1.4,1.4v2.8C12.5,284.1,11.9,284.7,11.1,284.7z M433.4,279c-0.8,0-1.4-0.6-1.4-1.4v-2.8
		c0-0.8,0.6-1.4,1.4-1.4s1.4,0.6,1.4,1.4v2.8C434.8,278.4,434.2,279,433.4,279z M11.1,276.3c-0.8,0-1.4-0.6-1.4-1.4v-2.8
		c0-0.8,0.6-1.4,1.4-1.4c0.8,0,1.4,0.6,1.4,1.4v2.8C12.5,275.6,11.9,276.3,11.1,276.3z M433.4,270.6c-0.8,0-1.4-0.6-1.4-1.4v-2.8
		c0-0.8,0.6-1.4,1.4-1.4s1.4,0.6,1.4,1.4v2.8C434.8,269.9,434.2,270.6,433.4,270.6z M11.1,267.8c-0.8,0-1.4-0.6-1.4-1.4v-2.8
		c0-0.8,0.6-1.4,1.4-1.4c0.8,0,1.4,0.6,1.4,1.4v2.8C12.5,267.2,11.9,267.8,11.1,267.8z M433.4,262.1c-0.8,0-1.4-0.6-1.4-1.4v-2.8
		c0-0.8,0.6-1.4,1.4-1.4s1.4,0.6,1.4,1.4v2.8C434.8,261.5,434.2,262.1,433.4,262.1z M11.1,259.4c-0.8,0-1.4-0.6-1.4-1.4v-2.8
		c0-0.8,0.6-1.4,1.4-1.4c0.8,0,1.4,0.6,1.4,1.4v2.8C12.5,258.7,11.9,259.4,11.1,259.4z M433.4,253.7c-0.8,0-1.4-0.6-1.4-1.4v-2.8
		c0-0.8,0.6-1.4,1.4-1.4s1.4,0.6,1.4,1.4v2.8C434.8,253,434.2,253.7,433.4,253.7z M11.1,250.9c-0.8,0-1.4-0.6-1.4-1.4v-2.8
		c0-0.8,0.6-1.4,1.4-1.4c0.8,0,1.4,0.6,1.4,1.4v2.8C12.5,250.3,11.9,250.9,11.1,250.9z M433.4,245.2c-0.8,0-1.4-0.6-1.4-1.4V241
		c0-0.8,0.6-1.4,1.4-1.4s1.4,0.6,1.4,1.4v2.8C434.8,244.6,434.2,245.2,433.4,245.2z M11.1,242.5c-0.8,0-1.4-0.6-1.4-1.4v-2.8
		c0-0.8,0.6-1.4,1.4-1.4c0.8,0,1.4,0.6,1.4,1.4v2.8C12.5,241.8,11.9,242.5,11.1,242.5z M433.4,236.8c-0.8,0-1.4-0.6-1.4-1.4v-2.8
		c0-0.8,0.6-1.4,1.4-1.4s1.4,0.6,1.4,1.4v2.8C434.8,236.1,434.2,236.8,433.4,236.8z M11.1,234c-0.8,0-1.4-0.6-1.4-1.4v-2.8
		c0-0.8,0.6-1.4,1.4-1.4c0.8,0,1.4,0.6,1.4,1.4v2.8C12.5,233.4,11.9,234,11.1,234z M433.4,228.3c-0.8,0-1.4-0.6-1.4-1.4v-2.8
		c0-0.8,0.6-1.4,1.4-1.4s1.4,0.6,1.4,1.4v2.8C434.8,227.7,434.2,228.3,433.4,228.3z M11.1,225.6c-0.8,0-1.4-0.6-1.4-1.4v-2.8
		c0-0.8,0.6-1.4,1.4-1.4c0.8,0,1.4,0.6,1.4,1.4v2.8C12.5,224.9,11.9,225.6,11.1,225.6z M433.4,219.9c-0.8,0-1.4-0.6-1.4-1.4v-2.8
		c0-0.8,0.6-1.4,1.4-1.4s1.4,0.6,1.4,1.4v2.8C434.8,219.2,434.2,219.9,433.4,219.9z M11.1,217.1c-0.8,0-1.4-0.6-1.4-1.4v-2.8
		c0-0.8,0.6-1.4,1.4-1.4c0.8,0,1.4,0.6,1.4,1.4v2.8C12.5,216.5,11.9,217.1,11.1,217.1z M433.4,211.4c-0.8,0-1.4-0.6-1.4-1.4v-2.8
		c0-0.8,0.6-1.4,1.4-1.4s1.4,0.6,1.4,1.4v2.8C434.8,210.8,434.2,211.4,433.4,211.4z M11.1,208.7c-0.8,0-1.4-0.6-1.4-1.4v-2.8
		c0-0.8,0.6-1.4,1.4-1.4c0.8,0,1.4,0.6,1.4,1.4v2.8C12.5,208,11.9,208.7,11.1,208.7z M433.4,202.9c-0.8,0-1.4-0.6-1.4-1.4v-2.8
		c0-0.8,0.6-1.4,1.4-1.4s1.4,0.6,1.4,1.4v2.8C434.8,202.3,434.2,202.9,433.4,202.9z M11.1,200.2c-0.8,0-1.4-0.6-1.4-1.4V196
		c0-0.8,0.6-1.4,1.4-1.4c0.8,0,1.4,0.6,1.4,1.4v2.8C12.5,199.6,11.9,200.2,11.1,200.2z M433.4,194.5c-0.8,0-1.4-0.6-1.4-1.4v-2.8
		c0-0.8,0.6-1.4,1.4-1.4s1.4,0.6,1.4,1.4v2.8C434.8,193.9,434.2,194.5,433.4,194.5z M11.1,191.8c-0.8,0-1.4-0.6-1.4-1.4v-2.8
		c0-0.8,0.6-1.4,1.4-1.4c0.8,0,1.4,0.6,1.4,1.4v2.8C12.5,191.1,11.9,191.8,11.1,191.8z M433.4,186c-0.8,0-1.4-0.6-1.4-1.4v-2.8
		c0-0.8,0.6-1.4,1.4-1.4s1.4,0.6,1.4,1.4v2.8C434.8,185.4,434.2,186,433.4,186z M11.1,183.3c-0.8,0-1.4-0.6-1.4-1.4v-2.8
		c0-0.8,0.6-1.4,1.4-1.4c0.8,0,1.4,0.6,1.4,1.4v2.8C12.5,182.7,11.9,183.3,11.1,183.3z M433.4,177.6c-0.8,0-1.4-0.6-1.4-1.4v-2.8
		c0-0.8,0.6-1.4,1.4-1.4s1.4,0.6,1.4,1.4v2.8C434.8,177,434.2,177.6,433.4,177.6z M11.1,174.9c-0.8,0-1.4-0.6-1.4-1.4v-2.8
		c0-0.8,0.6-1.4,1.4-1.4c0.8,0,1.4,0.6,1.4,1.4v2.8C12.5,174.2,11.9,174.9,11.1,174.9z M433.4,169.1c-0.8,0-1.4-0.6-1.4-1.4v-2.8
		c0-0.8,0.6-1.4,1.4-1.4s1.4,0.6,1.4,1.4v2.8C434.8,168.5,434.2,169.1,433.4,169.1z M11.1,166.4c-0.8,0-1.4-0.6-1.4-1.4v-2.8
		c0-0.8,0.6-1.4,1.4-1.4c0.8,0,1.4,0.6,1.4,1.4v2.8C12.5,165.8,11.9,166.4,11.1,166.4z M433.4,160.7c-0.8,0-1.4-0.6-1.4-1.4v-2.8
		c0-0.8,0.6-1.4,1.4-1.4s1.4,0.6,1.4,1.4v2.8C434.8,160.1,434.2,160.7,433.4,160.7z M11.1,157.9c-0.8,0-1.4-0.6-1.4-1.4v-2.8
		c0-0.8,0.6-1.4,1.4-1.4c0.8,0,1.4,0.6,1.4,1.4v2.8C12.5,157.3,11.9,157.9,11.1,157.9z M433.4,152.2c-0.8,0-1.4-0.6-1.4-1.4V148
		c0-0.8,0.6-1.4,1.4-1.4s1.4,0.6,1.4,1.4v2.8C434.8,151.6,434.2,152.2,433.4,152.2z M11.1,149.5c-0.8,0-1.4-0.6-1.4-1.4v-2.8
		c0-0.8,0.6-1.4,1.4-1.4c0.8,0,1.4,0.6,1.4,1.4v2.8C12.5,148.9,11.9,149.5,11.1,149.5z M433.4,143.8c-0.8,0-1.4-0.6-1.4-1.4v-2.8
		c0-0.8,0.6-1.4,1.4-1.4s1.4,0.6,1.4,1.4v2.8C434.8,143.1,434.2,143.8,433.4,143.8z M11.1,141c-0.8,0-1.4-0.6-1.4-1.4v-2.8
		c0-0.8,0.6-1.4,1.4-1.4c0.8,0,1.4,0.6,1.4,1.4v2.8C12.5,140.4,11.9,141,11.1,141z M433.4,135.3c-0.8,0-1.4-0.6-1.4-1.4v-2.8
		c0-0.8,0.6-1.4,1.4-1.4s1.4,0.6,1.4,1.4v2.8C434.8,134.7,434.2,135.3,433.4,135.3z M11.1,132.6c-0.8,0-1.4-0.6-1.4-1.4v-2.8
		c0-0.8,0.6-1.4,1.4-1.4c0.8,0,1.4,0.6,1.4,1.4v2.8C12.5,132,11.9,132.6,11.1,132.6z M433.4,126.9c-0.8,0-1.4-0.6-1.4-1.4v-2.8
		c0-0.8,0.6-1.4,1.4-1.4s1.4,0.6,1.4,1.4v2.8C434.8,126.2,434.2,126.9,433.4,126.9z M11.1,124.1c-0.8,0-1.4-0.6-1.4-1.4v-2.8
		c0-0.8,0.6-1.4,1.4-1.4c0.8,0,1.4,0.6,1.4,1.4v2.8C12.5,123.5,11.9,124.1,11.1,124.1z M433.4,118.4c-0.8,0-1.4-0.6-1.4-1.4v-2.8
		c0-0.8,0.6-1.4,1.4-1.4s1.4,0.6,1.4,1.4v2.8C434.8,117.8,434.2,118.4,433.4,118.4z M11.1,115.7c-0.8,0-1.4-0.6-1.4-1.4v-2.8
		c0-0.8,0.6-1.4,1.4-1.4c0.8,0,1.4,0.6,1.4,1.4v2.8C12.5,115.1,11.9,115.7,11.1,115.7z M433.4,110c-0.8,0-1.4-0.6-1.4-1.4v-2.8
		c0-0.8,0.6-1.4,1.4-1.4s1.4,0.6,1.4,1.4v2.8C434.8,109.3,434.2,110,433.4,110z M11.1,107.2c-0.8,0-1.4-0.6-1.4-1.4V103
		c0-0.8,0.6-1.4,1.4-1.4c0.8,0,1.4,0.6,1.4,1.4v2.8C12.5,106.6,11.9,107.2,11.1,107.2z M433.4,101.5c-0.8,0-1.4-0.6-1.4-1.4v-2.8
		c0-0.8,0.6-1.4,1.4-1.4s1.4,0.6,1.4,1.4v2.8C434.8,100.9,434.2,101.5,433.4,101.5z M11.1,98.8c-0.8,0-1.4-0.6-1.4-1.4v-1.7
		c0-0.4,0-0.8,0-1.2c0-0.8,0.7-1.4,1.5-1.4c0.8,0,1.4,0.7,1.4,1.5c0,0.4,0,0.7,0,1.1v1.7C12.5,98.1,11.9,98.8,11.1,98.8z
		 M433.2,93.1c-0.7,0-1.3-0.5-1.4-1.3c-0.1-0.9-0.2-1.8-0.4-2.7c-0.1-0.8,0.4-1.5,1.1-1.6c0.8-0.1,1.5,0.4,1.6,1.1
		c0.2,1,0.3,1.9,0.4,2.9c0.1,0.8-0.5,1.5-1.3,1.6C433.3,93.1,433.3,93.1,433.2,93.1z M11.7,90.4c-0.1,0-0.2,0-0.2,0
		c-0.8-0.1-1.3-0.9-1.1-1.6c0.2-1,0.4-1.9,0.6-2.9c0.2-0.8,1-1.2,1.7-1c0.8,0.2,1.2,1,1,1.7c-0.2,0.9-0.4,1.8-0.6,2.7
		C13,89.9,12.4,90.4,11.7,90.4z M431.4,84.8c-0.6,0-1.1-0.4-1.3-1c-0.3-0.9-0.6-1.7-1-2.5c-0.3-0.7,0-1.5,0.8-1.8
		c0.7-0.3,1.5,0,1.8,0.8c0.4,0.9,0.7,1.8,1,2.7c0.2,0.7-0.2,1.5-0.9,1.8C431.7,84.8,431.6,84.8,431.4,84.8z M14.1,82.3
		c-0.2,0-0.4,0-0.5-0.1c-0.7-0.3-1.1-1.1-0.8-1.8c0.4-0.9,0.8-1.8,1.2-2.7c0.3-0.7,1.2-1,1.9-0.6c0.7,0.3,1,1.2,0.6,1.9
		c-0.4,0.8-0.8,1.6-1.1,2.5C15.1,81.9,14.6,82.3,14.1,82.3z M427.9,77.2c-0.5,0-0.9-0.2-1.2-0.7c-0.5-0.8-1-1.5-1.5-2.3
		c-0.4-0.6-0.3-1.5,0.3-2c0.6-0.4,1.5-0.3,2,0.3c0.6,0.8,1.1,1.6,1.6,2.4c0.4,0.7,0.2,1.5-0.5,1.9C428.4,77.1,428.2,77.2,427.9,77.2
		z M18.1,74.9c-0.3,0-0.6-0.1-0.8-0.3c-0.6-0.4-0.8-1.3-0.3-2c0.6-0.8,1.1-1.6,1.8-2.3c0.5-0.6,1.4-0.7,2-0.2c0.6,0.5,0.7,1.4,0.2,2
		c-0.6,0.7-1.1,1.4-1.6,2.2C19,74.7,18.6,74.9,18.1,74.9z M422.8,70.4c-0.4,0-0.8-0.1-1-0.4c-0.6-0.7-1.3-1.3-1.9-1.9
		c-0.6-0.5-0.6-1.4-0.1-2c0.5-0.6,1.4-0.6,2-0.1c0.7,0.7,1.4,1.3,2.1,2.1c0.5,0.6,0.5,1.5-0.1,2C423.5,70.3,423.2,70.4,422.8,70.4z
		 M23.7,68.5c-0.4,0-0.8-0.2-1-0.5c-0.5-0.6-0.5-1.5,0.1-2c0.7-0.7,1.5-1.3,2.2-1.9c0.6-0.5,1.5-0.4,2,0.2c0.5,0.6,0.4,1.5-0.2,2
		c-0.7,0.6-1.4,1.2-2.1,1.8C24.3,68.4,24,68.5,23.7,68.5z M416.4,65c-0.3,0-0.6-0.1-0.8-0.2c-0.7-0.5-1.5-1-2.3-1.4
		c-0.7-0.4-0.9-1.3-0.5-1.9c0.4-0.7,1.3-0.9,1.9-0.5c0.8,0.5,1.7,1,2.5,1.6c0.6,0.4,0.8,1.3,0.4,2C417.3,64.7,416.9,65,416.4,65z
		 M30.4,63.5c-0.5,0-1-0.3-1.2-0.7c-0.4-0.7-0.2-1.5,0.5-1.9c0.8-0.5,1.7-0.9,2.6-1.4c0.7-0.3,1.5-0.1,1.9,0.6
		c0.3,0.7,0.1,1.5-0.6,1.9c-0.8,0.4-1.6,0.8-2.4,1.3C30.9,63.4,30.7,63.5,30.4,63.5z M409,61c-0.2,0-0.4,0-0.5-0.1
		c-0.8-0.3-1.7-0.6-2.6-0.9c-0.7-0.2-1.2-1-0.9-1.8c0.2-0.7,1-1.2,1.8-0.9c0.9,0.3,1.8,0.6,2.7,1c0.7,0.3,1.1,1.1,0.8,1.8
		C410.1,60.7,409.5,61,409,61z M38.1,60.1c-0.6,0-1.2-0.4-1.3-1c-0.2-0.7,0.2-1.5,0.9-1.8c0.7-0.2,1.3-0.4,2-0.6l0.8-0.2
		c0.8-0.2,1.5,0.3,1.7,1c0.2,0.8-0.3,1.5-1,1.7l-0.8,0.2c-0.6,0.2-1.3,0.3-1.9,0.5C38.4,60,38.3,60.1,38.1,60.1z M400.9,58.6
		c-0.1,0-0.2,0-0.4,0l-2.7-0.7c-0.8-0.2-1.2-1-1-1.7c0.2-0.8,1-1.2,1.7-1l2.7,0.7c0.8,0.2,1.2,1,1,1.7
		C402.1,58.1,401.5,58.6,400.9,58.6z M46.3,57.9c-0.6,0-1.2-0.4-1.4-1.1c-0.2-0.8,0.2-1.5,1-1.7l2.7-0.7c0.8-0.2,1.5,0.3,1.7,1
		c0.2,0.8-0.3,1.5-1,1.7l-2.7,0.7C46.5,57.8,46.4,57.9,46.3,57.9z M392.7,56.4c-0.1,0-0.2,0-0.4,0l-2.7-0.7c-0.8-0.2-1.2-1-1-1.7
		c0.2-0.8,1-1.2,1.7-1l2.7,0.7c0.8,0.2,1.2,1,1,1.7C393.9,56,393.3,56.4,392.7,56.4z M54.5,55.7c-0.6,0-1.2-0.4-1.4-1.1
		c-0.2-0.8,0.3-1.5,1-1.7l2.7-0.7c0.8-0.2,1.5,0.2,1.7,1c0.2,0.8-0.2,1.5-1,1.7l-2.7,0.7C54.7,55.7,54.6,55.7,54.5,55.7z
		 M384.5,54.2c-0.1,0-0.2,0-0.4,0l-2.7-0.7c-0.8-0.2-1.2-1-1-1.7c0.2-0.8,1-1.2,1.7-1l2.7,0.7c0.8,0.2,1.2,1,1,1.7
		C385.7,53.8,385.2,54.2,384.5,54.2z M62.6,53.5c-0.6,0-1.2-0.4-1.4-1.1c-0.2-0.8,0.3-1.5,1-1.7L65,50c0.8-0.2,1.5,0.3,1.7,1
		c0.2,0.8-0.3,1.5-1,1.7L63,53.5C62.9,53.5,62.8,53.5,62.6,53.5z M376.4,52.1c-0.1,0-0.2,0-0.4,0l-2.7-0.7c-0.8-0.2-1.2-1-1-1.7
		c0.2-0.8,1-1.2,1.7-1l2.7,0.7c0.8,0.2,1.2,1,1,1.7C377.6,51.7,377,52.1,376.4,52.1z M70.8,51.4c-0.6,0-1.2-0.4-1.4-1.1
		c-0.2-0.8,0.3-1.5,1-1.7l2.7-0.7c0.8-0.2,1.5,0.2,1.7,1c0.2,0.8-0.3,1.5-1,1.7l-2.7,0.7C71.1,51.4,70.9,51.4,70.8,51.4z
		 M368.2,49.9c-0.1,0-0.2,0-0.4,0l-2.7-0.7c-0.8-0.2-1.2-1-1-1.7c0.2-0.8,1-1.2,1.7-1l2.7,0.7c0.8,0.2,1.2,1,1,1.7
		C369.4,49.5,368.8,49.9,368.2,49.9z M79,49.2c-0.6,0-1.2-0.4-1.4-1.1c-0.2-0.8,0.3-1.5,1-1.7l2.7-0.7c0.8-0.2,1.5,0.2,1.7,1
		c0.2,0.8-0.2,1.5-1,1.7l-2.7,0.7C79.2,49.2,79.1,49.2,79,49.2z M360,47.8c-0.1,0-0.2,0-0.4,0l-2.7-0.7c-0.8-0.2-1.2-1-1-1.7
		c0.2-0.8,1-1.2,1.7-1l2.7,0.7c0.8,0.2,1.2,1,1,1.7C361.2,47.4,360.6,47.8,360,47.8z M87.2,47.1c-0.6,0-1.2-0.4-1.4-1.1
		c-0.2-0.8,0.2-1.5,1-1.7l2.7-0.7c0.7-0.2,1.5,0.2,1.7,1c0.2,0.8-0.2,1.5-1,1.7L87.5,47C87.4,47.1,87.3,47.1,87.2,47.1z M351.8,45.6
		c-0.1,0-0.2,0-0.4,0l-2.7-0.7c-0.8-0.2-1.2-1-1-1.7c0.2-0.8,1-1.2,1.7-1l2.7,0.7c0.8,0.2,1.2,1,1,1.7
		C353,45.2,352.5,45.6,351.8,45.6z M95.3,44.9c-0.6,0-1.2-0.4-1.4-1.1c-0.2-0.8,0.2-1.5,1-1.7l2.7-0.7c0.7-0.2,1.5,0.2,1.7,1
		c0.2,0.8-0.3,1.5-1,1.7l-2.7,0.7C95.6,44.9,95.4,44.9,95.3,44.9z M343.7,43.5c-0.1,0-0.2,0-0.4,0l-2.7-0.7c-0.8-0.2-1.2-1-1-1.7
		c0.2-0.8,1-1.2,1.7-1l2.7,0.7c0.8,0.2,1.2,1,1,1.7C344.9,43,344.3,43.5,343.7,43.5z M103.5,42.8c-0.6,0-1.2-0.4-1.4-1.1
		c-0.2-0.8,0.3-1.5,1-1.7l2.7-0.7c0.8-0.2,1.5,0.2,1.7,1c0.2,0.8-0.3,1.5-1,1.7l-2.7,0.7C103.7,42.7,103.6,42.8,103.5,42.8z
		 M335.5,41.3c-0.1,0-0.2,0-0.4,0l-2.7-0.7c-0.8-0.2-1.2-1-1-1.7c0.2-0.8,1-1.2,1.7-1l2.7,0.7c0.8,0.2,1.2,1,1,1.7
		C336.7,40.9,336.1,41.3,335.5,41.3z M111.7,40.6c-0.6,0-1.2-0.4-1.4-1.1c-0.2-0.8,0.3-1.5,1-1.7l2.7-0.7c0.8-0.2,1.5,0.3,1.7,1
		c0.2,0.8-0.3,1.5-1,1.7l-2.7,0.7C111.9,40.6,111.8,40.6,111.7,40.6z M327.3,39.1c-0.1,0-0.2,0-0.4,0l-2.7-0.7c-0.8-0.2-1.2-1-1-1.7
		c0.2-0.8,1-1.2,1.7-1l2.7,0.7c0.8,0.2,1.2,1,1,1.7C328.5,38.7,328,39.1,327.3,39.1z M119.8,38.4c-0.6,0-1.2-0.4-1.4-1.1
		c-0.2-0.8,0.3-1.5,1-1.7l2.7-0.7c0.8-0.2,1.5,0.3,1.7,1c0.2,0.8-0.3,1.5-1,1.7l-2.7,0.7C120.1,38.4,120,38.4,119.8,38.4z M319.2,37
		c-0.1,0-0.2,0-0.4,0l-2.7-0.7c-0.8-0.2-1.2-1-1-1.7c0.2-0.8,1-1.2,1.7-1l2.7,0.7c0.8,0.2,1.2,1,1,1.7C320.4,36.6,319.8,37,319.2,37
		z M128,36.3c-0.6,0-1.2-0.4-1.4-1.1c-0.2-0.8,0.3-1.5,1-1.7l2.7-0.7c0.8-0.2,1.5,0.2,1.7,1c0.2,0.8-0.3,1.5-1,1.7l-2.7,0.7
		C128.3,36.3,128.1,36.3,128,36.3z M311,34.8c-0.1,0-0.2,0-0.4,0l-2.7-0.7c-0.8-0.2-1.2-1-1-1.7c0.2-0.8,1-1.2,1.7-1l2.7,0.7
		c0.8,0.2,1.2,1,1,1.7C312.2,34.4,311.6,34.8,311,34.8z M136.2,34.1c-0.6,0-1.2-0.4-1.4-1.1c-0.2-0.8,0.3-1.5,1-1.7l2.7-0.7
		c0.8-0.2,1.5,0.2,1.7,1c0.2,0.8-0.3,1.5-1,1.7l-2.7,0.7C136.4,34.1,136.3,34.1,136.2,34.1z M302.8,32.7c-0.1,0-0.2,0-0.4,0
		l-2.7-0.7c-0.8-0.2-1.2-1-1-1.7c0.2-0.8,1-1.2,1.7-1l2.7,0.7c0.8,0.2,1.2,1,1,1.7C304,32.2,303.4,32.7,302.8,32.7z M144.4,32
		c-0.6,0-1.2-0.4-1.4-1.1c-0.2-0.8,0.2-1.5,1-1.7l2.7-0.7c0.8-0.2,1.5,0.3,1.7,1c0.2,0.8-0.2,1.5-1,1.7l-2.7,0.7
		C144.6,32,144.5,32,144.4,32z M294.6,30.5c-0.1,0-0.2,0-0.4,0l-2.7-0.7c-0.8-0.2-1.2-1-1-1.7c0.2-0.8,1-1.2,1.7-1l2.7,0.7
		c0.8,0.2,1.2,1,1,1.7C295.8,30.1,295.3,30.5,294.6,30.5z M152.5,29.8c-0.6,0-1.2-0.4-1.4-1.1c-0.2-0.8,0.3-1.5,1-1.7l2.7-0.7
		c0.8-0.2,1.5,0.3,1.7,1c0.2,0.8-0.2,1.5-1,1.7l-2.7,0.7C152.8,29.8,152.7,29.8,152.5,29.8z M286.5,28.4c-0.1,0-0.2,0-0.4,0
		l-2.7-0.7c-0.8-0.2-1.2-1-1-1.7c0.2-0.8,1-1.2,1.7-1l2.7,0.7c0.8,0.2,1.2,1,1,1.7C287.7,27.9,287.1,28.4,286.5,28.4z M160.7,27.7
		c-0.6,0-1.2-0.4-1.4-1.1c-0.2-0.8,0.3-1.5,1-1.7l2.7-0.7c0.8-0.2,1.5,0.2,1.7,1c0.2,0.8-0.3,1.5-1,1.7l-2.7,0.7
		C160.9,27.6,160.8,27.7,160.7,27.7z M278.3,26.2c-0.1,0-0.2,0-0.4,0l-2.7-0.7c-0.8-0.2-1.2-1-1-1.7c0.2-0.8,1-1.2,1.7-1l2.7,0.7
		c0.8,0.2,1.2,1,1,1.7C279.5,25.8,278.9,26.2,278.3,26.2z M168.9,25.5c-0.6,0-1.2-0.4-1.4-1.1c-0.2-0.8,0.3-1.5,1-1.7l2.7-0.7
		c0.8-0.2,1.5,0.3,1.7,1c0.2,0.8-0.3,1.5-1,1.7l-2.7,0.7C169.1,25.5,169,25.5,168.9,25.5z M270.1,24c-0.1,0-0.2,0-0.4,0l-2.7-0.7
		c-0.8-0.2-1.2-1-1-1.7c0.2-0.8,1-1.2,1.7-1l2.7,0.7c0.8,0.2,1.2,1,1,1.7C271.3,23.6,270.7,24,270.1,24z M177.1,23.3
		c-0.6,0-1.2-0.4-1.4-1.1c-0.2-0.8,0.3-1.5,1-1.7l2.7-0.7c0.8-0.2,1.5,0.2,1.7,1c0.2,0.8-0.3,1.5-1,1.7l-2.7,0.7
		C177.3,23.3,177.2,23.3,177.1,23.3z M261.9,21.9c-0.1,0-0.2,0-0.4,0l-2.7-0.7c-0.8-0.2-1.2-1-1-1.7c0.2-0.8,1-1.2,1.7-1l2.7,0.7
		c0.8,0.2,1.2,1,1,1.7C263.1,21.5,262.6,21.9,261.9,21.9z M185.2,21.2c-0.6,0-1.2-0.4-1.4-1.1c-0.2-0.8,0.3-1.5,1-1.7l2.7-0.7
		c0.8-0.2,1.5,0.2,1.7,1c0.2,0.8-0.2,1.5-1,1.7l-2.7,0.7C185.5,21.2,185.3,21.2,185.2,21.2z M253.8,19.7c-0.1,0-0.2,0-0.4,0
		l-2.7-0.7c-0.8-0.2-1.2-1-1-1.7c0.2-0.8,1-1.2,1.7-1l2.7,0.7c0.8,0.2,1.2,1,1,1.7C255,19.3,254.4,19.7,253.8,19.7z M193.4,19
		c-0.6,0-1.2-0.4-1.4-1.1c-0.2-0.8,0.3-1.5,1-1.7l2.7-0.7c0.8-0.2,1.5,0.2,1.7,1c0.2,0.8-0.3,1.5-1,1.7l-2.7,0.7
		C193.6,19,193.5,19,193.4,19z M245.6,17.6c-0.1,0-0.2,0-0.4,0l-2.7-0.7c-0.8-0.2-1.2-1-1-1.7c0.2-0.8,1-1.2,1.7-1l2.7,0.7
		c0.8,0.2,1.2,1,1,1.7C246.8,17.1,246.2,17.6,245.6,17.6z M201.6,16.9c-0.6,0-1.2-0.4-1.4-1.1c-0.2-0.8,0.3-1.5,1-1.7l2.7-0.7
		c0.8-0.2,1.5,0.3,1.7,1c0.2,0.8-0.3,1.5-1,1.7l-2.7,0.7C201.8,16.9,201.7,16.9,201.6,16.9z M237.4,15.4c-0.1,0-0.2,0-0.4,0
		l-2.7-0.7c-0.8-0.2-1.2-1-1-1.7c0.2-0.8,1-1.2,1.7-1l2.7,0.7c0.8,0.2,1.2,1,1,1.7C238.6,15,238.1,15.4,237.4,15.4z M209.7,14.7
		c-0.6,0-1.2-0.4-1.4-1.1c-0.2-0.8,0.2-1.5,1-1.7l2.7-0.7c0.8-0.2,1.5,0.2,1.7,1c0.2,0.8-0.2,1.5-1,1.7l-2.7,0.7
		C210,14.7,209.9,14.7,209.7,14.7z M229.2,13.4c-0.1,0-0.2,0-0.3,0c-0.9-0.2-1.8-0.3-2.7-0.4c-0.8-0.1-1.3-0.8-1.3-1.6
		c0.1-0.8,0.8-1.3,1.6-1.3c1,0.1,1.9,0.2,2.9,0.4c0.8,0.1,1.3,0.9,1.1,1.6C230.5,12.9,229.9,13.4,229.2,13.4z M218,13
		c-0.7,0-1.3-0.5-1.4-1.3c-0.1-0.8,0.5-1.5,1.2-1.6c1-0.1,1.9-0.2,2.9-0.2c0.8,0,1.4,0.6,1.5,1.4c0,0.8-0.6,1.4-1.4,1.5
		c-0.9,0-1.8,0.1-2.7,0.2C218.1,13,218.1,13,218,13z"/>
	<path fill="#CF0A2C" d="M222.3,577c-2.7,0-5.5-0.4-8.1-1L42.6,530.7c-14.1-3.7-23.9-16.5-23.9-31.1V96.6c0-14.6,9.8-27.4,23.9-31.1
		l171.5-45.3c2.7-0.7,5.4-1.1,8.2-1.1c2.8,0,5.5,0.4,8.2,1.1l171.5,45.3c14.1,3.7,23.9,16.5,23.9,31.1v402.9
		c0,14.6-9.8,27.4-23.9,31.1l-171.5,45.3C227.8,576.6,225,577,222.3,577z"/>
	<path fill="#002E6D" d="M222.3,564.9c-1.7,0-3.4-0.2-5.1-0.7L45.7,519c-8.8-2.3-15-10.3-15-19.4l0-402.9c0-9.1,6.2-17.1,15-19.4
		l171.5-45.3c1.7-0.4,3.4-0.7,5.1-0.7c1.7,0,3.5,0.2,5.1,0.7l171.5,45.3c8.8,2.3,15,10.3,15,19.4v402.9c0,9.1-6.2,17.1-15,19.4
		l-171.5,45.3C225.7,564.7,224,564.9,222.3,564.9z"/>
	<g>
		<path fill="#E6E7E8" d="M229.5,51.5l18.4,4.9v38.4l33,1.2v21l-51.3,0.2V51.5z M233,123.2l68.3,8v47.2h-18.5l0,0H233V123.2z
			 M251.6,157.5l31.3,1.4v-11.6l-31.3-2.3V157.5z M283,64.6l18.4,5v17.3l8.7,2V109l-8.7-1.5v20.8L283,126V64.6z"/>
		<path fill="#E6E7E8" d="M314.6,76.9l48.2,12.7v18.2l-15.4-3.2v3.6c0.3,30.4,8.5,41.4,16.3,46v21.3c-10-3.7-19-11.8-25-27.6
			c-6,15.3-14.9,23.3-24.9,27.2v-24.4c7.8-3.9,16-14,16.3-45.9v-3.8l-15.4-3.2V76.9z M368,88l18.4,5v31l8.7,1.5v17.1l-8.7-1v36.9
			H368V88z"/>
	</g>
	<path fill="#E6E7E8" d="M229.7,486.8l128.1-14.3l0.2,17.2l-51.7,8.1l-10.5,32.6l-39.2,9.5l11.1-35.3l-37.9,7.4L229.7,486.8z
		 M233.8,455.2c15.6-0.5,41.3-6.7,41.3-28.6v-3.1l36.5-1.9v2.9c0,20.4,21.8,26.5,38.7,25.3v18.5c-26,1.4-40.8-5.9-54.2-16
		c-13.4,12.6-26.2,24.1-62.4,27.2V455.2z M363.1,421h30.6v85.2l-30.6,6.3V421z"/>
	<polygon id="바탕_1_" fill="#E6E7E8" points="399.7,335.6 399.7,266.6 399.7,197.6 399.7,197.6 315.7,197.6 231.7,197.6 
		231.7,266.6 231.7,335.6 231.7,404.6 315.7,404.6 399.7,404.6 399.7,404.6 	"/>
	<g>
		<path id="음_1_" fill="#002E6D" d="M304.7,334.6c10.9,0,19.8-8.9,19.8-19.9c0-6.8-3.4-12.8-8.6-16.4c-0.1,0-0.1-0.1-0.2-0.1
			c-0.1,0-0.1-0.1-0.2-0.1c-5.2-3.6-8.6-9.6-8.6-16.4c0-11,8.9-19.9,19.8-19.9c4.1,0,7.8,1.2,11,3.3l0,0c-6.3-4.2-13.8-6.7-22-6.7
			c-21.9,0-39.6,17.8-39.6,39.8c0,13.8,7,26,17.7,33.2l0,0C296.9,333.4,300.7,334.6,304.7,334.6z"/>
		<g>
			<g id="사괘_1_">
				<polygon points="251.6,237.4 255.3,242.9 288.2,220.8 284.6,215.3 				"/>
				<polygon points="262.6,253.9 266.2,259.4 299.2,237.3 295.6,231.8 				"/>
				<polygon points="293.7,229.1 290.1,223.5 274.9,233.7 278.6,239.2 				"/>
				<polygon points="272.2,235.5 257.1,245.7 260.8,251.2 275.9,241 				"/>
				<polygon points="346.8,215.3 343.2,220.8 376.1,242.9 379.8,237.4 				"/>
				<polygon points="341.3,223.5 337.7,229 370.7,251.1 374.3,245.6 				"/>
				<polygon points="335.9,231.8 332.2,237.3 365.2,259.4 368.8,253.9 				"/>
				<polygon points="266.3,336.8 262.6,342.3 277.7,352.5 281.4,347 				"/>
				<polygon points="295.6,364.4 299.2,358.9 284.1,348.8 280.5,354.3 				"/>
				<polygon points="290.1,372.7 293.8,367.2 278.6,357 275,362.6 				"/>
				<polygon points="260.8,345.1 257.1,350.6 272.3,360.7 275.9,355.2 				"/>
				<polygon points="284.6,381 288.3,375.5 273.1,365.3 269.5,370.8 				"/>
				<polygon points="255.3,353.3 251.7,358.9 266.8,369 270.4,363.5 				"/>
				<polygon points="337.6,367.2 341.3,372.7 374.3,350.6 370.6,345.1 				"/>
				<polygon points="368.8,342.3 365.1,336.8 350,346.9 353.6,352.5 				"/>
				<polygon points="332.2,358.9 335.8,364.4 350.9,354.3 347.3,348.8 				"/>
				<polygon points="379.7,358.8 376.1,353.3 361,363.5 364.6,369 				"/>
				<polygon points="343.1,375.4 346.8,380.9 361.9,370.8 358.2,365.3 				"/>
			</g>
			<path id="양_1_" fill="#CF0A2C" d="M355.3,298.1c0-13.8-7-26-17.7-33.2l0,0c-3.1-2.1-6.9-3.3-11-3.3c-10.9,0-19.8,8.9-19.8,19.9
				c0,6.8,3.4,12.8,8.6,16.4c0.1,0,0.1,0.1,0.2,0.1c0.1,0,0.1,0.1,0.2,0.1c5.2,3.6,8.6,9.6,8.6,16.4c0,11-8.9,19.9-19.8,19.9
				c-4.1,0-7.8-1.2-11-3.3l0,0c6.3,4.2,13.8,6.7,22,6.7C337.6,338,355.3,320.1,355.3,298.1z"/>
		</g>
	</g>
	<g>
		<path fill="#E6E7E8" d="M46.9,115.4c0-13.1,10.7-22.9,23.8-26.4c7.6-2,14.3-1.3,18.7,2.7l17.1-4.2v-8.1l19.7-5.3v60.9l-19.7,2.2
			v-10.6L90,128.8c-4.4,6.1-11.4,9.6-19.2,10.5c-13.1,1.6-23.8-3.9-23.8-17V115.4z M67.1,144l42.6-4.5c9.8-1,17.5,6.7,17.5,18.7
			c0,11.7-7.7,20.6-17.5,20.6l-42.6,0.1c-9.6,0-17.3-7.1-17.3-16.5C49.8,152.7,57.5,145,67.1,144z M64.9,120.5c0,3.7,2.6,5.5,6.1,5
			c3.5-0.6,6.1-3.3,6.1-7.2v-10.7c0-3.8-2.7-5.7-6.1-4.9c-3.5,0.8-6.1,3.7-6.1,7.4V120.5z M103.8,162.8c2.5-0.1,3.7-1.6,3.7-3.6
			c0-2.3-1.2-3.4-3.7-3.3l-30.9,2c-2.1,0.1-3.4,1.3-3.4,3.4c0,1.8,1.2,3,3.4,2.9L103.8,162.8z M106.6,110.9v-8l-12,2.5v7.7
			L106.6,110.9z"/>
		<path fill="#E6E7E8" d="M132.7,110.8l82-14.1v21.6l-31.8,4v13.7l28.7-2.8v46h-19.3v-24l-57,3v-17.7l28.3-2.7v-13.1l-31,3.9V110.8z
			 M135.4,71.6L212,51l-2.4,43.2l-18.8,3.4l1.2-21.1l-56.6,12.7V71.6z"/>
	</g>
	<g>
		<polygon fill-rule="evenodd" clip-rule="evenodd" fill="#E6E7E8" points="102.8,404.6 102.8,360.9 67.2,404.6 46.8,404.6 
			46.8,379.6 96.2,318.4 46.8,318.4 46.8,284 96.2,284 46.8,222.8 46.8,197.6 67.2,197.6 102.8,241.5 102.8,197.6 158.8,197.6 
			158.8,241.5 194.4,197.6 214.8,197.6 214.8,222.8 165.4,284 214.8,284 214.8,318.4 165.4,318.4 214.8,379.6 214.8,404.6 
			194.4,404.6 158.8,360.9 158.8,404.6 		"/>
		<path fill-rule="evenodd" clip-rule="evenodd" fill="#CF0A2C" d="M114.4,404.6v-93.5l-67.6,0v-20.2h67.6v-93.3h32.8v93.3h67.6
			v20.2h-67.6v93.5H114.4L114.4,404.6z M46.8,213.9l56,69.1v-16.5l-56-68.8V213.9L46.8,213.9z M214.8,197.6h-13.3l-42.6,52.3v16.6
			L214.8,197.6L214.8,197.6z M102.8,335.4l-56,69.2l13.4,0l42.6-52.6V335.4L102.8,335.4z M158.8,335.5l56,69.1v-16.5l-56-69.1V335.5
			z"/>
	</g>
	<path fill="#E6E7E8" d="M50.9,487.3l60.7,13.2v-21.8l38.6,5.9l0.2,23l62.5,12.1v24.9l-162-41.1V487.3z M57,422.5l148.5,2.9
		l0.1,24.2l-54.8-5.7c2.8,13.1,26.9,26.7,56.6,30.2v26.8c-42-6.4-66.3-24.9-79.7-38.7c-13.4,10-34.4,18.7-72.5,12.3v-16.8
		c30.1,3.5,52.5-5.4,55.8-16.7L57,438.1V422.5z"/>
</g>
<g>
</g>
<g>
</g>
<g>
</g>
<g>
</g>
<g>
</g>
<g>
</g>
</svg>
