<?xml version="1.0" encoding="utf-8"?>
<!-- Generator: Adobe Illustrator 18.1.1, SVG Export Plug-In . SVG Version: 6.00 Build 0)  -->
<svg version="1.1" id="Layer_1" xmlns="http://www.w3.org/2000/svg" xmlns:xlink="http://www.w3.org/1999/xlink" x="0px" y="0px"
	 viewBox="0 0 575.3 670.4" enable-background="new 0 0 575.3 670.4" xml:space="preserve">
<g>
	<path d="M54.4,506.4V56H98c37.1,0,90.7-3,135.3-17.2c19.8-6.3,29.9-12.5,32.1-13.9L293,8.3L319.4,25c2.7,1.7,12.7,7.7,31.9,13.8
		C395.9,53,449.5,56,486.6,56h43.6v446.8L293.9,655.1L54.4,506.4z"/>
	<path fill="#FFDE17" d="M294,663.4L47.4,510.3V49H98c36.6,0,89.5-2.9,133.1-16.9c18.2-5.8,27.7-11.4,30.1-12.9l32-19.2l30.5,19.4
		c3,1.9,12.4,7.2,29.8,12.7C397.1,46,450,49,486.6,49h50.6v457.6L294,663.4z M61.4,502.5l232.4,144.3l229.3-147.9V63h-36.6
		c-37.6,0-92-3-137.4-17.5c-20-6.4-30.7-11.7-33.5-13.5l-22.7-13.3l-23.7,13.1c-2.8,1.8-13.4,7.2-33.8,13.7C190,59.9,135.6,63,98,63
		H61.4V502.5z"/>
</g>
<path fill="#FFDE17" d="M503.2,83h-16.6c-39,0-95.6-3.2-143.5-18.5c-27.1-8.6-39.2-17.4-40.4-18.2l-10.1-7l-10.7,7
	c-1.1,0.8-13.2,9.6-40.4,18.3C193.6,79.8,137,83,98,83H81.4v408.4l12.5,7.8c4.3-16.7,11-35.6,20.8-46.8
	c20.3-23.4,44.4-28.8,60.7-34.7c16.3-5.9,54.6-20.5,55.8-24.5l36,213.6l5.4,3.4c0.7-37.4,1-114.9,2.2-129.5l3.7-43.3
	c0.2-2.1,0.3-4,0.5-5.7c0-0.1,0-0.2,0-0.4c0-0.3,0.1-0.5,0.1-0.8c0-0.1,0-0.2,0-0.3c0-0.3,0.1-0.5,0.1-0.8c0-0.1,0-0.3,0.1-0.4
	c0-0.2,0.1-0.4,0.1-0.6c0-0.1,0-0.3,0.1-0.4c0-0.2,0.1-0.3,0.1-0.5c0-0.1,0.1-0.2,0.1-0.4c0-0.1,0.1-0.3,0.1-0.4
	c0-0.1,0.1-0.2,0.1-0.3c0-0.1,0.1-0.2,0.1-0.3c0-0.1,0.1-0.2,0.1-0.3c0-0.1,0.1-0.2,0.1-0.2c0-0.1,0.1-0.2,0.1-0.3
	c0-0.1,0.1-0.1,0.1-0.2c0-0.1,0.1-0.2,0.1-0.2c0-0.1,0.1-0.1,0.1-0.2c0-0.1,0.1-0.1,0.2-0.2c0,0,0.1-0.1,0.1-0.1
	c0.1-0.1,0.1-0.1,0.2-0.2c0,0,0.1-0.1,0.1-0.1c0.1,0,0.1-0.1,0.2-0.1c0,0,0.1,0,0.1-0.1c0.1,0,0.1-0.1,0.2-0.1c0,0,0.1,0,0.1,0
	c0.4-0.2,0.9-0.4,1.5-0.6c1-0.4,4.3-1.3,7.9-1.5c0.5,0,1,0,1.5,0c0.5,0,1,0,1.5,0c3.6,0.2,6.8,1.1,7.9,1.5c2.4,0.9,3.6,0.9,4.4,8.5
	c0.5,4.8,5.6,123.5,8.8,177.4l5.9-3.8l31.9-212.1c1.2,4,39.5,18.6,55.8,24.5c16.3,5.9,40.4,11.3,60.7,34.7
	c9.2,10.6,15.7,28.2,20.1,44.2l13.2-8.5V83z"/>
<g>
	<defs>
		<path id="SVGID_1_" d="M81.4,491.4V83H98c39,0,95.6-3.2,143.5-18.5c27.3-8.7,39.4-17.5,40.4-18.3l10.7-7l10.1,7
			c1.2,0.9,13.3,9.6,40.4,18.2C391,79.8,447.6,83,486.6,83h16.6V488L293.6,623.2L81.4,491.4z"/>
	</defs>
	<clipPath id="SVGID_2_">
		<use xlink:href="#SVGID_1_"  overflow="visible"/>
	</clipPath>
	<rect x="58.6" y="14.6" clip-path="url(#SVGID_2_)" fill="#E8C725" width="6.7" height="655.8"/>
	<rect x="69.5" y="14.6" clip-path="url(#SVGID_2_)" fill="#E8C725" width="6.7" height="655.8"/>
	<rect x="80.5" y="14.6" clip-path="url(#SVGID_2_)" fill="#E8C725" width="6.7" height="655.8"/>
	<rect x="91.5" y="14.6" clip-path="url(#SVGID_2_)" fill="#E8C725" width="6.7" height="655.8"/>
	<rect x="102.4" y="14.6" clip-path="url(#SVGID_2_)" fill="#E8C725" width="6.7" height="655.8"/>
	<rect x="113.4" y="14.6" clip-path="url(#SVGID_2_)" fill="#E8C725" width="6.7" height="655.8"/>
	<rect x="124.4" y="14.6" clip-path="url(#SVGID_2_)" fill="#E8C725" width="6.7" height="655.8"/>
	<rect x="135.3" y="14.6" clip-path="url(#SVGID_2_)" fill="#E8C725" width="6.7" height="655.8"/>
	<rect x="146.3" y="14.6" clip-path="url(#SVGID_2_)" fill="#E8C725" width="6.7" height="655.8"/>
	<rect x="157.3" y="14.6" clip-path="url(#SVGID_2_)" fill="#E8C725" width="6.7" height="655.8"/>
	<rect x="168.3" y="14.6" clip-path="url(#SVGID_2_)" fill="#E8C725" width="6.7" height="655.8"/>
	<rect x="179.2" y="14.6" clip-path="url(#SVGID_2_)" fill="#E8C725" width="6.7" height="655.8"/>
	<rect x="190.2" y="14.6" clip-path="url(#SVGID_2_)" fill="#E8C725" width="6.7" height="655.8"/>
	<rect x="201.2" y="14.6" clip-path="url(#SVGID_2_)" fill="#E8C725" width="6.7" height="655.8"/>
	<rect x="212.1" y="14.6" clip-path="url(#SVGID_2_)" fill="#E8C725" width="6.7" height="655.8"/>
	<rect x="223.1" y="14.6" clip-path="url(#SVGID_2_)" fill="#E8C725" width="6.7" height="655.8"/>
	<rect x="234.1" y="14.6" clip-path="url(#SVGID_2_)" fill="#E8C725" width="6.7" height="655.8"/>
	<rect x="245" y="14.6" clip-path="url(#SVGID_2_)" fill="#E8C725" width="6.7" height="655.8"/>
	<rect x="256" y="14.6" clip-path="url(#SVGID_2_)" fill="#E8C725" width="6.7" height="655.8"/>
	<rect x="267" y="14.6" clip-path="url(#SVGID_2_)" fill="#E8C725" width="6.7" height="655.8"/>
	<rect x="278" y="14.6" clip-path="url(#SVGID_2_)" fill="#E8C725" width="6.7" height="655.8"/>
	<rect x="288.9" y="14.6" clip-path="url(#SVGID_2_)" fill="#E8C725" width="6.7" height="655.8"/>
	<rect x="299.9" y="14.6" clip-path="url(#SVGID_2_)" fill="#E8C725" width="6.7" height="655.8"/>
	<rect x="310.9" y="14.6" clip-path="url(#SVGID_2_)" fill="#E8C725" width="6.7" height="655.8"/>
	<rect x="321.8" y="14.6" clip-path="url(#SVGID_2_)" fill="#E8C725" width="6.7" height="655.8"/>
	<rect x="332.8" y="14.6" clip-path="url(#SVGID_2_)" fill="#E8C725" width="6.7" height="655.8"/>
	<rect x="343.8" y="14.6" clip-path="url(#SVGID_2_)" fill="#E8C725" width="6.7" height="655.8"/>
	<rect x="354.7" y="14.6" clip-path="url(#SVGID_2_)" fill="#E8C725" width="6.7" height="655.8"/>
	<rect x="365.7" y="14.6" clip-path="url(#SVGID_2_)" fill="#E8C725" width="6.7" height="655.8"/>
	<rect x="376.7" y="14.6" clip-path="url(#SVGID_2_)" fill="#E8C725" width="6.7" height="655.8"/>
	<rect x="387.7" y="14.6" clip-path="url(#SVGID_2_)" fill="#E8C725" width="6.7" height="655.8"/>
	<rect x="398.6" y="14.6" clip-path="url(#SVGID_2_)" fill="#E8C725" width="6.7" height="655.8"/>
	<rect x="409.6" y="14.6" clip-path="url(#SVGID_2_)" fill="#E8C725" width="6.7" height="655.8"/>
	<rect x="420.6" y="14.6" clip-path="url(#SVGID_2_)" fill="#E8C725" width="6.7" height="655.8"/>
	<rect x="431.5" y="14.6" clip-path="url(#SVGID_2_)" fill="#E8C725" width="6.7" height="655.8"/>
	<rect x="442.5" y="14.6" clip-path="url(#SVGID_2_)" fill="#E8C725" width="6.7" height="655.8"/>
	<rect x="453.5" y="14.6" clip-path="url(#SVGID_2_)" fill="#E8C725" width="6.7" height="655.8"/>
	<rect x="464.5" y="14.6" clip-path="url(#SVGID_2_)" fill="#E8C725" width="6.7" height="655.8"/>
	<rect x="475.4" y="14.6" clip-path="url(#SVGID_2_)" fill="#E8C725" width="6.7" height="655.8"/>
	<rect x="486.4" y="14.6" clip-path="url(#SVGID_2_)" fill="#E8C725" width="6.7" height="655.8"/>
	<rect x="497.4" y="14.6" clip-path="url(#SVGID_2_)" fill="#E8C725" width="6.7" height="655.8"/>
	<rect x="508.3" y="14.6" clip-path="url(#SVGID_2_)" fill="#E8C725" width="6.7" height="655.8"/>
	<rect x="519.3" y="14.6" clip-path="url(#SVGID_2_)" fill="#E8C725" width="6.7" height="655.8"/>
</g>
<path d="M389.4,212.2c-3.7-0.3-27.7,2.8-27.7,2.8c-2-2.8-5.1-16-5.1-49.1c0-33.1,9.5-58.8,9.5-58.8c-7.5-5.9-33.1-24-78.3-24
	c-45.2,0-60.6,20.9-60.6,20.9s7.3,22.4,7.3,57.6c0,35.3-5.7,47.7-5.7,47.7c-40.6-6.3-36.5,10.5-36.1,13.8
	c0.4,3.3,9.9,22.8,79.9,22.8c67,0,114.5-17.7,120.1-24.7C396.1,217,393.2,212.5,389.4,212.2z"/>
<path fill="none" stroke="#000000" stroke-width="4" stroke-linecap="round" stroke-miterlimit="10" d="M271.1,272.1
	c0,12.1-9.8,21.9-21.9,21.9c-12.1,0-21.9-9.8-21.9-21.9c0-12.1,9.8-21.9,21.9-21.9c10,0,18.5,6.8,21.1,16
	C270.8,268.1,271.1,270.1,271.1,272.1z"/>
<path fill="none" stroke="#000000" stroke-width="4" stroke-linecap="round" stroke-miterlimit="10" d="M271.1,266.2
	c0,0,3.5-5,10.9-5"/>
<path fill="none" stroke="#000000" stroke-width="4" stroke-linecap="round" stroke-miterlimit="10" d="M271.1,266.2
	c0,0,3.5-5,10.9-5"/>
<path fill="none" stroke="#000000" stroke-width="4" stroke-linecap="round" stroke-miterlimit="10" d="M292.8,266.2
	c0,0-3.5-5-10.9-5"/>
<line fill="none" stroke="#000000" stroke-width="4" stroke-linecap="round" stroke-miterlimit="10" x1="220.3" y1="272.1" x2="227.4" y2="272.1"/>
<path d="M293.6,416.6c6.7,0,12.7,2.8,12.7,2.8c1.2-1.5,1.7-4.1,1.7-4.1s1.6-7.2,2.5-12.3c0.9-5.2-2.8-5.5-2.8-5.5
	c-6.2-1.8-14.7-2-14.7-2s-8.5,0.2-14.7,2c0,0-3.7,0.3-2.8,5.5c0.9,5.2,2.5,12.3,2.5,12.3s0.6,2.6,1.7,4.1c0,0,6-2.8,12.7-2.8H293.6z
	"/>
<path d="M246.3,495.6c0.4,2.2,3,12.3,3,12.3s0.1,0.6,0.8,0.9c0.6,0.3,1.2,0.1,1.2,0.1s9.7-3.8,11.7-4.8l6.7-13.1
	c1.6-19.2,3.2-38.1,4.2-49.4L246.3,495.6z"/>
<path d="M280.9,424.7c0-0.1,0.1-0.1,0.2-0.2C281,424.5,280.9,424.6,280.9,424.7z"/>
<path d="M281.1,424.4c0.1-0.1,0.1-0.1,0.2-0.2C281.2,424.3,281.2,424.3,281.1,424.4z"/>
<path d="M281.4,424.1c0.1,0,0.1-0.1,0.2-0.1C281.6,424,281.5,424.1,281.4,424.1z"/>
<path d="M280.6,425.1c0-0.1,0.1-0.2,0.1-0.2C280.7,424.9,280.6,425,280.6,425.1z"/>
<path d="M282,423.7c0.4-0.2,0.9-0.4,1.5-0.6C283,423.4,282.5,423.5,282,423.7z"/>
<path d="M283.5,423.2c1-0.4,4.3-1.3,7.9-1.5C287.8,421.9,284.6,422.8,283.5,423.2z"/>
<path d="M281.7,423.9c0.1,0,0.1-0.1,0.2-0.1C281.9,423.8,281.8,423.9,281.7,423.9z"/>
<path d="M279.7,427.5c0-0.1,0.1-0.2,0.1-0.4C279.8,427.2,279.8,427.4,279.7,427.5z"/>
<path d="M280.4,425.5c0-0.1,0.1-0.2,0.1-0.3C280.4,425.3,280.4,425.4,280.4,425.5z"/>
<path d="M279.2,430.5c0-0.1,0-0.2,0-0.3C279.3,430.3,279.2,430.4,279.2,430.5z"/>
<path d="M279.5,428.4c0-0.1,0-0.3,0.1-0.4C279.6,428.1,279.6,428.2,279.5,428.4z"/>
<path d="M280.1,426.1c0-0.1,0.1-0.2,0.1-0.3C280.2,425.9,280.2,426,280.1,426.1z"/>
<path d="M279.9,426.7c0-0.1,0.1-0.2,0.1-0.3C280,426.5,279.9,426.6,279.9,426.7z"/>
<path d="M279.4,429.4c0-0.1,0-0.3,0.1-0.4C279.4,429.1,279.4,429.2,279.4,429.4z"/>
<path d="M306.7,431.6c-0.8-7.6-2-7.5-4.4-8.5C304.7,424.1,306,424,306.7,431.6z"/>
<path d="M280.5,425.3c0-0.1,0.1-0.1,0.1-0.2C280.6,425.1,280.5,425.2,280.5,425.3z"/>
<path d="M281.3,424.2c0,0,0.1-0.1,0.1-0.1C281.4,424.2,281.3,424.2,281.3,424.2z"/>
<path d="M280.2,425.8c0-0.1,0.1-0.2,0.1-0.2C280.3,425.6,280.3,425.7,280.2,425.8z"/>
<path d="M280.7,424.8c0-0.1,0.1-0.1,0.1-0.2C280.8,424.7,280.8,424.8,280.7,424.8z"/>
<path d="M281,424.5c0,0,0.1-0.1,0.1-0.1C281.1,424.4,281.1,424.5,281,424.5z"/>
<path d="M279.8,427.1c0-0.1,0.1-0.3,0.1-0.4C279.9,426.8,279.8,427,279.8,427.1z"/>
<path d="M279.4,429c0-0.2,0.1-0.4,0.1-0.6C279.5,428.6,279.5,428.8,279.4,429z"/>
<path d="M280,426.4c0-0.1,0.1-0.2,0.1-0.3C280.1,426.2,280,426.3,280,426.4z"/>
<path d="M279.2,431l0,0.2c0-0.3,0.1-0.5,0.1-0.8C279.2,430.7,279.2,430.8,279.2,431z"/>
<path d="M279.6,428c0-0.2,0.1-0.3,0.1-0.5C279.7,427.6,279.6,427.8,279.6,428z"/>
<path d="M281.6,424c0,0,0.1,0,0.1-0.1C281.7,423.9,281.7,424,281.6,424z"/>
<path d="M279.3,430.1c0-0.3,0.1-0.5,0.1-0.8C279.3,429.6,279.3,429.9,279.3,430.1z"/>
<path d="M282,423.8C282,423.8,282,423.8,282,423.8C282,423.8,282,423.8,282,423.8z"/>
<path d="M294.4,421.6c3.6,0.2,6.8,1.1,7.9,1.5C301.3,422.8,298,421.9,294.4,421.6z"/>
<path d="M175.4,417.7c-16.3,5.9-40.4,11.3-60.7,34.7c-9.7,11.2-16.4,30.1-20.8,46.8l173.3,107.6l-36-213.6
	C230,397.2,191.8,411.8,175.4,417.7z"/>
<path d="M409.1,417.7c-16.3-5.9-54.6-20.5-55.8-24.5l-31.9,212.1l168.5-108.7c-4.4-16-10.8-33.6-20.1-44.2
	C449.5,428.9,425.5,423.5,409.1,417.7z"/>
<path d="M302.3,423.2c-1-0.4-4.3-1.3-7.9-1.5c-0.5,0-1,0-1.5,0c-0.5,0-1,0-1.5,0c-3.6,0.2-6.8,1.1-7.9,1.5c-0.5,0.2-1,0.4-1.5,0.6
	c0,0-0.1,0-0.1,0c-0.1,0-0.2,0.1-0.2,0.1c0,0-0.1,0-0.1,0.1c-0.1,0-0.1,0.1-0.2,0.1c0,0-0.1,0.1-0.1,0.1c-0.1,0-0.1,0.1-0.2,0.2
	c0,0-0.1,0.1-0.1,0.1c-0.1,0.1-0.1,0.1-0.2,0.2c0,0.1-0.1,0.1-0.1,0.2c0,0.1-0.1,0.1-0.1,0.2c0,0.1-0.1,0.1-0.1,0.2
	c0,0.1-0.1,0.2-0.1,0.3c0,0.1-0.1,0.2-0.1,0.2c0,0.1-0.1,0.2-0.1,0.3c0,0.1-0.1,0.2-0.1,0.3c0,0.1-0.1,0.2-0.1,0.3
	c0,0.1-0.1,0.2-0.1,0.4c0,0.1-0.1,0.2-0.1,0.4c0,0.2-0.1,0.3-0.1,0.5c0,0.1-0.1,0.3-0.1,0.4c0,0.2-0.1,0.4-0.1,0.6
	c0,0.1,0,0.3-0.1,0.4c0,0.3-0.1,0.5-0.1,0.8c0,0.1,0,0.2,0,0.3c0,0.2-0.1,0.5-0.1,0.8c0,0.1,0,0.2,0,0.4c-0.2,1.7-0.3,3.6-0.5,5.7
	l-3.7,43.3c-1.2,14.6-5.5,92.1-6.2,129.5l24.9,13l25.9-14.1c-3.2-54-12.3-172.6-12.8-177.4C306,424,304.7,424.1,302.3,423.2z"/>
<g>
	<path d="M468.5,350.5c22.3,0,28.6,0.1,42.4,0.1c13.8,0,47.4-0.1,47.4-0.1l-19.4-34.9l19.4-35c0,0-36.7-0.5-47.6-0.5
		c-11,0-26.9-1.4-42.6-1.4c-15.6,0-27.2,0-27.2,0l0.4,71.8C441.3,350.5,446.2,350.5,468.5,350.5z"/>
	<path fill="#FFDE17" d="M468.1,278.7c15.7,0,31.6,1.4,42.6,1.4c11,0,47.6,0.5,47.6,0.5l-19.4,35l19.4,34.9c0,0-33.6,0.1-47.4,0.1
		c-13.8,0-20.1-0.1-42.4-0.1c-22.3,0-27.2,0-27.2,0l-0.4-71.8C440.9,278.7,452.4,278.7,468.1,278.7 M468.1,268.7h-27.2h-10.1
		l0.1,10.1l0.4,71.8l0.1,9.9h9.9h27.2c12.4,0,19.9,0,26.5,0.1c5.3,0,9.8,0,15.9,0c13.7,0,47.1-0.1,47.4-0.1l16.9-0.1l-8.2-14.8
		l-16.7-30l16.7-30.2l8.1-14.6l-16.7-0.2c-1.5,0-36.8-0.5-47.8-0.5c-4.8,0-10.8-0.3-17.1-0.6C485.7,269.2,476.9,268.7,468.1,268.7
		L468.1,268.7z"/>
</g>
<g>
	<path d="M116.1,350.5c-22.3,0-28.6,0.1-42.4,0.1c-13.8,0-47.4-0.1-47.4-0.1l39.4-34.9l-39.4-35c0,0,36.7-0.5,47.6-0.5
		c11,0,26.9-1.4,42.6-1.4c15.6,0,27.2,0,27.2,0l-0.4,71.8C143.2,350.5,138.3,350.5,116.1,350.5z"/>
	<path fill="#FFDE17" d="M143.7,278.7l-0.4,71.8c0,0-4.9,0-27.2,0c-22.3,0-28.6,0.1-42.4,0.1c-13.8,0-47.4-0.1-47.4-0.1l39.4-34.9
		l-39.4-35c0,0,36.7-0.5,47.6-0.5c11,0,26.9-1.4,42.6-1.4C132.1,278.7,143.7,278.7,143.7,278.7 M153.7,268.7h-10.1h-27.2
		c-8.8,0-17.7,0.4-25.5,0.8c-6.3,0.3-12.3,0.6-17.1,0.6c-10.9,0-46.3,0.5-47.8,0.5L0.4,271l19.3,17.1l31,27.5l-30.9,27.4L0,360.5
		l26.2,0.1c0.3,0,33.8,0.1,47.4,0.1c6.1,0,10.7,0,15.9,0c6.6,0,14-0.1,26.4-0.1h27.2h9.9l0.1-9.9l0.4-71.8L153.7,268.7L153.7,268.7z
		"/>
</g>
<g>
	<rect x="113.6" y="307.3" width="357.4" height="72.3"/>
	<path fill="#FFDE17" d="M471,307.3v72.3H113.6v-72.3H471 M481,297.3h-10H113.6h-10v10v72.3v10h10H471h10v-10v-72.3V297.3L481,297.3
		z"/>
</g>
<path fill="#FFDE17" d="M134.2,337h35.1v7h-13.6l-0.7,3.8h27.2v12.6h-33.7v2h34.2v5.8h-45.3v-12.9h33.7v-1.8h-33.7v-5.7h6.9l0.7-3.8
	h-10.9V337z M143.6,319.6h13.5c4.9,0,8.4,3.6,8.4,8.1s-3.5,8-8.4,8h-13.5c-4.9,0-8.3-3.6-8.3-8S138.7,319.6,143.6,319.6z
	 M146.5,329.4h7.9c0.7,0,1.3-0.7,1.3-1.6c0-0.8-0.6-1.6-1.3-1.6h-7.9c-0.7,0-1.3,0.7-1.3,1.6C145.2,328.6,145.8,329.4,146.5,329.4z
	 M166.4,324.5h4.2v-5.4h11.6v27.4h-11.6v-13.7h-4.2V324.5z"/>
<path fill="#FFDE17" d="M222.6,336.1h48.6v8h-48.6V336.1z M224.2,319.1h45.4l-1.4,15.7h-11.4l0.7-8.2h-33.3V319.1z M224.4,346.6
	h11.3v3H258v-3h11.3v21.5H258v-1.4l-33.6,1.4V346.6z M235.7,360.2l22.4-0.7v-2.9h-22.4V360.2z"/>
<path fill="#FFDE17" d="M311,357.9h18.3v-8.8h11.9v8.8h18.3v9.5H311V357.9z M358.2,347.5h-45.4v-27.6h44.9v9.1h-33.1v9.3h33.7V347.5
	z"/>
<path fill="#FFDE17" d="M399.3,339.8H448v8.2h-18.8v4.3h16.9v16.4h-11.4V360h-33.8v-7.7H418V348h-18.7V339.8z M446.4,337.1h-45.2
	v-18h44.9v7.5H413v2.9h33.4V337.1z"/>
<g>
</g>
<g>
</g>
<g>
</g>
<g>
</g>
<g>
</g>
<g>
</g>
</svg>
