<?xml version="1.0" encoding="utf-8"?>
<!-- Generator: Adobe Illustrator 18.1.1, SVG Export Plug-In . SVG Version: 6.00 Build 0)  -->
<svg version="1.1" id="Layer_1" xmlns="http://www.w3.org/2000/svg" xmlns:xlink="http://www.w3.org/1999/xlink" x="0px" y="0px"
	 viewBox="0 0 658.5 558.4" enable-background="new 0 0 658.5 558.4" xml:space="preserve">
<g>
	<path fill="#A7A9AC" stroke="#414042" stroke-width="10" stroke-miterlimit="10" d="M108.6,414.8c-31.8,0-40.7,0.1-60.4,0.1
		c-19.7,0-39.1-0.1-39.1-0.1l27.6-42.9L9.1,328.7c0,0,23.7-0.6,39.4-0.6c15.6,0,38.4-1.8,60.7-1.8c22.3,0,38.7,0,38.7,0l-0.6,88.4
		C147.4,414.8,140.4,414.8,108.6,414.8z"/>
	<polygon fill="#414042" points="85.1,454.9 84.8,348.1 148,326.4 148,433.2 	"/>
	<path fill="#A7A9AC" stroke="#414042" stroke-width="10" stroke-miterlimit="10" d="M549.9,414.8c31.8,0,40.7,0.1,60.4,0.1
		c19.7,0,39.1-0.1,39.1-0.1l-27.6-42.9l27.6-43.1c0,0-23.7-0.6-39.4-0.6c-15.7,0-38.4-1.8-60.7-1.8c-22.3,0-38.7,0-38.7,0l0.6,88.4
		C511.2,414.8,518.1,414.8,549.9,414.8z"/>
	<polygon fill="#414042" points="576.5,454.9 576.8,348.1 510.5,326.4 510.5,433.2 	"/>
</g>
<path fill="#D1D3D4" d="M326,557.6c-64-15.8-118.4-57.5-152.8-89.7c-37-34.6-58.8-65.2-59.8-66.5l-2.5-3.5V73.6L329.3,16l218.2,57.6
	v324.3l-2.5,3.5c-0.9,1.3-22.8,31.9-59.8,66.5c-34.4,32.2-88.8,73.8-152.8,89.7l-3.2,0.8L326,557.6z"/>
<path fill="#414042" d="M329.3,29.9L124.5,84v309.7c0,0,86.4,121.6,204.8,150.9c118.4-29.3,204.8-150.9,204.8-150.9V84L329.3,29.9z"
	/>
<path fill="#F1F2F2" d="M329.3,48.8L139,99.1V342V370V383c0,0,80.2,113,190.3,140.2C439.3,496,519.5,383,519.5,383V370V342V99.1
	L329.3,48.8z"/>
<g opacity="0.4">
	<defs>
		<path id="SVGID_1_" opacity="0.4" d="M329.3,48.8L139,99.1V342V370V383c0,0,80.2,113,190.3,140.2C439.3,496,519.5,383,519.5,383
			V370V342V99.1L329.3,48.8z"/>
	</defs>
	<clipPath id="SVGID_2_">
		<use xlink:href="#SVGID_1_"  overflow="visible"/>
	</clipPath>
	<g clip-path="url(#SVGID_2_)">
		<rect x="95.5" y="0" fill="#BCBEC0" width="6.7" height="552.8"/>
		<rect x="106.5" y="0" fill="#BCBEC0" width="6.7" height="552.8"/>
		<rect x="117.5" y="0" fill="#BCBEC0" width="6.7" height="552.8"/>
		<rect x="128.4" y="0" fill="#BCBEC0" width="6.7" height="552.8"/>
		<rect x="139.4" y="0" fill="#BCBEC0" width="6.7" height="552.8"/>
		<rect x="150.4" y="0" fill="#BCBEC0" width="6.7" height="552.8"/>
		<rect x="161.4" y="0" fill="#BCBEC0" width="6.7" height="552.8"/>
		<rect x="172.3" y="0" fill="#BCBEC0" width="6.7" height="552.8"/>
		<rect x="183.3" y="0" fill="#BCBEC0" width="6.7" height="552.8"/>
		<rect x="194.3" y="0" fill="#BCBEC0" width="6.7" height="552.8"/>
		<rect x="205.2" y="0" fill="#BCBEC0" width="6.7" height="552.8"/>
		<rect x="216.2" y="0" fill="#BCBEC0" width="6.7" height="552.8"/>
		<rect x="227.2" y="0" fill="#BCBEC0" width="6.7" height="552.8"/>
		<rect x="238.1" y="0" fill="#BCBEC0" width="6.7" height="552.8"/>
		<rect x="249.1" y="0" fill="#BCBEC0" width="6.7" height="552.8"/>
		<rect x="260.1" y="0" fill="#BCBEC0" width="6.7" height="552.8"/>
		<rect x="271.1" y="0" fill="#BCBEC0" width="6.7" height="552.8"/>
		<rect x="282" y="0" fill="#BCBEC0" width="6.7" height="552.8"/>
		<rect x="293" y="0" fill="#BCBEC0" width="6.7" height="552.8"/>
		<rect x="304" y="0" fill="#BCBEC0" width="6.7" height="552.8"/>
		<rect x="314.9" y="0" fill="#BCBEC0" width="6.7" height="552.8"/>
		<rect x="325.9" y="0" fill="#BCBEC0" width="6.7" height="552.8"/>
		<rect x="336.9" y="0" fill="#BCBEC0" width="6.7" height="552.8"/>
		<rect x="347.9" y="0" fill="#BCBEC0" width="6.7" height="552.8"/>
		<rect x="358.8" y="0" fill="#BCBEC0" width="6.7" height="552.8"/>
		<rect x="369.8" y="0" fill="#BCBEC0" width="6.7" height="552.8"/>
		<rect x="380.8" y="0" fill="#BCBEC0" width="6.7" height="552.8"/>
		<rect x="391.7" y="0" fill="#BCBEC0" width="6.7" height="552.8"/>
		<rect x="402.7" y="0" fill="#BCBEC0" width="6.7" height="552.8"/>
		<rect x="413.7" y="0" fill="#BCBEC0" width="6.7" height="552.8"/>
		<rect x="424.6" y="0" fill="#BCBEC0" width="6.7" height="552.8"/>
		<rect x="435.6" y="0" fill="#BCBEC0" width="6.7" height="552.8"/>
		<rect x="446.6" y="0" fill="#BCBEC0" width="6.7" height="552.8"/>
		<rect x="457.6" y="0" fill="#BCBEC0" width="6.7" height="552.8"/>
		<rect x="468.5" y="0" fill="#BCBEC0" width="6.7" height="552.8"/>
		<rect x="479.5" y="0" fill="#BCBEC0" width="6.7" height="552.8"/>
		<rect x="490.5" y="0" fill="#BCBEC0" width="6.7" height="552.8"/>
		<rect x="501.4" y="0" fill="#BCBEC0" width="6.7" height="552.8"/>
		<rect x="512.4" y="0" fill="#BCBEC0" width="6.7" height="552.8"/>
		<rect x="523.4" y="0" fill="#BCBEC0" width="6.7" height="552.8"/>
		<rect x="534.3" y="0" fill="#BCBEC0" width="6.7" height="552.8"/>
		<rect x="545.3" y="0" fill="#BCBEC0" width="6.7" height="552.8"/>
		<rect x="556.3" y="0" fill="#BCBEC0" width="6.7" height="552.8"/>
	</g>
</g>
<path fill="#414042" d="M479.4,321.4c-21-17.8-29.2-29.7-34.2-43.5c-5-13.8-19.1-9.3-24.9-10.9c-2.7-3.2-7.2-12.2-5.4-15.6
	c8.9-5.1,23.3-37.6,23.3-37.6s17.3,8.6,20.9,6.6c3.3-1.8,2.8-6.4-1.4-15c-1.9-3.9-8.2-14.5-8.2-14.5s1.4-8.6,1.4-13.8
	c-0.2-26.9-11.6-37.9-17.2-45.2c-2.1-2.8-13.4-12.1-2.4-12.2c6.7-0.1,15.4-3.4,13-10c-3.3-8.8-18.5-6.4-26.6-6.8
	c-7.4-0.3-13.2-2-18.5-5.4c-4.9-3.2-8-7.5-11.6-9.9c-16.6-11-21.9-0.2-16.8,3.1c8.9,5.6-7.5,7.9-11.2,7.9
	c-32.3-1-58.5,23.6-71.6,51.7c-11,2.2-20.6,3.7-23.8,9.2c-2.4,4-2.2,6.6,1.1,9.2c3.5,2.7,10.3,3.8,21.6,5.9
	c-4.6,12.5-4.5,21-3.5,22.8c1.4,2.3,2.7,3.9,0.6,7.2c-2.1,3.4-9.8,18.2-12.4,21.9c-2.6,3.6-0.3,7.6,1.3,9c1.6,1.3,5.6,1.9,10.2,3.1
	c6.4,1.8-5.9,9.1-0.3,12.5c-14.1-0.3-21.1,25.6-20.9,30.6c-1.3,2.3-3,4.9-11.1,14.6c-0.2-11.7-11-12.8-5.5-18c5.5-5.2,4.4-9-3.7-9.3
	c-4.7-0.1-11.4,0.2-23.7-0.1c-12.3-0.3-8.3,5-5.5,8.3c3.5,4.1,1.9,6.4-0.2,12.2c-2.1,5.7-8.9,19.6,5.4,30.8
	c15.1,12,36.3,0.3,46.4-12.2c10.2-12.5,8.5-22.5,4.6-25.1c-1.8-6.5,4.3-17.2,7.2-21.8c3-4.8,5-3.4,7.6-0.7c3.6,3.8,3.4,8.8,2.1,18.2
	c-1.3,9.4,9.6,19.3,21.6,18.6c12-0.7,19.5-3.5,21.7,0.6c0.8,1.6,5.1,10.9,5.2,17.8c-5,2.1-20.2-0.2-27,2.1
	c-6.8,2.3-5.7,16.7-18.1,30.7c-11,12.3-19.3,140.7-25.6,157.6c-4.3,11.6,27.4,19.7,50.9,22.3c23.5,2.6,33.3,8.6,63.3-7.6
	c30-16.2,68.7-45.2,84.9-62.6c16.2-17.5,49.1-60.4,65-63.6C543.1,391.2,494.5,334.3,479.4,321.4z"/>
<g>
	<polygon fill="#A7A9AC" points="90,451.9 89.8,355.1 571.7,355.1 571.5,451.9 	"/>
	<g>
		<path fill="#414042" d="M566.7,360.1l-0.2,86.8h-53.7H404.5H255H148.8H95l-0.2-86.8h54H255h149.4h108.3H566.7 M576.8,350.1h-64
			H404.5H255H148.8h-64l0.3,106.8h63.7H255h149.4h108.3h63.7L576.8,350.1L576.8,350.1z"/>
	</g>
</g>
<g>
	<path fill="#414042" d="M106.9,409.4h57v11.9h-21.4v14.3h-14.3v-14.3h-21.4V409.4z M109.1,376.4h19.4V371h13.9v5.4h19.3v11.4h-19.1
		c1.7,5.7,9.5,7.3,19.7,7.3v11.7c-13.6,0-22.2-3.3-27-9c-4.8,5.8-13.4,9-27,9v-11.7c10.2,0,18-1.6,19.7-7.3h-19.1V376.4z"/>
	<path fill="#414042" d="M170.2,374.3h35v33.5h-21.4v11.7l26-2.2v12.1l-39.7,3.4v-36.5h21.6v-10.2h-21.6V374.3z M211.3,372.3h13.9
		v62.6h-13.9V372.3z"/>
	<path fill="#414042" d="M230.9,421.7h10.2v-10.6h12.6v10.6h11.8v-10.6h12.6v10.6h9.9v12.1h-57V421.7z M248.1,408.9
		c-9.1,0-15.6-8-15.6-17.9c0-10,6.4-18,15.6-18h22.8c9.2,0,15.6,8,15.6,18c0,9.9-6.4,17.9-15.6,17.9H248.1z M252.1,397.5h14.7
		c3.4,0,5.7-2.8,5.7-6.5c0-3.7-2.3-6.5-5.7-6.5h-14.7c-3.4,0-5.7,2.8-5.7,6.5C246.4,394.7,248.7,397.5,252.1,397.5z"/>
	<path fill="#414042" d="M294.2,373.3h35.7V384h-11.7c0.1,9,5.2,13.4,12.3,13.9v11c-8.1-0.2-14.4-2.9-18.5-9
		c-4.2,6.1-10.5,8.8-18.5,9v-11c7.2-0.5,12.3-4.9,12.3-13.9h-11.7V373.3z M308.2,410.8h29.6c6.8,0,12.2,5,12.2,12.2
		c0,7-5.3,12.2-12.2,12.2h-29.6c-6.7,0-12-5.2-12-12.2C296.2,415.8,301.5,410.8,308.2,410.8z M333.7,425.2c1.7,0,2.6-0.9,2.6-2.2
		c0-1.5-0.9-2.2-2.6-2.2h-21.5c-1.5,0-2.4,0.7-2.4,2.2c0,1.3,0.9,2.2,2.4,2.2H333.7z M326.7,385.7h8.9v-13.4h13.7v37.2h-13.7v-13.6
		h-8.9V385.7z"/>
	<path fill="#414042" d="M373.5,422.4h10V411h12.6v11.4h11.8V411h12.6v11.4h10v11.5h-57V422.4z M420.5,398.8h8.5v10.5h-53.9v-10.5
		h8.3l-1.1-13.7h12.5l0.9,13.7h12.6l0.9-13.7h12.5L420.5,398.8z M375.7,373.3h52.7v10.5h-52.7V373.3z"/>
	<path fill="#414042" d="M447.8,372.6h12.7v7.7c0,10.8,4.6,15,11.6,16.8v9.7c-8-1.3-13.9-4.4-18-9.4c-4,4.9-10,8.1-17.9,9.4v-9.7
		c6.9-1.8,11.6-6,11.6-16.8V372.6z M439.4,408.9H492v16h-38.9v2.2h39.5v7.8h-53.2v-16.6h38.9v-1.8h-38.9V408.9z M467.6,375.7h10.7
		v-3.4H492v35h-13.7v-11.9h-10.7v-8.5h10.7v-2.7h-10.7V375.7z"/>
	<path fill="#414042" d="M499.7,372.3h52.7v17h-39.3v2.3h39.6v8.1h-20.1v4.4h22v9.1h-57v-9.1h21.9v-4.4h-19.8v-17.4h39.2v-2.3h-39.2
		V372.3z M499.7,416.2h52.7v19.4H539v-10.8h-39.3V416.2z"/>
</g>
<g>
	
		<rect x="194" y="170.3" transform="matrix(0.2836 -0.9589 0.9589 0.2836 -23.0105 319.283)" fill="none" width="16.4" height="9.5"/>
	<path fill="#414042" d="M223.1,233.5l-7.6-2.3l4.1-13.8c0.4-1.3-0.4-2.7-1.7-3.1l-17.5-5.2c-1.3-0.4-2.7,0.4-3.1,1.7l-4.1,13.8
		l-10.9-3.2l4.1-13.8c0.4-1.3-0.4-2.7-1.7-3.1l-17.2-5.1c-1.3-0.4-2.7,0.4-3.1,1.7l-4.1,13.8l-6.7-2c-0.6-0.2-1.3-0.1-1.9,0.2
		c-0.6,0.3-1,0.8-1.2,1.5l-4.2,14.1c-0.4,1.3,0.4,2.7,1.7,3.1l69.5,20.6c0.2,0.1,5.8,10.3,5.9,10.5c0.4,0.6,1.2,1.3,2,1.1
		c0.7-0.2,1-0.5,1.2-1.5c0.4-1.5-1.9-25.8-1.9-25.8C225.2,235.3,224.4,233.9,223.1,233.5z"/>
	<path fill="#414042" d="M244.5,159.3c-0.3-0.6-0.9-1-1.5-1.2l-65.1-19.2c-1.3-0.4-2.7,0.4-3.1,1.7l-4.2,14.1
		c-0.2,0.6-0.1,1.3,0.2,1.9c0.3,0.6,0.9,1,1.5,1.2l4.5,1.3l-4.6,15.7l-4.5-1.3c-0.6-0.2-1.3-0.1-1.9,0.2c-0.6,0.3-1,0.9-1.2,1.5
		l-4.2,14.2c-0.4,1.3,0.4,2.7,1.7,3.1l65.1,19.2c0.2,0.1,0.5,0.1,0.7,0.1c0.4,0,0.8-0.1,1.2-0.3c0.6-0.3,1-0.8,1.2-1.5l4.2-14.2
		c0.4-1.3-0.4-2.7-1.7-3.1l-5.2-1.5l4.6-15.7l5.2,1.5c0.6,0.2,1.3,0.1,1.9-0.2c0.6-0.3,1-0.8,1.2-1.5l4.2-14.1
		C244.9,160.5,244.8,159.8,244.5,159.3z M195.3,181.5l4.6-15.7l9.1,2.7l-4.6,15.7L195.3,181.5z"/>
</g>
<g>
</g>
<g>
</g>
<g>
</g>
<g>
</g>
<g>
</g>
<g>
</g>
</svg>
